SplineFontDB: 3.2
FontName: TallThin
FullName: TallThin
FamilyName: TallThin
Weight: Regular
Copyright: Copyright (c) 2024, Phlowyd Designs (Farran De Tao Lee)
UComments: "2024-10-31: Current version: 002.000. +AAoA-Full NewEng alphabet glyphs, upper and lower case. No diacritics yet.+AAoACgAA-2024-10-5: Created with FontForge (http://fontforge.org)"
FontLog: "2024-10-31: Version 002.000.+AAoA-Full alphabet of basic upper and lower case glyphs completed for NewEng alphabet. +AAoA-No diacritic forms added. Diacritics need planning and anchor sets and classes and lookups.+AAoACgAA-2024-10-5: Created with FontForge (http://fontforge.org)"
Version: 002.001
ItalicAngle: 0
UnderlinePosition: -100
UnderlineWidth: 50
Ascent: 800
Descent: 200
InvalidEm: 0
LayerCount: 2
Layer: 0 0 "Back" 1
Layer: 1 0 "Fore" 0
XUID: [1021 852 -1484542570 9948]
StyleMap: 0x0000
FSType: 0
OS2Version: 0
OS2_WeightWidthSlopeOnly: 0
OS2_UseTypoMetrics: 1
CreationTime: 1728130703
ModificationTime: 1730297808
PfmFamily: 17
TTFWeight: 100
TTFWidth: 5
LineGap: 90
VLineGap: 0
OS2TypoAscent: 0
OS2TypoAOffset: 1
OS2TypoDescent: 0
OS2TypoDOffset: 1
OS2TypoLinegap: 90
OS2WinAscent: 0
OS2WinAOffset: 1
OS2WinDescent: 0
OS2WinDOffset: 1
HheadAscent: 0
HheadAOffset: 1
HheadDescent: 0
HheadDOffset: 1
OS2Vendor: 'PfEd'
MarkAttachClasses: 1
DEI: 91125
LangName: 1033
Encoding: Custom
Compacted: 1
UnicodeInterp: none
NameList: AGL For New Fonts
DisplaySize: -128
AntiAlias: 1
FitToEm: 0
WinInfo: 0 8 6
BeginPrivate: 0
EndPrivate
Grid
-1000 -130 m 0
 2000 -130 l 1024
  Named: "Half Descent"
170 1300 m 0
 170 -700 l 1024
  Named: "Arc Left - rounded corners"
-1000 500 m 0
 2000 500 l 1024
  Named: "Top 1/3"
205 1300 m 4
 205 -700 l 1028
  Named: "Midline"
-970 649.9921875 m 0
 2030 650 l 1024
  Named: "Top line arc point - curved corners"
-970 110 m 0
 2030 110 l 1024
  Named: "Base line arc point - rounded corners"
240 1300 m 0
 240 -700 l 1024
  Named: "Arc Right - rounded corners"
-970 350 m 0
 2030 350 l 1024

StartChar: A
Encoding: 257 65 1
Width: 430
UnlinkRmOvrlpSave: 1
Flags: W
HStem: 0 21G<50 130 300 380> 240 40<130 300> 720 40<137.646 292.354>
VStem: 50 80<0 240 280 713.519> 300 80<0 240 280 713.519>
LayerCount: 2
Back
SplineSet
93 380 m 1
 337 380 l 1025
340 20 m 1
 340 695 l 1
 340 719.83984375 319.83984375 740 295 740 c 1
 135 740 l 1
 110.16015625 740 90 719.83984375 90 695 c 1
 90 20 l 1025
EndSplineSet
Fore
SplineSet
300 0 m 1
 300 240 l 1
 130 240 l 1
 130 0 l 1
 50 0 l 1
 50 715 l 6
 50 740 70 760 95 760 c 4
 335 760 335 760 335 760 c 2
 360 760 380 740 380 715 c 0
 380 0 380 0 380 0 c 1
 300 0 l 1
300 280 m 1
 300 675 l 2
 300 700 280 720 255 720 c 2
 175 720 l 2
 150 720 130 700 130 675 c 2
 130 280 l 1
 300 280 l 1
EndSplineSet
EndChar

StartChar: B
Encoding: 258 66 2
Width: 430
UnlinkRmOvrlpSave: 1
Flags: W
HStem: 0 40<130 265.689> 240 40<130 265.073> 720 40<130 265.689>
VStem: 50 80<40 240 280 720> 300 80<71.7773 209.018 312.629 688.223>
LayerCount: 2
Back
SplineSet
233.998046875 260.002929688 m 1
 249.998046875 260.002929688 l 1
 299.676757812 260.002929688 339.99609375 219.682617188 339.99609375 170 c 1
 339.998046875 110 l 1
 340 60.3212890625 299.681640625 20.001953125 249.998046875 20 c 1
 134.998046875 20 l 1
 89.998046875 20 l 1
 89.994140625 740 l 1
 249.998046875 740 l 1
 299.676757812 740 339.99609375 699.677734375 339.99609375 649.995117188 c 1
 339.99609375 350 l 1
 339.99609375 300.323242188 299.23046875 260.005859375 248.998046875 260.005859375 c 1
 136.998046875 260.002929688 l 1025
EndSplineSet
Fore
SplineSet
210 240 m 0
 130 240 130 240 130 240 c 1
 130 173 130 107 130 40 c 1
 210 40 l 2
 260 40 300 81 300 130 c 0
 300 137 300 143 300 150 c 0
 300 200 260 240 210 240 c 0
380 90 m 2
 380 40 340 0 290 0 c 0
 50 0 50 0 50 0 c 1
 50 760 l 1
 290 760 l 2
 340 760 380 720 380 670 c 0
 380 330 380 330 380 330 c 2
 380 302 367 277 346 260 c 1
 367 243 380 218 380 190 c 2
 380 90 l 2
300 630 m 2
 300 680 260 720 210 720 c 2
 130 720 l 1
 130 573 130 427 130 280 c 1
 156 280 183 280 209 280 c 0
 259 280 300 320 300 370 c 2
 300 630 l 2
EndSplineSet
EndChar

StartChar: C
Encoding: 259 67 3
Width: 430
UnlinkRmOvrlpSave: 1
Flags: W
HStem: 0 40<137.646 380> 720 40<137.646 380>
VStem: 50 80<46.4806 713.519>
LayerCount: 2
Back
SplineSet
340 20 m 5
 134.99609375 20 l 5
 110.157226562 20 89.998046875 40.16015625 89.998046875 65.0009765625 c 29
 89.998046875 695 l 5
 89.998046875 719.83984375 110.157226562 740 134.99609375 740 c 5
 340 740 l 1029
EndSplineSet
Fore
SplineSet
380 40 m 1
 380 0 l 1
 95 0 l 2
 70 0 50 20 50 45 c 0
 50 715 50 715 50 715 c 6
 50 740 70 760 95 760 c 4
 380 760 380 760 380 760 c 5
 380 720 l 5
 175 720 l 6
 150 720 130 700 130 675 c 6
 130 85 l 2
 130 60 150 40 175 40 c 2
 380 40 l 1
EndSplineSet
EndChar

StartChar: D
Encoding: 260 68 4
Width: 430
UnlinkRmOvrlpSave: 1
Flags: W
HStem: 0 40<130 265.689> 720 40<130 265.689>
VStem: 50 80<40 720> 300 80<71.7773 688.223>
LayerCount: 2
Back
SplineSet
90 20 m 5
 90 740 l 5
 250.00390625 740 l 5
 299.68359375 740 340.00390625 699.677734375 340.00390625 649.995117188 c 5
 340.00390625 110 l 5
 340.00390625 60.3203125 299.68359375 20 250.00390625 20 c 5
 90 20 l 5
EndSplineSet
Fore
SplineSet
130 720 m 1
 130 40 l 5
 210 40 l 6
 260 40 300 80 300 130 c 6
 300 630 l 2
 300 680 260 720 210 720 c 2
 130 720 l 1
50 760 m 1
 290 760 l 2
 340 760 380 720 380 670 c 0
 380 90 380 90 380 90 c 6
 380 40 340 0 290 0 c 4
 50 0 50 0 50 0 c 5
 50 760 l 1
EndSplineSet
EndChar

StartChar: E
Encoding: 261 69 5
Width: 430
UnlinkRmOvrlpSave: 1
Flags: W
HStem: 0 40<137.646 380> 240 40<130 335> 720 40<130 380>
VStem: 50 80<46.4806 240 280 720>
LayerCount: 2
Back
SplineSet
340.004882812 260.002929688 m 29
 100.004882812 260 l 1029
340.002929688 20 m 5
 134.999023438 20 l 5
 110.16796875 20 90.0146484375 40.099609375 90.0146484375 64.8662109375 c 5
 90.0009765625 740 l 5
 340.002929688 740 l 1029
EndSplineSet
Fore
SplineSet
380 40 m 1
 380 0 l 1
 95 0 l 2
 70 0 50 20 50 45 c 2
 50 760 l 1
 380 760 l 1
 380 720 l 1
 130 720 l 1
 130 280 l 1
 335 280 l 1
 335 240 l 1
 130 240 l 1
 130 85 l 0
 130 60 150 40 175 40 c 2
 380 40 l 1
EndSplineSet
EndChar

StartChar: F
Encoding: 262 70 6
Width: 430
UnlinkRmOvrlpSave: 1
Flags: W
HStem: 0 21G<50 130> 240 40<130 335> 720 40<137.646 380>
VStem: 50 80<0 240 280 713.519>
LayerCount: 2
Back
SplineSet
295.001953125 380 m 5
 134.99609375 380 l 1029
89.998046875 20 m 29
 90.001953125 695.000976562 l 5
 90.001953125 719.840820312 110.159179688 740 134.99609375 740 c 5
 340 740 l 1029
EndSplineSet
Fore
SplineSet
95 760 m 0
 380 760 380 760 380 760 c 1
 380 720 l 1
 175 720 l 2
 150 720 130 700 130 675 c 2
 130 280 l 5
 335 280 l 5
 335 240 l 5
 130 240 l 5
 130 0 l 1
 50 0 l 1
 50 715 l 2
 50 740 70 760 95 760 c 0
EndSplineSet
EndChar

StartChar: G
Encoding: 263 71 7
Width: 430
UnlinkRmOvrlpSave: 1
Flags: W
HStem: 0 40<137.646 265.689> 360 40<210 300> 675 85<300 373.519> 720 40<137.646 292.354>
VStem: 50 80<46.4806 713.519> 300 80<71.7773 360 675 713.519>
LayerCount: 2
Back
SplineSet
250 380 m 1
 340 380 l 1
 340 110 l 1
 340 60.3203125 299.6796875 20 250 20 c 1
 134.994140625 20 l 1
 110.157226562 20 90 40.16015625 90 65.0009765625 c 1
 90 695.000976562 l 1
 90 719.83984375 110.16015625 739.999023438 135 739.999023438 c 1
 295 740 l 13
 319.83984375 740 340 719.840820312 340 695.000976562 c 1029
EndSplineSet
Fore
SplineSet
175 720 m 0xdc
 150 720 130 700 130 675 c 2xec
 130 85 l 2
 130 60 150 40 175 40 c 2
 210 40 l 2
 260 40 300 80 300 130 c 2
 300 360 l 1
 210 360 l 1
 210 400 l 1
 380 400 l 1
 380 90 l 2
 380 40 340 0 290 0 c 0
 95 0 95 0 95 0 c 2
 70 0 50 20 50 45 c 0
 50 715 50 715 50 715 c 2
 50 740 70 760 95 760 c 2xdc
 335 760 l 6
 360 760 380 740 380 715 c 6
 380 675 l 5
 300 675 l 5xec
 300 700 280 720 255 720 c 4
 228 720 202 720 175 720 c 0xdc
EndSplineSet
EndChar

StartChar: H
Encoding: 264 72 8
Width: 430
UnlinkRmOvrlpSave: 1
Flags: W
HStem: 0 21G<50 130 300 380> 240 40<130 300> 740 20G<50 130 300 380>
VStem: 50 80<0 240 280 760> 300 80<0 240 280 760>
LayerCount: 2
Back
SplineSet
135.00390625 380 m 25
 295.00390625 380 l 1049
340.001953125 740 m 25
 340.001953125 20 l 1025
90 740 m 25
 90 20 l 1025
EndSplineSet
Fore
SplineSet
50 760 m 1
 130 760 l 1
 130 280 l 5
 300 280 l 5
 300 760 l 1
 380 760 l 1
 380 0 l 1
 300 0 l 1
 300 240 l 5
 130 240 l 5
 130 0 l 1
 50 0 l 1
 50 760 l 1
EndSplineSet
EndChar

StartChar: I
Encoding: 265 73 9
Width: 430
UnlinkRmOvrlpSave: 1
Flags: W
HStem: 0 40<50 170 250 380> 720 40<50 170 250 380>
VStem: 170 80<40 720>
LayerCount: 2
Back
SplineSet
210.001953125 25 m 5
 210.001953125 734 l 1029
90.001953125 20 m 5
 340 20 l 1029
89.998046875 740 m 5
 340 740 l 1029
EndSplineSet
Fore
SplineSet
50 760 m 1
 380 760 l 1
 380 720 l 1
 250 720 l 1
 250 40 l 1
 380 40 l 1
 380 0 l 1
 50 0 l 1
 50 40 l 1
 170 40 l 1
 170 720 l 1
 50 720 l 1
 50 760 l 1
EndSplineSet
EndChar

StartChar: J
Encoding: 266 74 10
Width: 430
UnlinkRmOvrlpSave: 1
Flags: W
HStem: 0 40<50 163.145> 720 40<50 170 250 380>
VStem: 170 80<44.8956 720>
LayerCount: 2
Back
SplineSet
210.00390625 734 m 5
 210.00390625 65.0009765625 l 5
 210.00390625 40.16015625 192.083984375 20 170.00390625 20 c 5
 90.00390625 20 l 1029
90 740 m 5
 340.001953125 740 l 1029
EndSplineSet
Fore
SplineSet
50 760 m 1
 380 760 l 1
 380 720 l 1
 250 720 l 1
 250 45 l 2
 250 20 232 0 210 0 c 0
 50 0 50 0 50 0 c 1
 50 40 l 1
 130 40 l 2
 152 40 170 60 170 85 c 2
 170 720 l 1
 50 720 l 1
 50 760 l 1
EndSplineSet
EndChar

StartChar: K
Encoding: 267 75 11
Width: 430
UnlinkRmOvrlpSave: 1
Flags: W
VStem: 125 5<202 252> 300 80<97 158.873 434.379 497>
LayerCount: 2
Back
SplineSet
300 760 m 5xb6
 380 760 l 5
 380 450 l 6
 380 355 335 299 270 264 c 5
 380 40 l 5
 380 0 l 5
 300 0 l 5
 182 240 l 5
 180 240 177 240 175 240 c 6
 130 240 l 5
 130 0 l 5
 50 0 l 5
 50 760 l 5
 130 760 l 5
 130 283 l 5
 250 283 300 344 300 451 c 6
 300 760 l 5xb6
340.001953125 20 m 1
 214.9453125 273.970703125 l 1025
90 740 m 1
 90 20 l 1025
340.001953125 740 m 1
 340.001953125 470 l 1
 340.001953125 354.08203125 248.16015625 260.002929688 134.998046875 260.002929688 c 1025
EndSplineSet
Fore
SplineSet
187 280 m 1
 278 189 l 1
 284 182 l 2
 300 166 300 142 300 98 c 2
 300 91 l 1
 300 0 l 1
 380 0 l 1
 380 91 l 1
 380 97 l 2
 380 130 368 150 349 170 c 2
 292 230 l 1
 214 306 l 1
 187 280 l 1
125 202 m 1
 292 364 l 1
 349 424 l 2
 368 444 380 464 380 497 c 2
 380 503 l 1
 380 760 l 1
 300 760 l 1
 300 503 l 1
 300 496 l 2
 300 450 300 427 280 407 c 2
 278 405 l 1
 125 252 l 1
 125 202 l 1
130 0 m 1
 130 760 l 1
 50 760 l 1
 50 0 l 1
 130 0 l 1
EndSplineSet
EndChar

StartChar: L
Encoding: 268 76 12
Width: 430
UnlinkRmOvrlpSave: 1
Flags: W
HStem: 0 40<137.646 380> 740 20G<50 130>
VStem: 50 80<46.4806 760>
LayerCount: 2
Back
SplineSet
89.99609375 740 m 1
 90 65.0009765625 l 1
 90 40.16015625 110.157226562 20 134.994140625 20 c 1
 339.998046875 20 l 1025
EndSplineSet
Fore
SplineSet
175 40 m 2
 380 40 l 1
 380 0 l 1
 95 0 l 2
 70 0 50 20 50 45 c 2
 50 760 l 1
 130 760 l 1
 130 85 l 2
 130 60 150 40 175 40 c 2
EndSplineSet
EndChar

StartChar: M
Encoding: 269 77 13
Width: 600
UnlinkRmOvrlpSave: 1
Flags: W
HStem: 0 21G<50 130 260 340 470 550> 541 21G<274.471 325.529> 676 84<97 163.6 436.4 503>
VStem: 50 80<0 676> 260 80<0 760> 470 80<0 676>
CounterMasks: 1 1c
LayerCount: 2
Back
SplineSet
265.00390625 574.732421875 m 17
 318.8671875 626.587890625 372.822265625 678.3515625 426.702148438 730.190429688 c 0
 445.940429688 748.700195312 471.704101562 760 500.00390625 760 c 2
 514.00390625 760 l 1
 541.790039062 731.2265625 l 1
 503.243164062 675.653320312 l 1
 470.243164062 675.653320312 l 2
 441.943359375 675.653320312 416.1796875 664.353515625 396.94140625 645.84375 c 2
 288.00390625 541.1171875 l 1
 265.00390625 574.732421875 l 17
335.00390625 574.732421875 m 9
 312.00390625 541.1171875 l 1
 203.06640625 645.84375 l 2
 183.828125 664.353515625 158.064453125 675.653320312 129.764648438 675.653320312 c 2
 96.7646484375 675.653320312 l 1
 58.2177734375 731.2265625 l 1
 86.00390625 760 l 1
 100.00390625 760 l 2
 128.303710938 760 154.067382812 748.700195312 173.305664062 730.190429688 c 0
 227.185546875 678.3515625 281.140625 626.587890625 335.00390625 574.732421875 c 9
260.001953125 602 m 1
 340.001953125 602 l 1
 340.001953125 0 l 1
 260.001953125 0 l 1
 260.001953125 602 l 1
506 760 m 1
 550.001953125 760 l 1
 550.001953125 0 l 1
 470.001953125 0 l 1
 470.001953125 729 l 1
 506 760 l 1
130 0 m 1
 50 0 l 1
 50 760 l 1
 93 760 l 1
 130 722 l 1
 130 0 l 1
-734.99609375 574.732421875 m 13
 -757.99609375 541.1171875 l 5
 -866.93359375 645.84375 l 6
 -886.171875 664.353515625 -911.935546875 675.653320312 -940.235351562 675.653320312 c 6
 -973.235351562 675.653320312 l 5
 -1011.78222656 731.2265625 l 5
 -983.99609375 760 l 5
 -969.99609375 760 l 6
 -941.696289062 760 -915.932617188 748.700195312 -896.694335938 730.190429688 c 4
 -842.814453125 678.3515625 -788.859375 626.587890625 -734.99609375 574.732421875 c 13
-799.998046875 760 m 5
 -719.998046875 760 l 5
 -719.998046875 0 l 5
 -799.998046875 0 l 5
 -799.998046875 760 l 5
-970 0 m 5
 -1050 0 l 5
 -1050 760 l 5
 -970 760 l 5
 -970 0 l 5
EndSplineSet
Fore
SplineSet
265 575 m 17
 319 627 373 678 427 730 c 0
 446 749 472 760 500 760 c 2
 514 760 l 1
 542 731 l 1
 503 676 l 1
 470 676 l 2
 442 676 416 665 397 646 c 2
 288 541 l 1
 265 575 l 17
506 760 m 1
 550 760 l 1
 550 0 l 1
 470 0 l 1
 470 729 l 1
 506 760 l 1
335 575 m 9
 312 541 l 1
 203 646 l 2
 184 665 158 676 130 676 c 2
 97 676 l 1
 58 731 l 1
 86 760 l 1
 100 760 l 2
 128 760 154 749 173 730 c 0
 227 678 281 627 335 575 c 9
260 760 m 1
 340 760 l 1
 340 0 l 1
 260 0 l 1
 260 760 l 1
130 0 m 1
 50 0 l 1
 50 760 l 1
 93 760 l 1
 130 722 l 1
 130 0 l 1
EndSplineSet
EndChar

StartChar: N
Encoding: 270 78 14
Width: 430
UnlinkRmOvrlpSave: 1
Flags: W
HStem: 0 21G<50 130 300 380> 541 21G<321.238 355.529> 676 84<127 193.6>
VStem: 50 80<0 676 731 760> 300 80<0 760>
LayerCount: 2
Back
SplineSet
116.00390625 740 m 25
 130.00390625 740 l 1
 158.303710938 740 184.067382812 728.700195312 203.305664062 710.190429688 c 1
 339.829101562 578.942382812 l 1025
340.001953125 740 m 1
 340.001953125 20 l 1025
90 20 m 1
 90 740 l 1025
EndSplineSet
Fore
SplineSet
365 575 m 13
 342 541 l 5
 233 646 l 6
 214 665 188 676 160 676 c 6
 127 676 l 5
 88 731 l 5
 116 760 l 5
 130 760 l 6
 158 760 184 749 203 730 c 4
 257 678 311 627 365 575 c 13
300 760 m 1
 380 760 l 1
 380 0 l 1
 300 0 l 1
 300 760 l 1
130 0 m 1
 50 0 l 1
 50 760 l 1
 130 760 l 1
 130 0 l 1
EndSplineSet
EndChar

StartChar: O
Encoding: 271 79 15
Width: 430
UnlinkRmOvrlpSave: 1
Flags: W
HStem: 0 21G<115 315> 740 20G<115 315> 740 20G<115 315>
VStem: 50 80<72.8057 687.194> 300 80<72.8057 687.194>
LayerCount: 2
Back
SplineSet
90 110 m 5
 90 649.995117188 l 5
 90 699.677734375 130.3203125 740 180 740 c 5
 250.00390625 740 l 5
 299.68359375 740 340.00390625 699.677734375 340.00390625 649.995117188 c 5
 340.00390625 110 l 5
 340.00390625 60.3203125 299.68359375 20 250.00390625 20 c 5
 180 20 l 5
 130.3203125 20 90 60.3203125 90 110 c 5
EndSplineSet
Fore
SplineSet
130 630 m 0x98
 130 130 130 130 130 130 c 2
 130 82 168 43 215 40 c 1
 262 43 300 82 300 130 c 0
 300 630 300 630 300 630 c 2
 300 678 262 717 215 720 c 1
 168 717 130 678 130 630 c 0x98
50 90 m 0
 50 670 50 670 50 670 c 2
 50 720 90 760 140 760 c 2
 290 760 l 2xd8
 340 760 380 720 380 670 c 0
 380 90 380 90 380 90 c 2
 380 40 340 0 290 0 c 0
 140 0 140 0 140 0 c 2
 90 0 50 40 50 90 c 0
EndSplineSet
EndChar

StartChar: P
Encoding: 272 80 16
Width: 430
UnlinkRmOvrlpSave: 1
Flags: W
HStem: 0 21G<50 130> 240 40<130 265.689> 720 40<130 265.689>
VStem: 50 80<0 240 280 720> 300 80<311.777 688.223>
LayerCount: 2
Back
SplineSet
90 20 m 5
 90 740 l 5
 250.00390625 740 l 5
 299.68359375 740 340.00390625 699.677734375 340.00390625 649.995117188 c 5
 340.00390625 260.002929688 l 5
 340.00390625 210.323242188 299.68359375 170.002929688 250.00390625 170.002929688 c 5
 116 170.002929688 l 1029
EndSplineSet
Fore
SplineSet
210 280 m 2
 260 280 300 320 300 370 c 0
 300 457 300 543 300 630 c 0
 300 680 260 720 210 720 c 2
 130 720 l 1
 130 280 l 1
 210 280 l 2
50 760 m 1
 290 760 l 2
 340 760 380 720 380 670 c 0
 380 330 380 330 380 330 c 2
 380 280 340 240 290 240 c 0
 130 240 130 240 130 240 c 1
 130 0 l 1
 50 0 l 1
 50 760 l 1
EndSplineSet
EndChar

StartChar: Q
Encoding: 273 81 17
Width: 430
UnlinkRmOvrlpSave: 1
Flags: W
HStem: -85 40<375.51 560> 740 20G<115 315> 740 20G<115 315>
VStem: 50 80<72.8057 687.194> 300 80<72.8057 687.194>
LayerCount: 2
Back
SplineSet
463 -64.5185546875 m 25
 396.50390625 -64.5185546875 l 1
 368.204101562 -64.5185546875 342.440429688 -53.21875 323.202148438 -34.708984375 c 1
 297.301757812 -9.8095703125 l 1025
210 20 m 25
 224 20 l 1
 252.299804688 20 278.063476562 8.7001953125 297.301757812 -9.8095703125 c 1
 323.202148438 -34.708984375 l 1025
90 110 m 1
 90 649.995117188 l 1
 90 699.677734375 130.3203125 740 180 740 c 1
 250.00390625 740 l 1
 299.68359375 740 340.00390625 699.677734375 340.00390625 649.995117188 c 1
 340.00390625 110 l 1
 340.00390625 60.3203125 299.68359375 20 250.00390625 20 c 1
 180 20 l 1
 130.3203125 20 90 60.3203125 90 110 c 1
EndSplineSet
Fore
SplineSet
50 90 m 0xd8
 50 670 50 670 50 670 c 2
 50 720 90 760 140 760 c 2
 290 760 l 2
 340 760 380 720 380 670 c 0
 380 90 380 90 380 90 c 2
 380 57 362 28 335 12 c 1
 336 11 336 11 363 -15 c 0
 382 -34 409 -45 437 -45 c 2
 560 -45 l 5
 560 -85 l 5
 357 -85 l 2
 329 -85 302 -74 283 -55 c 2
 257 -30 l 2
 238 -11 212 0 184 0 c 0
 140 0 140 0 140 0 c 2
 90 0 50 40 50 90 c 0xd8
130 630 m 0
 130 130 130 130 130 130 c 2
 130 82 168 43 215 40 c 1
 262 43 300 82 300 130 c 0
 300 630 300 630 300 630 c 2
 300 678 262 717 215 720 c 1
 168 717 130 678 130 630 c 0
EndSplineSet
EndChar

StartChar: R
Encoding: 274 82 18
Width: 430
UnlinkRmOvrlpSave: 1
Flags: W
HStem: 0 21G<50 130 290.126 380> 240 40<130 182> 720 40<130 265.689>
VStem: 50 80<0 240 280 720> 300 80<335.443 688.223>
LayerCount: 2
Back
SplineSet
340.001953125 20 m 1
 222.444335938 258.7421875 l 1025
90 20 m 1
 90 740 l 1
 250.00390625 740 l 1
 299.682617188 740 340.001953125 699.677734375 340.001953125 649.995117188 c 1
 340.001953125 380 l 1
 340.001953125 313.76171875 281.762695312 260.002929688 210.00390625 260.002929688 c 1
 135.00390625 260.002929688 l 1025
EndSplineSet
Fore
SplineSet
50 760 m 1
 290 760 l 2
 340 760 380 720 380 670 c 0
 380 360 380 360 380 360 c 2
 380 303 337 255 280 243 c 1
 380 40 l 1
 380 0 l 1
 300 0 l 1
 182 239 l 1
 182 240 l 1
 130 240 l 1
 130 0 l 1
 50 0 l 1
 50 760 l 1
170 280 m 2
 242 280 300 334 300 400 c 2
 300 630 l 2
 300 680 260 720 210 720 c 2
 130 720 l 1
 130 280 l 1
 170 280 l 2
EndSplineSet
EndChar

StartChar: S
Encoding: 275 83 19
Width: 430
UnlinkRmOvrlpSave: 1
Flags: W
HStem: 0 85<56.4806 130> 0 40<137.646 292.354> 675 85<300 373.519> 720 40<137.646 292.354>
VStem: 50 80<46.4806 85 501.953 713.519> 300 80<46.4806 260.472 675 713.519>
LayerCount: 2
Back
SplineSet
380 715.000976562 m 6x36
 380 675.000976562 l 5
 300 675.000976562 l 5x36
 300 699.840820312 279.83984375 720 255 720 c 6
 174.994140625 720 l 6x2e
 150.157226562 720 130 699.840820312 130 675.000976562 c 6
 130 370 l 6
 130 320.3203125 170.3203125 280 220 280 c 6
 290 280 l 6
 339.6796875 280 380 239.684570312 380 190.009765625 c 4
 380 45.0009765625 380 45.0009765625 380 45.0009765625 c 6
 380 20.16015625 359.83984375 0 335 0 c 4x76
 94.994140625 0 94.994140625 0 94.994140625 0 c 6
 70.16015625 0.001953125 50 20.1611328125 50 45.0009765625 c 6
 50 85.0009765625 l 5
 130 85.0009765625 l 5
 130 60.1611328125 150.16015625 40.001953125 174.994140625 40 c 6
 255 40 l 6
 279.83984375 40 300 60.16015625 300 85.0009765625 c 6
 300 150.009765625 l 6
 300 199.684570312 259.6796875 240 210 240 c 6
 140 240 l 6
 90.3203125 240 50 280.3203125 50 330 c 4
 50 715.000976562 50 715.000976562 50 715.000976562 c 6
 50 739.840820312 70.1572265625 760 94.994140625 760 c 4xae
 335 760 335 760 335 760 c 6
 359.83984375 760 380 739.840820312 380 715.000976562 c 6x36
340 695.000976562 m 1
 340 719.840820312 319.83984375 740 295 740 c 1
 134.994140625 740 l 1
 110.157226562 740 90 719.840820312 90 695.000976562 c 1
 90 350 l 1
 90 300.3203125 130.3203125 260 180 260 c 1
 250 260 l 1
 299.6796875 260 340 219.684570312 340 170.009765625 c 1
 340 65.0009765625 l 1
 340 40.16015625 319.83984375 20 295 20 c 1
 134.994140625 20 l 1
 110.16015625 20.001953125 90 40.1611328125 90 65.0009765625 c 1025
EndSplineSet
Fore
SplineSet
292 331 m 2x2c
 293 330 293 329 349 271 c 0
 368 251 380 228 380 212 c 2
 380 204 l 1
 380 49 l 0
 380 47 l 1
 380 45 l 2
 380 20 360 0 335 0 c 0x6c
 95 0 95 0 95 0 c 2
 70 0 50 20 50 45 c 2
 50 85 l 1
 130 85 l 1x8c
 130 60 150 40 175 40 c 2
 255 40 l 2x4c
 280 40 300 60 300 85 c 2
 300 86 l 25
 300 225 l 25
 300 242 l 2
 300 255 295 273 280 288 c 2
 215 353 l 1
 188 380 l 1
 140 427 l 2
 140 427 140 428 84 486 c 0
 63 507 50 544 50 585 c 2
 50 590 l 25
 50 713 l 1
 50 715 l 2
 50 740 70 760 95 760 c 0x9c
 335 760 335 760 335 760 c 2
 360 760 380 740 380 715 c 2
 380 675 l 1
 300 675 l 1x2c
 300 700 280 720 255 720 c 2
 175 720 l 2x1c
 150 720 130 700 130 675 c 2
 130 674 l 25
 130 559 l 25
 130 555 l 0
 130 520 138 488 155 467 c 2
 215 407 l 1
 242 380 l 1
 292 331 l 2x2c
EndSplineSet
EndChar

StartChar: T
Encoding: 276 84 20
Width: 430
UnlinkRmOvrlpSave: 1
Flags: W
HStem: 0 40<256.855 292> 720 40<50 170 250 380>
VStem: 170 80<44.8956 720>
LayerCount: 2
Back
SplineSet
209.67578125 734 m 1
 209.67578125 65.0009765625 l 1
 209.67578125 40.16015625 227.595703125 20 249.67578125 20 c 1
 251.6796875 20 l 1029
89.6796875 740 m 1
 339.681640625 740 l 1025
EndSplineSet
Fore
SplineSet
50 760 m 1
 380 760 l 1
 380 720 l 1
 250 720 l 1
 250 85 l 2
 250 60 268 40 290 40 c 2
 292 40 l 1
 292 0 l 1
 210 0 l 2
 188 0 170 20 170 45 c 0
 170 720 170 720 170 720 c 1
 50 720 l 1
 50 760 l 1
EndSplineSet
EndChar

StartChar: U
Encoding: 277 85 21
Width: 430
UnlinkRmOvrlpSave: 1
Flags: W
HStem: 0 21G<115 315> 740 20G<50 130 300 380>
VStem: 50 80<72.8057 760> 300 80<72.8057 760>
LayerCount: 2
Back
SplineSet
340 740 m 5
 340 110 l 4
 340 60.3203125 299.681640625 20 250.00390625 20 c 5
 180 20 l 5
 130.3203125 20 90 60.3193359375 90 110 c 4
 89.99609375 740 l 1029
EndSplineSet
Fore
SplineSet
300 760 m 1
 380 760 l 1
 380 90 l 2
 380 40 340 0 290 0 c 0
 140 0 140 0 140 0 c 2
 90 0 50 40 50 90 c 0
 50 760 50 760 50 760 c 1
 130 760 l 1
 130 130 l 2
 130 82 168 43 215 40 c 1
 262 43 300 82 300 130 c 0
 300 760 300 760 300 760 c 1
EndSplineSet
EndChar

StartChar: V
Encoding: 278 86 22
Width: 430
UnlinkRmOvrlpSave: 1
Flags: W
HStem: 0 21G<50 146> 740 20G<50 130 300 380>
VStem: 50 80<87 760> 300 80<282.734 760>
LayerCount: 2
Back
SplineSet
329.00390625 417 m 1
 300.00390625 377 l 1
 300.00390625 350 l 1
 300.00390625 297.462890625 300.368164062 264.413085938 274.994140625 225.354492188 c 2
 218.092773438 137.751953125 l 2
 203.55078125 115.36328125 181.033203125 98.50390625 153.47265625 92.0791015625 c 2
 121.333984375 84.5869140625 l 1
 96.4111328125 21.7138671875 l 1
 130.00390625 0 l 1
 133.00390625 0 l 2
 159.00390625 0 193.723632812 26.45703125 208.2578125 48.8515625 c 0
 236.206054688 91.9140625 264.286132812 134.891601562 292.1640625 178 c 2
 299.958984375 189.998046875 307.751953125 201.998046875 345.428710938 260.3671875 c 1
 362.556640625 287 380.00390625 312 380.00390625 371 c 0
 380.00390625 386 380.00390625 418 380.00390625 418 c 1
 329.00390625 417 l 1
300.001953125 247 m 1
 380.001953125 401 l 1
 380.001953125 760 l 1
 300.001953125 760 l 1
 300.001953125 247 l 1
130 760 m 1
 50 760 l 1
 50 0 l 1
 130 0 l 1
 130 760 l 1
EndSplineSet
Fore
SplineSet
130 760 m 1
 130 87 l 1
 153 92 l 2
 181 98 203 116 218 138 c 2
 275 225 l 2
 299 262 300 294 300 341 c 2
 300 760 l 1
 380 760 l 1
 380 418 l 1
 380 418 380 386 380 371 c 0
 380 312 362 287 345 260 c 0
 307 202 300 190 292 178 c 0
 264 135 236 92 208 49 c 0
 193 27 159 0 133 0 c 2
 130 0 l 1
 50 0 l 1
 50 760 l 1
 130 760 l 1
EndSplineSet
EndChar

StartChar: W
Encoding: 279 87 23
Width: 600
UnlinkRmOvrlpSave: 1
Flags: W
HStem: 0 21G<271 328> 740 20G<50 130 470 550>
VStem: 50 80<187.953 760> 260 80<5 7 35 695> 470 80<187.953 760>
CounterMasks: 1 38
LayerCount: 2
Back
SplineSet
339.984375 0 m 5
 259.984375 0 l 5
 259.984375 760 l 5
 339.984375 760 l 5
 339.984375 0 l 5
301.99609375 -29 m 5
 299.99609375 -72 l 6
 299.99609375 -72 294.8671875 -41.1328125 259.865234375 -6.130859375 c 6
 140.399414062 113.333984375 l 6
 139.924804688 113.807617188 139.926757812 113.809570312 83.884765625 171.841796875 c 4
 63.3671875 193.087890625 50 229.64453125 50 271 c 6xac
 50 276.12890625 l 6
 50 396.0859375 50.001953125 640.04296875 50.001953125 760 c 5
 130.001953125 760 l 5
 130.001953125 720 l 6
 130 245 l 4
 130 241 l 6
 130 206 138 174 155.134765625 153.133789062 c 5
 291.600585938 16.669921875 l 6
 292.32421875 15.9462890625 292.483398438 15.787109375 319.317382812 -12 c 5
 301.99609375 -29 l 5
278.750976562 -14 m 5
 307.509765625 15.7802734375 307.659179688 15.9296875 308.399414062 16.669921875 c 6
 444.865234375 153.133789062 l 5
 462 174 470 206 470 241 c 6
 470 245 l 4
 469.998046875 720 l 6
 469.998046875 760 l 5
 549.998046875 760 l 5
 549.998046875 640.04296875 550 396.0859375 550 276.12890625 c 6
 550 271 l 6
 550 229.64453125 536.6328125 193.087890625 516.115234375 171.841796875 c 4
 460.07421875 113.80859375 460.075195312 113.807617188 459.600585938 113.333984375 c 6
 340.12890625 -6.1357421875 l 6
 305.131835938 -41.1318359375 299.99609375 -72 299.99609375 -72 c 6
 295.99609375 -29 l 5
 278.750976562 -14 l 5
EndSplineSet
Fore
SplineSet
340 5 m 1
 260 5 l 1
 260 695 l 1
 340 695 l 1
 340 5 l 1
299 7 m 1
 327 36 310 18 327 35 c 2
 445 153 l 1
 462 174 470 206 470 241 c 2
 470 245 l 0
 470 720 l 2
 470 760 l 1
 550 760 l 1
 550 640 550 396 550 276 c 2
 550 271 l 2
 550 230 537 193 516 172 c 0
 460 114 460 113 460 113 c 2
 366 20 l 2
 353 7 336 0 320 0 c 2
 302 0 l 1
 297 0 l 1
 280 0 l 2
 262 0 246 8 234 20 c 2
 140 113 l 2
 140 113 140 114 84 172 c 0
 63 193 50 230 50 271 c 2
 50 276 l 2
 50 396 50 640 50 760 c 1
 130 760 l 1
 130 720 l 2
 130 245 l 0
 130 241 l 2
 130 206 138 174 155 153 c 1
 273 35 l 2
 290 18 274 35 301 7 c 1
 299 7 l 1
EndSplineSet
EndChar

StartChar: X
Encoding: 280 88 24
Width: 430
UnlinkRmOvrlpSave: 1
Flags: W
HStem: 0 21G<50 130 300 380> 740 20G<50 130 300 380>
VStem: 50 80<0 140.472 381.953 760> 300 80<0 140.472 381.953 760>
LayerCount: 2
Back
SplineSet
1040.00390625 400.12890625 m 2
 1040.00390625 400.12890625 1040.00390625 400.064453125 1040.00390625 400 c 2
 1040.00390625 360 l 2
 1040.00390625 318.014648438 1026.04785156 281.098632812 1005.00390625 260.000976562 c 2
 823.00390625 78.0029296875 l 2
 802.510742188 57.5087890625 790.3515625 33.521484375 790.000976562 17 c 2
 790.000976562 0 l 1
 710 0 l 1
 710 57 l 2
 710.3515625 73.521484375 722.510742188 97.5087890625 743.00390625 118.002929688 c 2
 925.00390625 300.000976562 l 2
 945.9765625 321.02734375 959.909179688 357.764648438 960.00390625 399.573242188 c 0
 960.00390625 506.381835938 960.001953125 613.19140625 960.001953125 720 c 2
 960.001953125 760 l 1
 1040.00195312 760 l 1
 1040.00195312 640.04296875 1040.00390625 520.0859375 1040.00390625 400.12890625 c 2
1250.00195312 740 m 1
 1250.00390625 315.000976562 l 1
 1000.00195312 65.0009765625 l 9
 1000 20 l 1025
707.831054688 725.119140625 m 1
 763.401367188 782.666992188 l 1
 792.174804688 754.880859375 l 1
 792.174804688 394.880859375 l 2
 792.174804688 353.525390625 778.63671875 317.087890625 758.119140625 295.841796875 c 0
 702.078125 237.80859375 702.078125 237.80859375 701.604492188 237.333984375 c 2
 561.8046875 97.5361328125 l 2
 549.487304688 81.2099609375 542.439453125 64.4013671875 542.173828125 51.880859375 c 2
 542.173828125 34.880859375 l 1
 486.600585938 -22.6669921875 l 1
 457.827148438 5.119140625 l 1
 457.827148438 22.119140625 l 2
 458.166992188 38.140625 469.612304688 61.1826171875 488.993164062 81.251953125 c 0
 545.475585938 139.7421875 545.475585938 139.7421875 546.403320312 140.669921875 c 2
 682.869140625 277.133789062 l 1
 698.197265625 298.853515625 707.831054688 330.236328125 707.831054688 365.119140625 c 2
 707.831054688 725.119140625 l 1
340.001953125 740 m 1
 340.00390625 380 l 0
 340.00390625 380.22265625 340.00390625 380.111328125 340.00390625 380 c 0
 340.00390625 338.014648438 326.047851562 301.098632812 305.00390625 280.000976562 c 0
 123.00390625 98.0029296875 l 0
 102.510742188 77.5087890625 90.3515625 53.521484375 90.0009765625 37 c 0
 90 20 l 1025
EndSplineSet
Fore
SplineSet
50 465 m 2
 50 470 l 2
 50 590 50 640 50 760 c 1
 130 760 l 1
 130 720 l 2
 130 613 130 546 130 439 c 0
 130 397 130 436 130 435 c 18
 130 400 138 368 155 347 c 5
 292 211 l 6
 293 210 293 209 349 151 c 4
 368 131 380 108 380 92 c 6
 380 0 l 5
 300 0 l 5
 300 87 l 6
 300 105 l 5
 300 122 l 6
 300 135 295 153 280 168 c 6
 140 307 l 6
 140 307 140 308 84 366 c 0
 63 387 50 424 50 465 c 2
380 465 m 2
 380 424 367 387 346 366 c 0
 290 308 290 307 290 307 c 2
 150 168 l 2
 135 153 130 135 130 122 c 2
 130 105 l 1
 130 87 l 2
 130 0 l 1
 50 0 l 1
 50 92 l 2
 50 108 62 131 81 151 c 0
 137 209 137 210 138 211 c 2
 275 347 l 1
 292 368 300 400 300 435 c 10
 300 436 300 397 300 439 c 0
 300 546 300 613 300 720 c 2
 300 760 l 1
 380 760 l 1
 380 640 380 590 380 470 c 2
 380 465 l 2
EndSplineSet
EndChar

StartChar: Y
Encoding: 281 89 25
Width: 440
UnlinkRmOvrlpSave: 1
Flags: W
HStem: 0 21G<60 140> 740 20G<50 130 310 390>
VStem: 50 80<387.953 760> 60 80<0 146.472> 310 80<387.953 760>
LayerCount: 2
Back
SplineSet
219.3671875 244.3671875 m 6
 150.399414062 313.333984375 l 6
 149.924804688 313.807617188 149.926757812 313.809570312 93.884765625 371.841796875 c 4
 73.3671875 393.087890625 60 429.64453125 60 471 c 6
 60 476.12890625 l 6
 60 596.0859375 60.001953125 640.04296875 60.001953125 760 c 5
 140.001953125 760 l 5
 140.001953125 720 l 6
 140.001953125 613.19140625 139.7578125 551.80859375 140 445 c 4
 140.094726562 403.19140625 139.735351562 441.924804688 140 441 c 6
 140 406 148 374 165.134765625 353.133789062 c 5
 246.635742188 271.634765625 l 6
 219.3671875 244.3671875 l 6
390 471 m 2
 390 429.64453125 376.6328125 393.087890625 356.115234375 371.841796875 c 0
 300.07421875 313.80859375 300.075195312 313.807617188 299.600585938 313.333984375 c 2
 159.80078125 173.536132812 l 2
 145.131835938 158.868164062 140.169921875 140.401367188 140.169921875 127.880859375 c 2
 140.169921875 110.880859375 l 1
 139.997070312 93 l 2
 139.997070312 0 l 1
 59.99609375 0 l 1
 59.99609375 98 l 2
 59.99609375 114 71.6083984375 137.182617188 90.9892578125 157.251953125 c 0
 147.471679688 215.7421875 147.471679688 215.7421875 148.399414062 216.669921875 c 2
 284.865234375 353.133789062 l 1
 302 374 310 406 310 441 c 2
 310.264648438 441.924804688 310 403.19140625 310 445 c 0
 310 551.80859375 309.998046875 613.19140625 309.998046875 720 c 2
 309.998046875 760 l 1
 389.998046875 760 l 1
 389.998046875 640.04296875 390 596.0859375 390 476.12890625 c 2
 390 471 l 2
EndSplineSet
Fore
SplineSet
209 244 m 2xe8
 140 313 l 2xd8
 140 313 140 314 84 372 c 0
 63 393 50 430 50 471 c 2
 50 476 l 2
 50 760 l 1
 130 760 l 1
 130 720 l 2
 130 445 l 0
 130 441 l 2
 130 406 138 374 155 353 c 1
 237 272 l 25
 209 244 l 2xe8
390 471 m 2
 390 430 377 393 356 372 c 0
 300 313 l 2
 160 174 l 2
 145 159 140 141 140 128 c 2
 140 111 l 1
 140 93 l 2
 140 0 l 1
 60 0 l 1
 60 98 l 2
 60 114 72 137 91 157 c 0
 148 217 l 2
 285 353 l 1
 302 374 310 406 310 441 c 2
 310 445 l 0
 310 720 l 2
 310 760 l 1
 390 760 l 1
 390 476 l 2
 390 471 l 2
EndSplineSet
EndChar

StartChar: Z
Encoding: 282 90 26
Width: 430
UnlinkRmOvrlpSave: 1
Flags: W
VStem: 50 80<282 386.658> 300 80<618.468 701>
LayerCount: 2
Back
SplineSet
209.37109375 244.3671875 m 6
 140.403320312 313.333984375 l 6
 139.928710938 313.807617188 139.930664062 313.809570312 83.888671875 371.841796875 c 4
 63.37109375 393.087890625 50.00390625 429.64453125 50.00390625 471 c 6
 50.00390625 476.12890625 l 6
 50.00390625 596.0859375 50.005859375 640.04296875 50.005859375 760 c 5
 130.005859375 760 l 5
 130.005859375 720 l 6
 130.005859375 613.19140625 129.76171875 551.80859375 130.00390625 445 c 4
 130.098632812 403.19140625 129.739257812 441.924804688 130.00390625 441 c 6
 130.00390625 406 138.00390625 374 155.138671875 353.133789062 c 5
 236.639648438 271.634765625 l 6
 209.37109375 244.3671875 l 6
380.00390625 471 m 2
 380.00390625 429.64453125 366.63671875 393.087890625 346.119140625 371.841796875 c 0
 290.078125 313.80859375 290.079101562 313.807617188 289.604492188 313.333984375 c 2
 149.8046875 173.536132812 l 2
 135.135742188 158.868164062 130.173828125 140.401367188 130.173828125 127.880859375 c 2
 130.173828125 110.880859375 l 1
 130.000976562 93 l 2
 130.000976562 0 l 1
 50 0 l 1
 50 98 l 2
 50 114 61.6123046875 137.182617188 80.9931640625 157.251953125 c 0
 137.475585938 215.7421875 137.475585938 215.7421875 138.403320312 216.669921875 c 2
 274.869140625 353.133789062 l 1
 292.00390625 374 300.00390625 406 300.00390625 441 c 2
 300.268554688 441.924804688 300.00390625 403.19140625 300.00390625 445 c 0
 300.00390625 551.80859375 300.001953125 613.19140625 300.001953125 720 c 2
 300.001953125 760 l 1
 380.001953125 760 l 1
 380.001953125 640.04296875 380.00390625 596.0859375 380.00390625 476.12890625 c 2
 380.00390625 471 l 2
EndSplineSet
Fore
SplineSet
380 701 m 2
 380 760 l 1
 300 760 l 1
 300 681 l 2
 300 646 293.407226562 611.596679688 275 593 c 2
 81 397 l 2
 61.103515625 376.8984375 50 358 50 338 c 2
 50 0 l 1
 130 0 l 1
 130 282 l 6
 130 350 137.2578125 391.2578125 178 432 c 2
 284 538 l 2
 346 602 l 2
 366.661132812 623.328125 380 660 380 701 c 2
380 760 m 1
 50 760 l 1
 50 720 l 1
 380 720 l 1
 380 760 l 1
380 40 m 1
 50 40 l 1
 50 0 l 1
 380 0 l 1
 380 40 l 1
EndSplineSet
EndChar

StartChar: a
Encoding: 283 97 27
Width: 330
UnlinkRmOvrlpSave: 1
Flags: W
HStem: 0 41<127.33 190.908> 240 41<127.33 196.561> 435 85<47.0528 120> 480 40<127.33 202.077>
VStem: 40 80<47.1824 233.818 435 474.07> 210 80<47.1824 93 287.182 473.818>
LayerCount: 2
Back
SplineSet
210 0 m 1xbc
 210 240 l 1
 120 240 l 1
 120 0 l 1
 40 0 l 1
 40 473.91796875 l 2
 40 499.16796875 60.16015625 520 85 520 c 2
 86 520 l 1
 244 520 l 1
 245 520 l 2
 269.83984375 519.947265625 290 499.16796875 290 473.91796875 c 2
 290 0 l 1
 210 0 l 1xbc
210 280.661132812 m 1
 210 433.098632812 l 1
 210 434.256835938 l 2
 210 459.506835938 190.83984375 480 166 480 c 2
 165 480 l 25
 164 480 l 2
 139.16015625 480 120 459.506835938 120 434.256835938 c 2
 120 433.098632812 l 1
 120 280.661132812 l 1
 210 280.661132812 l 1
EndSplineSet
Fore
SplineSet
172 0 m 1xcc
 221 51 l 1
 221 46 l 2
 221 21 201 0 176 0 c 3
 175 0 172 0 172 0 c 1xcc
178 240 m 1
 225 291 l 1
 225 286 l 2
 225 261 205 240 180 240 c 27
 179 240 178 240 178 240 c 1
144 281 m 1
 165 281 l 1
 166 281 l 2
 191 281 210 302 210 327 c 2
 210 328 l 1
 210 330 l 9
 210 418 l 1
 210 433 l 1
 210 434 l 2
 210 459 191 480 166 480 c 2
 165 480 l 1
 164 480 l 2xdc
 139 480 120 460 120 435 c 0
 118 435 l 1
 116 435 l 1
 40 435 l 1
 40 472 l 1
 40 474 l 2
 40 499 60 520 85 520 c 2
 86 520 l 1xec
 175 520 l 1
 244 520 l 1
 245 520 l 2xdc
 270 520 290 499 290 474 c 2
 290 423 l 1
 290 54 l 1
 290 0 l 1
 244 0 l 1
 210 0 l 1
 210 21 l 1
 177 0 l 1
 173 0 l 1
 86 0 l 1
 85 0 l 2
 60 0 40 21 40 46 c 2
 40 51 l 1
 40 235 l 2
 40 260 60 281 85 281 c 2
 86 281 l 1
 120 281 l 1
 144 281 l 1
210 252 m 1
 179 240 l 1
 165 240 l 1
 164 240 l 0
 139 240 120 219 120 194 c 2
 120 193 l 1
 120 97 l 1
 120 88 l 1
 120 87 l 2
 120 62 139 41 164 41 c 2
 165 41 l 1
 166 41 l 2
 191 41 210 62 210 87 c 2
 210 88 l 1
 210 93 l 1
 210 252 l 1
290 46 m 1026
EndSplineSet
EndChar

StartChar: b
Encoding: 284 98 28
Width: 330
UnlinkRmOvrlpSave: 1
Flags: W
HStem: 0 40<133.51 175.689> 480 40<120 175.689>
VStem: 103 17<42.5125 51> 210 80<71.7773 130 390 448.223>
LayerCount: 2
Back
SplineSet
140 240.002929688 m 1xbc
 120 240 l 1
 120 40 l 1
 140 40 l 1
 184.568359375 40 209.737304688 80.056640625 209.999023438 129.510742188 c 0
 209.999023438 136.33984375 209.998046875 143.169921875 209.998046875 150 c 1
 209.998046875 199.682617188 189.678710938 240.002929688 140 240.002929688 c 1xbc
289.998046875 99.99609375 m 2
 289.998046875 50.3193359375 249.682617188 0 200 0 c 0
 -40 0 40 0 40 0 c 1x7c
 40 520 l 1
 200 520 l 2
 249.678710938 520 289.998046875 469.677734375 289.998046875 419.995117188 c 2
 289.998046875 340 l 2
 289.998046875 311.823242188 276.883789062 276.658203125 256.365234375 260.15234375 c 1
 276.869140625 243.651367188 289.998046875 208.350585938 289.998046875 180 c 2
 289.998046875 99.99609375 l 2
209.998046875 389.995117188 m 2
 209.998046875 439.677734375 189.678710938 480 140 480 c 0
 120 480 l 1
 120 280 l 1
 139 280.005859375 l 0
 189.232421875 280.005859375 209.998046875 320.323242188 209.998046875 370 c 2
 209.998046875 389.995117188 l 2
EndSplineSet
Fore
SplineSet
152 0 m 1
 103 51 l 1
 103 46 l 2
 103 21 123 0 148 0 c 2
 152 0 l 1
120 480 m 1
 170 480 210 440 210 390 c 2
 210 130 l 2
 210 80 170 40 120 40 c 1
 120 480 l 1
40 740 m 1
 40 0 l 1
 120 0 l 1
 120 23 l 1
 150 0 l 1
 200 0 l 2
 250 0 290 40 290 90 c 2
 290 430 l 2
 290 480 250 520 200 520 c 2
 120 520 l 1
 120 740 l 1
 40 740 l 1
EndSplineSet
EndChar

StartChar: c
Encoding: 285 99 29
Width: 330
UnlinkRmOvrlpSave: 1
Flags: W
HStem: 0 40<127.646 290> 480 40<127.646 290>
VStem: 40 80<46.4806 473.519>
LayerCount: 2
Fore
SplineSet
290 40 m 1
 290 0 l 1
 85 0 l 2
 60 0 40 20 40 45 c 2
 40 475 l 2
 40 500 60 520 85 520 c 2
 290 520 l 1
 290 480 l 1
 165 480 l 2
 140 480 120 460 120 435 c 2
 120 85 l 2
 120 60 140 40 165 40 c 2
 290 40 l 1
EndSplineSet
EndChar

StartChar: d
Encoding: 286 100 30
Width: 330
UnlinkRmOvrlpSave: 1
Flags: W
HStem: 0 40<154.311 196.49 210 210> 480 40<154.311 210> 720 20G<210 290> 720 20G<210 290>
VStem: 40 80<71.7773 448.223> 210 80<40 480 520 740> 210 17<42.5125 51>
LayerCount: 2
Fore
SplineSet
178 0 m 1xca
 227 51 l 1
 227 46 l 2
 227 21 207 0 182 0 c 3
 181 0 178 0 178 0 c 1xca
210 480 m 1xcc
 160 480 120 440 120 390 c 0
 120 130 l 0
 120 80 160 40 210 40 c 0
 210 480 l 1xcc
290 740 m 1xec
 290 0 l 1xec
 210 0 l 1
 210 23 l 1xea
 180 0 l 1
 130 0 l 0
 80 0 40 40 40 90 c 0
 40 430 l 0
 40 480 80 520 130 520 c 2
 210 520 l 1
 210 740 l 1
 290 740 l 1xec
EndSplineSet
EndChar

StartChar: e
Encoding: 287 101 31
Width: 330
UnlinkRmOvrlpSave: 1
Flags: W
HStem: 0 40<127.646 290> 240 40<120 202.354> 480 40<127.33 202.077>
VStem: 40 80<46.4806 240 280 474.07> 210 80<286.481 473.818>
CounterMasks: 1 e0
LayerCount: 2
Back
SplineSet
358 260 m 25
 500 260 l 17
 500 455 l 1
 500 479.83984375 479.83984375 500 455 500 c 1
 330 500 l 1
 330 65 l 1
 330 40.16015625 350.16015625 20 375 20 c 1
 455 20 l 1
 455 20 500 40.16015625 500 65 c 1025
250 20 m 17
 125 20 l 1
 100.16015625 20 80 40.16015625 80 65 c 1
 80 500 l 1
 205 500 l 1
 229.83984375 500 250 479.83984375 250 455 c 1
 250 260 l 9
 108 260 l 1049
460 280 m 1
 460 435 l 2
 460 459.83984375 439.83984375 480 415 480 c 2
 370 480 l 1
 370 280 l 1
 460 280 l 1
370 85 m 2
 370 60.16015625 390.16015625 40 415 40 c 0
 439.83984375 40 460 60.16015625 460 85 c 1
 540 85 l 1
 540 45 l 2
 540 20.16015625 519.83984375 0 495 0 c 0
 335 0 335 0 335 0 c 2
 310.16015625 0 290 20.16015625 290 45 c 0
 290 520 290 520 290 520 c 1
 495 520 l 2
 519.83984375 520 540 499.83984375 540 475 c 0
 540 240 540 240 540 240 c 1
 370 240 l 1
 370 85 l 2
EndSplineSet
Fore
SplineSet
164 480 m 2
 139 480 120 460 120 435 c 2
 120 280 l 1
 165 280 l 2
 190 280 210 300 210 325 c 2
 210 434 l 2
 210 459 191 480 166 480 c 2
 164 480 l 2
85 520 m 2
 245 520 l 2
 270 520 290 500 290 475 c 2
 290 285 l 2
 290 260 270 240 245 240 c 2
 120 240 l 1
 120 85 l 2
 120 60 140 40 165 40 c 2
 290 40 l 1
 290 0 l 1
 85 0 l 2
 60 0 40 20 40 45 c 2
 40 475 l 2
 40 500 60 520 85 520 c 2
EndSplineSet
EndChar

StartChar: f
Encoding: 288 102 32
Width: 330
UnlinkRmOvrlpSave: 1
Flags: W
HStem: 360 40<125.343 165> 700 40<128.695 201.305>
VStem: 40 80<610 693.03> 210 80<610 693.03>
LayerCount: 2
Fore
SplineSet
40 310 m 2
 40 269 l 25
 120 269 l 25
 120 290 l 18
 120 338 120 360 165 360 c 0
 250 360 l 1
 250 400 l 9
 131 400 l 1
 130 400 l 2
 80 400 40 360 40 310 c 2
290 648 m 17
 290 650 l 2
 290 700 250 740 200 740 c 2
 130 740 l 2
 80 740 40 700 40 650 c 2
 40 648 l 1
 40 0 l 17
 120 0 l 9
 120 608 l 1
 120 610 l 2
 120 658 120 700 165 700 c 0
 210 700 210 658 210 610 c 10
 290 610 l 25
 290 648 l 17
EndSplineSet
EndChar

StartChar: g
Encoding: 289 103 33
Width: 330
UnlinkRmOvrlpSave: 1
Flags: W
HStem: -150 40<165 202.354> 0 41<127.664 164 166 196.561> 479 41<127.664 164 166 192.972>
VStem: 40 80<48.8977 90 430 471.102> 210 80<-103.519 -65 47.1824 87 433 472.818> 210 15<21 23>
LayerCount: 2
Fore
SplineSet
173 520 m 5xf4
 225 469 l 5
 225 474 l 6
 225 499 205 520 177 520 c 28
 173 520 l 5xf4
120 423 m 5
 120 432 l 5
 120 433 l 6
 120 458 139 479 164 479 c 6
 165 479 l 5
 166 479 l 6
 191 479 210 458 210 433 c 6xf8
 210 432 l 5
 210 427 l 5
 210 88 l 5xf4
 210 87 l 6xf8
 210 62 191 41 166 41 c 6
 165 41 l 29
 164 41 l 20
 139 41 120 62 120 87 c 6
 120 88 l 5
 120 423 l 5
178 0 m 5
 178 0 179 0 180 0 c 31
 205 0 225 21 225 46 c 6
 225 51 l 5xf4
 178 0 l 5
210 499 m 5
 200 510 l 5
 176 520 l 5
 130 520 l 4
 80 520 40 480 40 430 c 4
 40 90 l 4
 40 40 80 0 130 0 c 6
 135 0 l 5
 144 0 l 5
 165 0 l 5
 179 0 l 5
 210 23 l 5
 210 -49 l 13
 210 -63 l 5xf4
 210 -65 l 6
 210 -90 190 -110 165 -110 c 6
 50 -110 l 5
 50 -150 l 5
 245 -150 l 4
 270 -150 290 -130 290 -105 c 6
 290 -103 l 5
 290 10 l 5
 290 420 l 21
 290 520 l 13xf8
 210 520 l 5
 210 499 l 5
EndSplineSet
EndChar

StartChar: h
Encoding: 290 104 34
Width: 330
UnlinkRmOvrlpSave: 1
Flags: W
HStem: 0 21G<40 120 210 290> 480 40<133.408 196.177> 720 20G<40 120> 720 20G<40 120>
VStem: 40 80<0 471.786 513 740> 210 80<0 471.697>
LayerCount: 2
Back
SplineSet
40 760 m 1
 120 760 l 1
 120 280 l 1
 290 280 l 1
 290 760 l 1
 370 760 l 1
 370 0 l 1
 290 0 l 1
 290 240 l 1
 120 240 l 1
 120 0 l 1
 40 0 l 1
 40 760 l 1
EndSplineSet
Fore
SplineSet
40 740 m 1xec
 120 740 l 1
 120 513 l 1
 127 517 141 520 155 520 c 2
 175 520 l 2
 244 520 290 474 290 395 c 2
 290 0 l 1
 210 0 l 1
 210 365 l 2
 210 452 196 480 165 480 c 3
 133 480 120 452 120 365 c 2
 120 0 l 1
 40 0 l 1
 40 740 l 1xec
EndSplineSet
EndChar

StartChar: i
Encoding: 291 105 35
Width: 205
UnlinkRmOvrlpSave: 1
Flags: W
HStem: 0 40<126.855 160>
VStem: 30 100<596.344 668.656> 40 80<44.8956 85>
LayerCount: 2
Fore
SplineSet
30 633 m 9xc0
 130 633 l 17
 130 623 125 611 116 604 c 1
 80 569 l 1
 44 604 l 2
 35 611 30 623 30 633 c 9xc0
30 633 m 17
 30 643 35 654 44 661 c 2
 80 696 l 1
 116 661 l 1
 125 654 130 643 130 633 c 9
 30 633 l 17
40 45 m 2xa0
 40 20 58 0 80 0 c 2
 205 0 l 1
 205 40 l 1
 160 40 l 2
 138 40 120 60 120 85 c 0
 120 520 l 1
 40 520 l 1
 40 45 l 2xa0
EndSplineSet
EndChar

StartChar: j
Encoding: 292 106 36
Width: 160
UnlinkRmOvrlpSave: 1
Flags: W
HStem: -150 40<-45 33.1445> 500 20G<40 120>
VStem: 40 80<-105.104 520>
LayerCount: 2
Fore
SplineSet
130 633 m 9
 30 633 l 17
 30 623 35 611 44 604 c 1
 80 569 l 1
 116 604 l 2
 125 611 130 623 130 633 c 9
130 633 m 17
 130 643 125 654 116 661 c 2
 80 696 l 1
 44 661 l 1
 35 654 30 643 30 633 c 9
 130 633 l 17
120 -105 m 2
 120 -130 102 -150 80 -150 c 2
 -45 -150 l 1
 -45 -110 l 1
 -0 -110 l 2
 22 -110 40 -90 40 -65 c 0
 40 520 l 1
 120 520 l 1
 120 -105 l 2
EndSplineSet
EndChar

StartChar: k
Encoding: 293 107 37
Width: 330
UnlinkRmOvrlpSave: 1
Flags: W
VStem: 210 80<54 181.933 354.379 417 500 500>
LayerCount: 2
Back
SplineSet
112 199 m 5
 202 284 l 6
 259 344 l 4
 278 364 290 384 290 417 c 6
 290 520 l 5
 210 520 l 5
 210 423 l 29
 210 416 l 6
 210 370 210 347 190 327 c 6
 112 249 l 6
 112 199 l 5
120 248 m 1
 206 248 210 130 210 55 c 2
 210 0 l 1
 290 0 l 1
 290 54 l 2
 290 193 240 273 121 273 c 2
 120 273 l 1
 120 650 l 1
 40 650 l 1
 40 0 l 1
 120 0 l 1
 120 248 l 1
EndSplineSet
Fore
SplineSet
290 500 m 17
 290 508 286 516 279 522 c 2
 250 550 l 1
 221 522 l 2
 214 516 210 508 210 500 c 9
 290 500 l 17
112 199 m 1
 202 284 l 1
 259 344 l 2
 278 364 290 384 290 417 c 2
 290 500 l 1
 210 500 l 1
 210 423 l 25
 210 416 l 2
 210 370 210 347 190 327 c 2
 112 249 l 1
 112 199 l 1
140 246 m 1
 207 229 210 124 210 55 c 2
 210 0 l 1
 290 0 l 1
 290 54 l 2
 290 179 249 257 154 271 c 1
 140 246 l 1
120 0 m 1
 120 740 l 1
 40 740 l 1
 40 0 l 1
 120 0 l 1
EndSplineSet
EndChar

StartChar: l
Encoding: 294 108 38
Width: 190
UnlinkRmOvrlpSave: 1
Flags: W
HStem: 0 40<122.56 199.781> 720 20G<30 110>
VStem: 30 80<50.853 740> 174 1<0 40>
LayerCount: 2
Back
SplineSet
110 85 m 2
 110 60 130 40 155 40 c 2
 280 40 l 1
 280 0 l 1
 75 0 l 2
 50 0 30 20 30 45 c 2
 30 740 l 1
 110 740 l 1
 110 85 l 2
EndSplineSet
Fore
SplineSet
175 0 m 1
 174 0 l 1
 174 40 l 1
 175 40 l 1
 182 40 183 38 186 35 c 2
 200 20 l 1
 186 5 l 2
 183 2 182 0 175 0 c 1
120 0 m 16
 70 0 30 40 30 90 c 0
 30 740 30 740 30 740 c 1
 110 740 l 1
 110 130 l 2
 110 80 110 40 175 40 c 9
 175 0 l 25
 119 0 l 25
 120 0 l 16
EndSplineSet
EndChar

StartChar: m
Encoding: 295 109 39
Width: 580
UnlinkRmOvrlpSave: 1
Flags: W
HStem: 0 21G<40 120 250 330> 446 84<87 153.6 426.4 493>
VStem: 40 80<0 446> 250 80<0 360.5> 460 80<-3.5 446>
CounterMasks: 1 38
LayerCount: 2
Back
SplineSet
255.00390625 314.732421875 m 21
 308.8671875 366.587890625 362.822265625 418.3515625 416.702148438 470.190429688 c 4
 435.940429688 488.700195312 461.704101562 500 490.00390625 500 c 6
 504.00390625 500 l 5
 531.790039062 471.2265625 l 5
 493.243164062 415.653320312 l 5
 460.243164062 415.653320312 l 6
 431.943359375 415.653320312 406.1796875 404.353515625 386.94140625 385.84375 c 6
 278.00390625 281.1171875 l 5
 255.00390625 314.732421875 l 21
496 500 m 1
 540.001953125 500 l 1
 540.001953125 0 l 1
 460.001953125 0 l 1
 460.001953125 469 l 1
 496 500 l 1
325.00390625 314.732421875 m 13
 302.00390625 281.1171875 l 5
 193.06640625 385.84375 l 6
 173.828125 404.353515625 148.064453125 415.653320312 119.764648438 415.653320312 c 6
 86.7646484375 415.653320312 l 5
 48.2177734375 471.2265625 l 5
 76.00390625 500 l 5
 90.00390625 500 l 6
 118.303710938 500 144.067382812 488.700195312 163.305664062 470.190429688 c 4
 217.185546875 418.3515625 271.140625 366.587890625 325.00390625 314.732421875 c 13
250.001953125 342 m 5
 330.001953125 342 l 5
 330.001953125 0 l 5
 250.001953125 0 l 5
 250.001953125 342 l 5
120 0 m 1
 40 0 l 1
 40 500 l 1
 83 500 l 1
 120 462 l 1
 120 0 l 1
-314.99609375 574.732421875 m 17
 -261.1328125 626.587890625 -207.177734375 678.3515625 -153.297851562 730.190429688 c 0
 -134.059570312 748.700195312 -108.295898438 760 -79.99609375 760 c 2
 -65.99609375 760 l 1
 -38.2099609375 731.2265625 l 1
 -76.7568359375 675.653320312 l 1
 -109.756835938 675.653320312 l 2
 -138.056640625 675.653320312 -163.8203125 664.353515625 -183.05859375 645.84375 c 2
 -291.99609375 541.1171875 l 1
 -314.99609375 574.732421875 l 17
-74 760 m 1
 -29.998046875 760 l 1
 -29.998046875 0 l 1
 -109.998046875 0 l 1
 -109.998046875 729 l 1
 -74 760 l 1
-244.99609375 574.732421875 m 9
 -267.99609375 541.1171875 l 1
 -376.93359375 645.84375 l 2
 -396.171875 664.353515625 -421.935546875 675.653320312 -450.235351562 675.653320312 c 2
 -483.235351562 675.653320312 l 1
 -521.782226562 731.2265625 l 1
 -493.99609375 760 l 1
 -479.99609375 760 l 2
 -451.696289062 760 -425.932617188 748.700195312 -406.694335938 730.190429688 c 0
 -352.814453125 678.3515625 -298.859375 626.587890625 -244.99609375 574.732421875 c 9
-319.998046875 760 m 1
 -239.998046875 760 l 1
 -239.998046875 0 l 1
 -319.998046875 0 l 1
 -319.998046875 760 l 1
-450 0 m 1
 -530 0 l 1
 -530 760 l 1
 -487 760 l 1
 -450 722 l 1
 -450 0 l 1
EndSplineSet
Fore
SplineSet
540 30 m 1
 540 22 536 13 529 7 c 2
 500 -21 l 1
 471 7 l 1
 464 13 460 22 460 30 c 1
 510 30 l 0
 540 30 l 1
256 343 m 1
 262 351 l 1
 417 500 l 0
 436 519 462 530 490 530 c 2
 504 530 l 1
 532 501 l 1
 493 446 l 1
 460 446 l 2
 432 446 406 435 387 416 c 2
 278 311 l 1
 256 343 l 1
496 530 m 1
 540 530 l 1
 540 30 l 1
 460 30 l 1
 460 499 l 1
 496 530 l 1
323 341 m 1
 302 311 l 1
 193 416 l 2
 174 435 148 446 120 446 c 2
 87 446 l 1
 48 501 l 1
 76 530 l 1
 90 530 l 2
 118 530 144 519 163 500 c 0
 318 352 l 1
 323 341 l 1
261 350 m 1
 290 378 l 1
 319 350 l 2
 326 344 330 336 330 328 c 1
 330 0 l 1
 250 0 l 1
 250 328 l 1
 250 336 254 344 261 350 c 1
120 0 m 1
 40 0 l 1
 40 530 l 1
 83 530 l 1
 120 492 l 1
 120 0 l 1
EndSplineSet
EndChar

StartChar: n
Encoding: 296 110 40
Width: 370
UnlinkRmOvrlpSave: 1
Flags: W
HStem: 0 21G<40 120 250 330> 436 84<87 153.6> 530 20G<269.286 310.714>
VStem: 40 80<0 436> 250 80<0 532.5>
LayerCount: 2
Fore
SplineSet
323 331 m 5
 302 301 l 5
 193 406 l 6
 174 425 148 436 120 436 c 6
 87 436 l 5
 48 491 l 5
 76 520 l 5
 90 520 l 6
 118 520 144 509 163 490 c 4
 318 342 l 5
 323 331 l 5
261 522 m 1
 290 550 l 1
 319 522 l 2
 326 516 330 508 330 500 c 1
 330 0 l 1
 250 0 l 1
 250 500 l 1
 250 508 254 516 261 522 c 1
120 0 m 1
 40 0 l 1
 40 520 l 1
 83 520 l 1
 120 482 l 1
 120 0 l 1
EndSplineSet
EndChar

StartChar: o
Encoding: 297 111 41
Width: 330
UnlinkRmOvrlpSave: 1
Flags: W
HStem: 0 40<128.695 201.305> 480 40<128.695 201.305>
VStem: 40 80<46.9702 473.03> 210 80<46.9702 473.03>
LayerCount: 2
Back
SplineSet
40 90 m 0xbc
 40 430 l 2
 40 480 80 520 130 520 c 2
 200 520 l 2
 250 520 290 480 290 430 c 0
 290 90 l 2
 290 40 250 0 200 0 c 0
 50 0 130 0 130 0 c 2
 80 0 40 40 40 90 c 0xbc
120 390 m 0
 120 130 l 2
 120 82 120 40 165 40 c 3
 210 40 210 82 210 130 c 0
 210 390 l 2
 210 438 210 480 165 480 c 3
 120 480 120 438 120 390 c 0
80 114 m 2
 80 404.995117188 l 2
 80 464.440429688 122.5 500 165 500 c 3
 207.501953125 500 250.00390625 464.438476562 250.00390625 404.995117188 c 2
 250.00390625 114 l 2
 250.00390625 54.560546875 207.501953125 20 165 20 c 3
 122.5 20 80 54.55859375 80 114 c 2
380 110 m 1
 380 409.995117188 l 1
 380 459.677734375 420.3203125 500 470 500 c 1
 540.00390625 500 l 1
 589.68359375 500 630.00390625 459.677734375 630.00390625 409.995117188 c 1
 630.00390625 110 l 1
 630.00390625 60.3203125 589.68359375 20 540.00390625 20 c 1
 470 20 l 1
 420.3203125 20 380 60.3203125 380 110 c 1
EndSplineSet
Fore
SplineSet
40 90 m 2
 40 430 l 2
 40 480 80 520 130 520 c 2
 200 520 l 2
 250 520 290 480 290 430 c 2
 290 90 l 2
 290 40 250 0 200 0 c 2
 130 0 l 2
 80 0 40 40 40 90 c 2
120 390 m 2
 120 130 l 2
 120 82 120 40 165 40 c 0
 210 40 210 82 210 130 c 2
 210 390 l 2
 210 438 210 480 165 480 c 0
 120 480 120 438 120 390 c 2
EndSplineSet
EndChar

StartChar: p
Encoding: 298 112 42
Width: 330
UnlinkRmOvrlpSave: 1
Flags: W
HStem: -200 21G<40 120> 0 40<133.51 176.306> 480 40<120 176.306>
VStem: 40 80<-200 -200 40 480> 103 17<42.5125 51> 210 80<71.7773 448.223>
LayerCount: 2
Fore
SplineSet
152 0 m 1xec
 148 0 l 2
 123 0 103 21 103 46 c 2
 103 51 l 1
 152 0 l 1xec
120 23 m 1
 120 -200 l 1
 40 -200 l 1
 40 520 l 1xf4
 200 520 l 2
 250 520 290 480 290 430 c 2
 290 90 l 2
 290 40 250 0 200 0 c 2
 150 0 l 1
 120 23 l 1
121 40 m 2
 171 40 210 80 210 130 c 2
 210 390 l 2
 210 440 171 480 121 480 c 2
 120 480 l 1
 120 40 l 1
 121 40 l 2
EndSplineSet
EndChar

StartChar: q
Encoding: 299 113 43
Width: 320
UnlinkRmOvrlpSave: 1
Flags: W
HStem: -62 2<350 430> 0 41<127.664 164 166 196.561> 479 41<127.664 164 166 192.972>
VStem: 40 80<48.8977 90 430 471.102> 210 80<-104.836 -22 47.1824 87 433 472.818> 210 15<21 23> 350 80<-107.555 -62 -60 -27.5>
LayerCount: 2
Back
SplineSet
40 90 m 4xd8
 40 670 40 670 40 670 c 6
 40 720 80 760 130 760 c 6
 280 760 l 6
 330 760 370 720 370 670 c 4
 370 90 370 90 370 90 c 6
 370 57 352 28 325 12 c 5
 326 11 326 11 353 -15 c 4
 372 -34 399 -45 427 -45 c 6
 530 -45 l 5
 530 -85 l 5
 347 -85 l 6
 319 -85 292 -74 273 -55 c 6
 247 -30 l 6
 228 -11 202 0 174 0 c 4
 130 0 130 0 130 0 c 6
 80 0 40 40 40 90 c 4xd8
120 630 m 4
 120 130 120 130 120 130 c 6
 120 82 158 43 205 40 c 5
 252 43 290 82 290 130 c 4
 290 630 290 630 290 630 c 6
 290 678 252 717 205 720 c 5
 158 717 120 678 120 630 c 4
EndSplineSet
Fore
SplineSet
430 -60 m 1xf2
 430 -50 426 -44 419 -38 c 2
 390 -10 l 1
 361 -38 l 2
 354 -44 350 -50 350 -60 c 1
 350 -62 l 1
 430 -62 l 1
 430 -60 l 1xf2
350 -64 m 1
 350 -65 l 2
 350 -100 345 -122 325 -140 c 2
 292 -171 l 2
 320 -200 l 2
 382 -135 l 2
 416 -99 430 -89 430 -62 c 2
 430 -60 l 1
 422 -60 l 1
 350 -60 l 1
 350 -64 l 1
173 520 m 1
 225 469 l 1
 225 474 l 2xf6
 225 499 205 520 177 520 c 0
 173 520 l 1
120 423 m 1
 120 432 l 1
 120 433 l 2
 120 458 139 479 164 479 c 2
 165 479 l 1
 166 479 l 2
 191 479 210 458 210 433 c 2xfa
 210 432 l 1
 210 427 l 1
 210 88 l 1xf6
 210 87 l 2xfa
 210 62 191 41 166 41 c 2
 165 41 l 1
 164 41 l 0
 139 41 120 62 120 87 c 2
 120 88 l 1
 120 423 l 1
178 0 m 1
 178 0 179 0 180 0 c 3
 205 0 225 21 225 46 c 2
 225 51 l 1xf6
 178 0 l 1
290 -48 m 1xfa
 290 10 l 1
 290 420 l 1
 290 520 l 1xfa
 210 520 l 1
 210 499 l 1
 200 510 l 1
 176 520 l 1
 130 520 l 0
 80 520 40 480 40 430 c 0
 40 90 l 0
 40 40 80 0 130 0 c 2
 135 0 l 1
 144 0 l 1
 165 0 l 1
 179 0 l 1
 210 23 l 1
 210 -17 l 1xf6
 210 -22 l 2
 210 -63 223 -100 244 -121 c 2
 290 -169 l 0
 312 -191 318 -195 318 -195 c 1
 320 -193 l 1
 340 -164 l 1
 315 -140 l 2
 296 -121 290 -87 290 -52 c 2
 290 -48 l 1xfa
EndSplineSet
EndChar

StartChar: r
Encoding: 300 114 44
Width: 370
UnlinkRmOvrlpSave: 1
Flags: W
HStem: 0 21G<250 330> 382 51.7217<108.772 126.48> 500 20G<253 330> 504 56<66.4245 123.098>
VStem: 10 54<439.216 502.191> 90 80<246.5 382.157> 124 46<447.156 502.48> 250 80<0 500>
LayerCount: 2
Back
SplineSet
110 317 m 2
 110 260 l 2
 110 243.442382812 127.923828125 230 150 230 c 0
 172.076171875 230 190 243.442382812 190 260 c 2
 190 317 l 2
 190 333.557617188 172.076171875 347 150 347 c 0
 127.923828125 347 110 333.557617188 110 317 c 2
EndSplineSet
Fore
SplineSet
170 280 m 1xcd
 170 272 166 263 159 257 c 2
 130 229 l 1
 101 257 l 1
 94 263 90 272 90 280 c 1
 170 280 l 1xcd
124 475 m 1xdb
 124 477 l 2
 124 493 113 504 97 504 c 3xdb
 77 504 64 491 64 471 c 0
 64 451 78 438 98 435 c 0
 103.539679299 434.169048105 108.772478131 433.721696795 113.677146253 433.721696795 c 0
 126.479886294 433.721696795 137.046823614 436.769839649 145 444 c 1
 149 448 l 1
 168 467 l 25
 180 480 l 2
 205 506 237 520 269 520 c 2
 270 520 l 1
 330 520 l 1
 330 0 l 1
 250 0 l 1
 250 480 l 1
 250 500 l 1xeb
 250 478.106445312 l 1
 235.47265625 474.96875 224.739050148 467.739050148 212 455 c 2
 175 418 l 9
 165 408 l 1
 151 394 134 385 113 383 c 0
 109 383 105 382 101 382 c 8
 52 382 10 421 10 471 c 0
 10 521 51 560 100 560 c 19
 139 560 170 529 170 490 c 2
 170 452 l 1xdb
 170 280 l 1
 90 280 l 1
 90 348 l 0xdd
 90 377 94 397 98 411 c 0
 101 423 104 428 112 439 c 0
 120 450 124 460 124 475 c 1xdb
EndSplineSet
EndChar

StartChar: s
Encoding: 301 115 45
Width: 330
UnlinkRmOvrlpSave: 1
Flags: W
HStem: 0 85<46.4806 120> 0 40<127.178 202.336> 480 40<127.664 202.822>
VStem: 40 80<46.5918 85 345.76 473.408> 210 80<46.5918 173.928 401.5 473.408>
LayerCount: 2
Back
SplineSet
80 20 m 29
 250 20 l 5
 250 260 l 1053
210 435 m 5
 290 435 l 5
 290 475 l 6
 290 500 270 520 245 520 c 4
 130 520 l 4
 80 520 40 480 40 430 c 6
 40 240 l 5
 120 240 l 5
 120 435 l 6
 120 464 143 480 165 480 c 7
 187 480 210 464 210 435 c 5
EndSplineSet
Fore
SplineSet
290 435 m 5x38
 290 427 286 418 279 412 c 6
 250 384 l 5
 221 412 l 5
 214 418 210 427 210 435 c 5
 260 435 l 4
 290 435 l 5x38
256 189 m 2
 290 151 290 131 290 90 c 2
 290 89 l 2
 290 39 250 0 200 0 c 0x78
 85 0 l 2
 60 0 40 20 40 45 c 2
 40 85 l 1
 120 85 l 1xb8
 120 56 143 40 165 40 c 3x78
 187 40 210 56 210 85 c 2xb8
 210 86 l 1
 210 116 l 1
 210 152 l 2
 210 180 209 182 193 200 c 2
 74 331 l 2
 40 368 40 389 40 430 c 2
 40 431 l 2
 40 481 80 520 130 520 c 2
 245 520 l 2
 270 520 290 500 290 475 c 2
 290 435 l 1
 210 435 l 1
 210 464 187 480 165 480 c 3
 143 480 120 464 120 435 c 2
 120 434 l 1
 120 404 l 1
 120 373 l 2
 120 340 120 338 138 319 c 2
 256 189 l 2
EndSplineSet
EndChar

StartChar: t
Encoding: 302 116 46
Width: 330
UnlinkRmOvrlpSave: 1
Flags: W
HStem: 0 40<211.855 245> 480 40<99 124.616 205.375 229>
VStem: 125 80<44.8956 85 444 479.968 520.107 554 620 620>
LayerCount: 2
Fore
SplineSet
205 620 m 17
 205 628 201 637 194 643 c 2
 165 671 l 1
 136 643 l 1
 129 637 125 628 125 620 c 9
 205 620 l 17
205 433 m 1
 205 444 l 2
 205 469 205 480 229 480 c 2
 250 480 l 1
 290 480 l 1
 290 520 l 1
 205 520 l 1
 205 620 l 1
 125 620 l 1
 125 565 l 1
 125 554 l 2
 125 529 124 520 99 520 c 2
 78 520 l 1
 40 520 l 1
 40 480 l 1
 110 480 l 1
 125 480 l 1
 125 444 l 1
 125 45 l 0
 125 20 143 0 165 0 c 2
 290 0 l 1
 290 40 l 1
 245 40 l 2
 223 40 205 60 205 85 c 2
 205 433 l 1
EndSplineSet
EndChar

StartChar: u
Encoding: 303 117 47
Width: 330
UnlinkRmOvrlpSave: 1
Flags: W
HStem: 0 40<128.695 201.305> 500 20G<40 120 210 290>
VStem: 40 80<46.9702 520> 210 80<46.9702 520>
LayerCount: 2
Fore
SplineSet
290 520 m 5
 290 90 l 6
 290 40 250 0 200 0 c 6
 130 0 l 6
 80 0 40 40 40 90 c 6
 40 520 l 5
 120 520 l 13
 120 130 l 6
 120 82 120 40 165 40 c 4
 210 40 210 82 210 130 c 6
 210 520 l 21
 290 520 l 5
EndSplineSet
EndChar

StartChar: v
Encoding: 304 118 48
Width: 330
UnlinkRmOvrlpSave: 1
Flags: W
HStem: 0 40<40 108> 520 11G<40 120 229.286 270.714>
VStem: 40 80<40 520> 210 80<145.959 533.5>
LayerCount: 2
Back
SplineSet
40 0 m 1xe8
 40 520 l 1
 120 520 l 1xe8
 120 20 l 1xd8
 76 0 l 1
 40 0 l 1xe8
80 40 m 2
 108 40 120 47 138 65 c 2
 185 112 l 2
 208 134 210 155 210 184 c 2
 210 520 l 1
 290 520 l 1
 290 210 l 2
 290 180 285 162 256 131 c 2
 170 40 l 2
 145 14 112 0 80 0 c 2
 63 0 l 1
 63 40 l 1xd8
 80 40 l 2
EndSplineSet
Fore
SplineSet
290 500 m 9
 210 500 l 17
 210 508 214 517 221 523 c 1
 250 551 l 1
 279 523 l 2
 286 517 290 508 290 500 c 9
40 0 m 1
 40 520 l 1
 120 520 l 1
 120 20 l 1
 76 0 l 1
 40 0 l 1
80 40 m 2
 108 40 120 47 138 65 c 2
 185 112 l 2
 208 134 210 155 210 184 c 2
 210 500 l 1
 290 500 l 1
 290 210 l 2
 290 180 285 162 256 131 c 2
 170 40 l 2
 145 14 112 0 80 0 c 2
 40 0 l 1
 40 40 l 1
 80 40 l 2
EndSplineSet
EndChar

StartChar: w
Encoding: 305 119 49
Width: 500
UnlinkRmOvrlpSave: 1
Flags: W
HStem: 0 21G<210 290> 10 30<210 238 262 290> 500 20G<40 120 229.286 270.714 380 460>
VStem: 40 80<145.959 520> 210 80<10 533.5> 380 80<145.959 520>
CounterMasks: 1 1c
LayerCount: 2
Back
SplineSet
540 30 m 5
 540 22 536 13 529 7 c 6
 500 -21 l 5
 471 7 l 5
 464 13 460 22 460 30 c 5
 510 30 l 4
 540 30 l 5
256.3984375 342.756835938 m 5
 261.772460938 351.240234375 l 5
 416.702148438 500.190429688 l 4
 435.940429688 518.700195312 461.704101562 530 490.00390625 530 c 6
 504.00390625 530 l 5
 531.790039062 501.2265625 l 5
 493.243164062 445.653320312 l 5
 460.243164062 445.653320312 l 6
 431.943359375 445.653320312 406.1796875 434.353515625 386.94140625 415.84375 c 6
 278.00390625 311.1171875 l 5
 256.3984375 342.756835938 l 5
496 530 m 5
 540.001953125 530 l 5
 540.001953125 30 l 5
 460.001953125 30 l 5
 460.001953125 499 l 5
 496 530 l 5
322.618164062 341.147460938 m 5
 302.00390625 311.1171875 l 5
 193.06640625 415.84375 l 6
 173.828125 434.353515625 148.064453125 445.653320312 119.764648438 445.653320312 c 6
 86.7646484375 445.653320312 l 5
 48.2177734375 501.2265625 l 5
 76.00390625 530 l 5
 90.00390625 530 l 6
 118.303710938 530 144.067382812 518.700195312 163.305664062 500.190429688 c 4
 317.711914062 351.743164062 l 5
 322.618164062 341.147460938 l 5
260.776367188 350.234375 m 5
 290 378 l 5
 319.224609375 350.236328125 l 6
 326.060546875 343.759765625 330.001953125 336.146484375 330.001953125 328 c 5
 330.001953125 0 l 5
 250.001953125 0 l 5
 250.001953125 328 l 5
 250.001953125 336.145507812 253.942382812 343.758789062 260.776367188 350.234375 c 5
120 0 m 5
 40 0 l 5
 40 530 l 5
 83 530 l 5
 120 492 l 5
 120 0 l 5
EndSplineSet
Fore
SplineSet
250 40 m 2x7c
 290 40 l 1
 290 10 l 1x7c
 250 0 l 2xbc
 218 0 185 14 160 40 c 2
 74 131 l 2
 45 162 40 180 40 210 c 2
 40 520 l 1
 120 520 l 1
 120 184 l 2
 120 155 122 134 145 112 c 2
 192 65 l 2
 210 47 222 40 250 40 c 2x7c
290 500 m 9
 210 500 l 17
 210 508 214 517 221 523 c 1
 250 551 l 1
 279 523 l 2
 286 517 290 508 290 500 c 9
220 20 m 2
 216.4 21.2 210 51 210 70 c 2
 210 500 l 1
 290 500 l 1
 290 70 l 2
 290 51 283.6 21.2 280 20 c 2
 250 10 l 1
 220 20 l 2
250 40 m 2
 278 40 290 47 308 65 c 2
 355 112 l 2
 378 134 380 155 380 184 c 2
 380 520 l 1
 460 520 l 1
 460 210 l 2
 460 180 455 162 426 131 c 2
 340 40 l 2x7c
 315 14 282 0 250 0 c 2xbc
 210 10 l 1
 210 40 l 1
 250 40 l 2
EndSplineSet
EndChar

StartChar: x
Encoding: 306 120 50
Width: 330
UnlinkRmOvrlpSave: 1
Flags: W
HStem: 0 21G<40 120 210 290> 500 20G<40 120 210 290>
VStem: 40 80<0 180.472 341.953 520> 210 80<0 180.522 341.953 520>
LayerCount: 2
Fore
SplineSet
40 425 m 2
 40 430 l 2
 40 520 l 1
 120 520 l 1
 120 440 l 2
 120 399 l 0
 120 395 l 18
 120 360 128 328 145 307 c 0
 202 251 l 0
 203 250 203 249 259 191 c 0
 278 171 290 149 290 132 c 2
 290 0 l 1
 210 0 l 1
 210 127 l 2
 210 145 l 1
 210 162 l 2
 210 175 205 193 190 208 c 0
 131 267 l 0
 131 267 130 268 74 326 c 0
 53 347 40 384 40 425 c 2
290 425 m 2
 290 384 277 347 256 326 c 0
 200 268 200 267 200 267 c 0
 140 208 l 0
 125 193 120 175 120 162 c 2
 120 145 l 1
 120 127 l 2
 120 0 l 1
 40 0 l 1
 40 132 l 2
 40 148 52 171 71 191 c 0
 127 249 127 250 128 251 c 0
 185 307 l 0
 202 328 210 360 210 395 c 10
 210 396 210 357 210 399 c 0
 210 440 l 2
 210 520 l 1
 290 520 l 1
 290 430 l 2
 290 425 l 2
EndSplineSet
EndChar

StartChar: y
Encoding: 307 121 51
Width: 340
UnlinkRmOvrlpSave: 1
Flags: W
HStem: -200 21G<0 80> 499 20G<40 120 220 300>
VStem: 0 80<-200 -94.5276> 40 80<117.353 519> 220 80<117.353 519>
LayerCount: 2
Back
SplineSet
199 3 m 2xd0
 130 72 l 2xb0
 130 72 130 73 74 131 c 0
 53 152 40 189 40 230 c 2
 40 235 l 2
 40 519 l 1
 120 519 l 1
 120 479 l 2
 120 204 l 0
 120 200 l 2
 120 165 128 133 145 112 c 1
 227 31 l 25
 199 3 l 2xd0
380 230 m 2
 380 189 367 152 346 131 c 0
 290 72 l 2
 150 -67 l 2
 135 -82 130 -100 130 -113 c 2
 130 -130 l 1
 130 -148 l 2
 130 -200 l 1
 50 -200 l 1
 50 -143 l 2
 50 -127 62 -104 81 -84 c 0
 138 -24 l 2
 275 112 l 1
 292 133 300 165 300 200 c 2
 300 204 l 0
 300 479 l 2
 300 519 l 1
 380 519 l 1
 380 235 l 2
 380 230 l 2
EndSplineSet
Fore
SplineSet
170 2 m 2xd8
 130 42 l 1
 75 100 l 1
 74 101 l 2
 54 123 40 159 40 200 c 2
 40 205 l 25
 40 519 l 1
 120 519 l 1
 120 174 l 25
 120 170 l 2
 120 135 126 101 145 82 c 2
 146 81 l 1
 198 30 l 9
 170 2 l 2xd8
100 -67 m 2
 85 -82 80 -100 80 -113 c 2
 80 -116 l 25
 80 -200 l 1
 0 -200 l 1
 0 -145 l 1
 0 -143 l 2xe8
 0 -127 12 -104 31 -84 c 2
 32 -83 l 1
 193 80 l 1
 195 82 l 2
 214 101 220 135 220 170 c 2
 220 174 l 25
 220 519 l 1
 300 519 l 1
 300 205 l 25
 300 200 l 2
 300 159 286 123 266 101 c 2
 264 99 l 1
 210 42 l 1
 101 -66 l 1
 100 -67 l 2
EndSplineSet
EndChar

StartChar: z
Encoding: 308 122 52
Width: 330
UnlinkRmOvrlpSave: 1
Flags: W
VStem: 40 80<143 226.521> 210 80<377.953 461>
LayerCount: 2
Fore
SplineSet
71 237 m 2
 51 217 40 198 40 178 c 2
 40 177 l 1
 40 0 l 1
 120 0 l 1
 120 142 l 1
 120 143 l 2
 120 202 120 224 149 253 c 2
 150 254 l 1
 255 361 l 1
 256 362 l 2
 277 383 290 420 290 461 c 2
 290 462 l 1
 290 520 l 1
 210 520 l 1
 210 443 l 5
 210 441 l 2
 210 406 208 376 185 353 c 2
 184 352 l 1
 72 238 l 1
 71 237 l 2
290 520 m 1
 40 520 l 1
 40 480 l 1
 290 480 l 1
 290 520 l 1
290 40 m 1
 40 40 l 1
 40 0 l 1
 290 0 l 1
 290 40 l 1
EndSplineSet
EndChar

StartChar: Amacron
Encoding: 309 256 53
Width: 342
Flags: W
LayerCount: 2
Fore
SplineSet
-237 1053 m 1
 -249 1008 l 1025
EndSplineSet
Validated: 3
EndChar

StartChar: amacron
Encoding: 310 257 54
Width: 1000
Flags: W
LayerCount: 2
Fore
SplineSet
-237 1053 m 5
 -249 1008 l 1029
EndSplineSet
Validated: 3
EndChar

StartChar: Abreve
Encoding: 311 258 55
Width: 1000
Flags: W
LayerCount: 2
Fore
SplineSet
-237 1053 m 5
 -249 1008 l 1029
EndSplineSet
Validated: 3
EndChar

StartChar: abreve
Encoding: 312 259 56
Width: 1000
Flags: W
LayerCount: 2
Fore
SplineSet
-237 1053 m 5
 -249 1008 l 1029
EndSplineSet
Validated: 3
EndChar

StartChar: Aogonek
Encoding: 313 260 57
Width: 1000
Flags: W
LayerCount: 2
Fore
SplineSet
-237 1053 m 5
 -249 1008 l 1029
EndSplineSet
Validated: 3
EndChar

StartChar: aogonek
Encoding: 314 261 58
Width: 1000
Flags: W
LayerCount: 2
Fore
SplineSet
-237 1053 m 5
 -249 1008 l 1029
EndSplineSet
Validated: 3
EndChar

StartChar: Cacute
Encoding: 315 262 59
Width: 1000
Flags: W
LayerCount: 2
Fore
SplineSet
-237 1053 m 5
 -249 1008 l 1029
EndSplineSet
Validated: 3
EndChar

StartChar: ccircumflex
Encoding: 318 265 62
Width: 1000
Flags: W
LayerCount: 2
Fore
SplineSet
-237 1053 m 5
 -249 1008 l 1029
EndSplineSet
Validated: 3
EndChar

StartChar: Cdotaccent
Encoding: 319 266 63
Width: 1000
Flags: W
LayerCount: 2
Fore
SplineSet
-237 1053 m 5
 -249 1008 l 1029
EndSplineSet
Validated: 3
EndChar

StartChar: Ccaron
Encoding: 321 268 65
Width: 1000
Flags: W
LayerCount: 2
Fore
SplineSet
-237 1053 m 5
 -249 1008 l 1029
EndSplineSet
Validated: 3
EndChar

StartChar: Dcaron
Encoding: 323 270 67
Width: 1000
Flags: W
LayerCount: 2
Fore
SplineSet
-237 1053 m 5
 -249 1008 l 1029
EndSplineSet
Validated: 3
EndChar

StartChar: dcaron
Encoding: 324 271 68
Width: 1000
Flags: W
LayerCount: 2
Fore
SplineSet
-237 1053 m 5
 -249 1008 l 1029
EndSplineSet
Validated: 3
EndChar

StartChar: Dcroat
Encoding: 325 272 69
Width: 411
Flags: W
HStem: 0 40<121 256.689> 460 40<121 231> 540 21G<41 121> 720 40<121 256.689>
VStem: 41 80<40 460 540 720> 291 80<71.7773 688.223>
LayerCount: 2
Back
SplineSet
41.001953125 400 m 5
 41.001953125 440 l 5
 231.001953125 440 l 5
 231.001953125 400 l 5
 41.001953125 400 l 5
EndSplineSet
Fore
SplineSet
121 540 m 1
 41 540 l 1
 41 760 l 1
 281 760 l 2
 331 760 371 720 371 670 c 0
 371 90 371 90 371 90 c 2
 371 40 331 0 281 0 c 0
 41 0 41 0 41 0 c 1
 41 500 l 1
 231 500 l 1
 231 460 l 1
 121 460 l 1
 121 40 l 1
 201 40 l 2
 251 40 291 80 291 130 c 2
 291 630 l 2
 291 680 251 720 201 720 c 2
 121 720 l 1
 121 540 l 1
EndSplineSet
Validated: 1
EndChar

StartChar: dcroat
Encoding: 326 273 70
Width: 330
UnlinkRmOvrlpSave: 1
Flags: W
HStem: 0 40<154.311 196.49 210 210> 480 40<154.311 210> 630 40<75.2188 334.781> 720 20G<210 290 210 290>
VStem: 40 80<71.7773 448.223> 210 17<42.5125 51> 210 80<40 480 520 740> 309 1<630 670>
LayerCount: 2
Fore
SplineSet
100 630 m 1xf9
 93 630 92 632 89 635 c 2
 75 650 l 1
 89 665 l 2
 92 668 93 670 100 670 c 1
 101 670 l 1
 101 630 l 1
 100 630 l 1xf9
310 630 m 1
 309 630 l 1
 309 670 l 1
 310 670 l 1
 317 670 318 668 321 665 c 2
 335 650 l 1
 321 635 l 2
 318 632 317 630 310 630 c 1
100 630 m 1
 100 670 l 1
 310 670 l 1
 310 630 l 1
 100 630 l 1
EndSplineSet
Refer: 30 100 N 1 0 0 1 0 0 2
EndChar

StartChar: Emacron
Encoding: 327 274 71
Width: 1000
Flags: W
LayerCount: 2
Fore
SplineSet
-237 1053 m 5
 -249 1008 l 1029
EndSplineSet
Validated: 3
EndChar

StartChar: emacron
Encoding: 328 275 72
Width: 1000
Flags: W
LayerCount: 2
Fore
SplineSet
-237 1053 m 5
 -249 1008 l 1029
EndSplineSet
Validated: 3
EndChar

StartChar: Ebreve
Encoding: 329 276 73
Width: 1000
Flags: W
LayerCount: 2
Fore
SplineSet
-237 1053 m 5
 -249 1008 l 1029
EndSplineSet
Validated: 3
EndChar

StartChar: ebreve
Encoding: 330 277 74
Width: 1000
Flags: W
LayerCount: 2
Fore
SplineSet
-237 1053 m 5
 -249 1008 l 1029
EndSplineSet
Validated: 3
EndChar

StartChar: Edotaccent
Encoding: 331 278 75
Width: 1000
Flags: W
LayerCount: 2
Fore
SplineSet
-237 1053 m 5
 -249 1008 l 1029
EndSplineSet
Validated: 3
EndChar

StartChar: Eogonek
Encoding: 332 280 76
Width: 1000
Flags: W
LayerCount: 2
Fore
SplineSet
-237 1053 m 5
 -249 1008 l 1029
EndSplineSet
Validated: 3
EndChar

StartChar: eogonek
Encoding: 333 281 77
Width: 1000
Flags: W
LayerCount: 2
Fore
SplineSet
-237 1053 m 5
 -249 1008 l 1029
EndSplineSet
Validated: 3
EndChar

StartChar: Ecaron
Encoding: 334 282 78
Width: 1000
Flags: W
LayerCount: 2
Fore
SplineSet
-237 1053 m 5
 -249 1008 l 1029
EndSplineSet
Validated: 3
EndChar

StartChar: ecaron
Encoding: 335 283 79
Width: 1000
Flags: W
LayerCount: 2
Fore
SplineSet
-237 1053 m 5
 -249 1008 l 1029
EndSplineSet
Validated: 3
EndChar

StartChar: Gcircumflex
Encoding: 336 284 80
Width: 1000
Flags: W
LayerCount: 2
Fore
SplineSet
-237 1053 m 5
 -249 1008 l 1029
EndSplineSet
Validated: 3
EndChar

StartChar: gcircumflex
Encoding: 337 285 81
Width: 1000
Flags: W
LayerCount: 2
Fore
SplineSet
-237 1053 m 5
 -249 1008 l 1029
EndSplineSet
Validated: 3
EndChar

StartChar: Gbreve
Encoding: 338 286 82
Width: 1000
Flags: W
LayerCount: 2
Fore
SplineSet
-237 1053 m 5
 -249 1008 l 1029
EndSplineSet
Validated: 3
EndChar

StartChar: gbreve
Encoding: 339 287 83
Width: 1000
Flags: W
LayerCount: 2
Fore
SplineSet
-237 1053 m 5
 -249 1008 l 1029
EndSplineSet
Validated: 3
EndChar

StartChar: Gdotaccent
Encoding: 340 288 84
Width: 1000
Flags: W
LayerCount: 2
Fore
SplineSet
-237 1053 m 5
 -249 1008 l 1029
EndSplineSet
Validated: 3
EndChar

StartChar: gdotaccent
Encoding: 341 289 85
Width: 1000
Flags: W
LayerCount: 2
Fore
SplineSet
-237 1053 m 5
 -249 1008 l 1029
EndSplineSet
Validated: 3
EndChar

StartChar: uni0122
Encoding: 342 290 86
Width: 1000
Flags: W
LayerCount: 2
Fore
SplineSet
-237 1053 m 5
 -249 1008 l 1029
EndSplineSet
Validated: 3
EndChar

StartChar: uni0123
Encoding: 343 291 87
Width: 1000
Flags: W
LayerCount: 2
Fore
SplineSet
-237 1053 m 5
 -249 1008 l 1029
EndSplineSet
Validated: 3
EndChar

StartChar: Hcircumflex
Encoding: 344 292 88
Width: 1000
Flags: W
LayerCount: 2
Fore
SplineSet
-237 1053 m 5
 -249 1008 l 1029
EndSplineSet
Validated: 3
EndChar

StartChar: hcircumflex
Encoding: 345 293 89
Width: 1000
Flags: W
LayerCount: 2
Fore
SplineSet
-237 1053 m 5
 -249 1008 l 1029
EndSplineSet
Validated: 3
EndChar

StartChar: hbar
Encoding: 347 295 91
Width: 1000
Flags: W
LayerCount: 2
Fore
SplineSet
-237 1053 m 5
 -249 1008 l 1029
EndSplineSet
Validated: 3
EndChar

StartChar: Itilde
Encoding: 348 296 92
Width: 1000
Flags: W
LayerCount: 2
Fore
SplineSet
-237 1053 m 5
 -249 1008 l 1029
EndSplineSet
Validated: 3
EndChar

StartChar: itilde
Encoding: 349 297 93
Width: 1000
Flags: W
LayerCount: 2
Fore
SplineSet
-237 1053 m 5
 -249 1008 l 1029
EndSplineSet
Validated: 3
EndChar

StartChar: Imacron
Encoding: 350 298 94
Width: 1000
Flags: W
LayerCount: 2
Fore
SplineSet
-237 1053 m 5
 -249 1008 l 1029
EndSplineSet
Validated: 3
EndChar

StartChar: imacron
Encoding: 351 299 95
Width: 1000
Flags: W
LayerCount: 2
Fore
SplineSet
-237 1053 m 5
 -249 1008 l 1029
EndSplineSet
Validated: 3
EndChar

StartChar: Ibreve
Encoding: 352 300 96
Width: 1000
Flags: W
LayerCount: 2
Fore
SplineSet
-237 1053 m 5
 -249 1008 l 1029
EndSplineSet
Validated: 3
EndChar

StartChar: ibreve
Encoding: 353 301 97
Width: 1000
Flags: W
LayerCount: 2
Fore
SplineSet
-237 1053 m 5
 -249 1008 l 1029
EndSplineSet
Validated: 3
EndChar

StartChar: Iogonek
Encoding: 354 302 98
Width: 1000
Flags: W
LayerCount: 2
Fore
SplineSet
-237 1053 m 5
 -249 1008 l 1029
EndSplineSet
Validated: 3
EndChar

StartChar: iogonek
Encoding: 355 303 99
Width: 1000
Flags: W
LayerCount: 2
Fore
SplineSet
-237 1053 m 5
 -249 1008 l 1029
EndSplineSet
Validated: 3
EndChar

StartChar: Idotaccent
Encoding: 356 304 100
Width: 1000
Flags: W
LayerCount: 2
Fore
SplineSet
-237 1053 m 5
 -249 1008 l 1029
EndSplineSet
Validated: 3
EndChar

StartChar: dotlessi
Encoding: 357 305 101
Width: 1000
Flags: W
LayerCount: 2
Fore
SplineSet
-237 1053 m 5
 -249 1008 l 1029
EndSplineSet
Validated: 3
EndChar

StartChar: IJ
Encoding: 358 306 102
Width: 1000
Flags: W
LayerCount: 2
Fore
SplineSet
-237 1053 m 5
 -249 1008 l 1029
EndSplineSet
Validated: 3
EndChar

StartChar: ij
Encoding: 359 307 103
Width: 1000
Flags: W
LayerCount: 2
Fore
SplineSet
-237 1053 m 5
 -249 1008 l 1029
EndSplineSet
Validated: 3
EndChar

StartChar: Jcircumflex
Encoding: 360 308 104
Width: 1000
Flags: W
LayerCount: 2
Fore
SplineSet
-237 1053 m 5
 -249 1008 l 1029
EndSplineSet
Validated: 3
EndChar

StartChar: jcircumflex
Encoding: 361 309 105
Width: 1000
Flags: W
LayerCount: 2
Fore
SplineSet
-237 1053 m 5
 -249 1008 l 1029
EndSplineSet
Validated: 3
EndChar

StartChar: uni0136
Encoding: 362 310 106
Width: 1000
Flags: W
LayerCount: 2
Fore
SplineSet
-237 1053 m 5
 -249 1008 l 1029
EndSplineSet
Validated: 3
EndChar

StartChar: uni0137
Encoding: 363 311 107
Width: 1000
Flags: W
LayerCount: 2
Fore
SplineSet
-237 1053 m 5
 -249 1008 l 1029
EndSplineSet
Validated: 3
EndChar

StartChar: kgreenlandic
Encoding: 364 312 108
Width: 1000
Flags: W
LayerCount: 2
Fore
SplineSet
-237 1053 m 5
 -249 1008 l 1029
EndSplineSet
Validated: 3
EndChar

StartChar: Lacute
Encoding: 365 313 109
Width: 1000
Flags: W
LayerCount: 2
Fore
SplineSet
-237 1053 m 5
 -249 1008 l 1029
EndSplineSet
Validated: 3
EndChar

StartChar: lacute
Encoding: 366 314 110
Width: 1000
Flags: W
LayerCount: 2
Fore
SplineSet
-237 1053 m 5
 -249 1008 l 1029
EndSplineSet
Validated: 3
EndChar

StartChar: uni013B
Encoding: 367 315 111
Width: 1000
Flags: W
LayerCount: 2
Fore
SplineSet
-237 1053 m 5
 -249 1008 l 1029
EndSplineSet
Validated: 3
EndChar

StartChar: uni013C
Encoding: 368 316 112
Width: 1000
Flags: W
LayerCount: 2
Fore
SplineSet
-237 1053 m 5
 -249 1008 l 1029
EndSplineSet
Validated: 3
EndChar

StartChar: Lcaron
Encoding: 369 317 113
Width: 1000
Flags: W
LayerCount: 2
Fore
SplineSet
-237 1053 m 5
 -249 1008 l 1029
EndSplineSet
Validated: 3
EndChar

StartChar: lcaron
Encoding: 370 318 114
Width: 1000
Flags: W
LayerCount: 2
Fore
SplineSet
-237 1053 m 5
 -249 1008 l 1029
EndSplineSet
Validated: 3
EndChar

StartChar: Ldot
Encoding: 371 319 115
Width: 1000
Flags: W
LayerCount: 2
Fore
SplineSet
-237 1053 m 5
 -249 1008 l 1029
EndSplineSet
Validated: 3
EndChar

StartChar: ldot
Encoding: 372 320 116
Width: 1000
Flags: W
LayerCount: 2
Fore
SplineSet
-237 1053 m 5
 -249 1008 l 1029
EndSplineSet
Validated: 3
EndChar

StartChar: Lslash
Encoding: 373 321 117
Width: 1000
Flags: W
LayerCount: 2
Fore
SplineSet
-237 1053 m 5
 -249 1008 l 1029
EndSplineSet
Validated: 3
EndChar

StartChar: lslash
Encoding: 374 322 118
Width: 1000
Flags: W
LayerCount: 2
Fore
SplineSet
-237 1053 m 5
 -249 1008 l 1029
EndSplineSet
Validated: 3
EndChar

StartChar: Nacute
Encoding: 375 323 119
Width: 1000
Flags: W
LayerCount: 2
Fore
SplineSet
-237 1053 m 5
 -249 1008 l 1029
EndSplineSet
Validated: 3
EndChar

StartChar: uni0145
Encoding: 377 325 121
Width: 1000
Flags: W
LayerCount: 2
Fore
SplineSet
-237 1053 m 5
 -249 1008 l 1029
EndSplineSet
Validated: 3
EndChar

StartChar: uni0146
Encoding: 378 326 122
Width: 1000
Flags: W
LayerCount: 2
Fore
SplineSet
-237 1053 m 5
 -249 1008 l 1029
EndSplineSet
Validated: 3
EndChar

StartChar: Ncaron
Encoding: 379 327 123
Width: 1000
Flags: W
LayerCount: 2
Fore
SplineSet
-237 1053 m 5
 -249 1008 l 1029
EndSplineSet
Validated: 3
EndChar

StartChar: ncaron
Encoding: 380 328 124
Width: 1000
Flags: W
LayerCount: 2
Fore
SplineSet
-237 1053 m 5
 -249 1008 l 1029
EndSplineSet
Validated: 3
EndChar

StartChar: napostrophe
Encoding: 381 329 125
Width: 1000
Flags: W
LayerCount: 2
Fore
SplineSet
-237 1053 m 5
 -249 1008 l 1029
EndSplineSet
Validated: 3
EndChar

StartChar: Eng
Encoding: 382 330 126
Width: 410
UnlinkRmOvrlpSave: 1
Flags: W
HStem: 0 40<50 255.557> 150 20<290.004 370.002> 541.117 21G<311.2 345.688> 675.653 84.3467<116.765 183.825>
VStem: 40 80<150 675.653 731.227 760> 290.002 80<71.7773 760>
LayerCount: 2
Back
SplineSet
290 20 m 13
 290 -63 l 5
 290 -65 l 6
 290 -89.83984375 269.840820312 -110 245.001953125 -110 c 6
 49.998046875 -110 l 5
 49.998046875 -150 l 5
 325.001953125 -150 l 4
 349.840820312 -150 370 -129.83984375 370 -105 c 6
 370 20 l 5
 290 20 l 13
EndSplineSet
Fore
SplineSet
355.00390625 574.732421875 m 9
 332.00390625 541.1171875 l 1
 223.06640625 645.84375 l 2
 203.828125 664.353515625 178.064453125 675.653320312 149.764648438 675.653320312 c 2
 116.764648438 675.653320312 l 1
 78.2177734375 731.2265625 l 1
 106.00390625 760 l 1
 120.00390625 760 l 2
 148.303710938 760 174.067382812 748.700195312 193.305664062 730.190429688 c 0
 247.185546875 678.3515625 301.140625 626.587890625 355.00390625 574.732421875 c 9
290.001953125 760 m 1
 370.001953125 760 l 1
 370.001953125 150 l 1
 290.001953125 150 l 1
 290.001953125 760 l 1
120 150 m 1
 40 150 l 1
 40 760 l 1
 120 760 l 1
 120 150 l 1
290.00390625 170 m 9
 370.00390625 170 l 17
 370.00390625 91 l 1
 370.00390625 90 l 2
 370 40 329.68359375 0 280.00390625 0 c 0
 50 0 l 1
 50 40 l 1
 200.00390625 40 l 2
 249.68359375 40 290 80 290.00390625 130 c 2
 290.00390625 131 l 1
 290.00390625 170 l 9
EndSplineSet
EndChar

StartChar: eng
Encoding: 383 331 127
Width: 370
UnlinkRmOvrlpSave: 1
Flags: W
HStem: -150 40<50 242.336> 0 21G<40 120 250 330> 436 84<87 153.6> 530 20G<269.286 310.714>
VStem: 40 80<0 436> 250 80<-103.03 20 0 532.5>
LayerCount: 2
Fore
SplineSet
330 20 m 0
 330 -54 l 1
 330 -60 l 0
 330 -110 290 -150 240 -150 c 0
 50 -150 l 1
 50 -110 l 1
 205 -110 l 2
 230 -110 250 -90 250 -65 c 2
 250 -63 l 1
 250 20 l 17
 330 20 l 0
EndSplineSet
Refer: 40 110 N 1 0 0 1 0 0 2
EndChar

StartChar: Omacron
Encoding: 384 332 128
Width: 1000
Flags: W
LayerCount: 2
Fore
SplineSet
-237 1053 m 5
 -249 1008 l 1029
EndSplineSet
Validated: 3
EndChar

StartChar: omacron
Encoding: 385 333 129
Width: 1000
Flags: W
LayerCount: 2
Fore
SplineSet
-237 1053 m 5
 -249 1008 l 1029
EndSplineSet
Validated: 3
EndChar

StartChar: Obreve
Encoding: 386 334 130
Width: 1000
Flags: W
LayerCount: 2
Fore
SplineSet
-237 1053 m 5
 -249 1008 l 1029
EndSplineSet
Validated: 3
EndChar

StartChar: obreve
Encoding: 387 335 131
Width: 1000
Flags: W
LayerCount: 2
Fore
SplineSet
-237 1053 m 5
 -249 1008 l 1029
EndSplineSet
Validated: 3
EndChar

StartChar: Ohungarumlaut
Encoding: 388 336 132
Width: 1000
Flags: W
LayerCount: 2
Fore
SplineSet
-237 1053 m 5
 -249 1008 l 1029
EndSplineSet
Validated: 3
EndChar

StartChar: ohungarumlaut
Encoding: 389 337 133
Width: 1000
Flags: W
LayerCount: 2
Fore
SplineSet
-237 1053 m 5
 -249 1008 l 1029
EndSplineSet
Validated: 3
EndChar

StartChar: OE
Encoding: 390 338 134
Width: 660
UnlinkRmOvrlpSave: 1
Flags: W
HStem: 0 40<377.646 620> 240 40<370 575> 720 40<370 620>
VStem: 40 80<72.8057 687.194> 290 80<82 240 280 678> 306 54<40 720>
LayerCount: 2
Fore
SplineSet
120 630 m 0xf8
 120 130 l 2
 120 82 158 43 205 40 c 1
 252 43 290 82 290 130 c 0
 290 630 l 2
 290 678 252 717 205 720 c 1
 158 717 120 678 120 630 c 0xf8
40 90 m 0
 40 670 l 2
 40 720 80 760 130 760 c 2
 270 760 l 2
 320 760 360 720 360 670 c 0
 360 90 l 0xf4
 360 40 320 0 270 0 c 0
 130 0 l 2
 80 0 40 40 40 90 c 0
306 715 m 0
 306 740 326 760 351 760 c 0
 361 760 l 1
 620 760 l 1
 620 720 l 1
 370 720 l 1
 370 280 l 1
 575 280 l 1
 575 240 l 1
 370 240 l 1
 370 85 l 0xf8
 370 60 390 40 415 40 c 2
 620 40 l 1
 620 0 l 1
 352 0 l 2
 327 0 307 20 307 45 c 2
 306 710 l 1
 306 715 l 0
EndSplineSet
EndChar

StartChar: oe
Encoding: 391 339 135
Width: 500
UnlinkRmOvrlpSave: 1
Flags: W
HStem: 0 40<128.695 199.25 297.646 460> 240 40<290 380> 480 40<128.695 199.25 297.33 372.077>
VStem: 40 80<46.9702 473.03> 210 80<82 240 280 438> 230 50<40 480> 380 80<280 473.818>
CounterMasks: 1 e0
LayerCount: 2
Fore
SplineSet
334 480 m 2xfa
 309 480 290 460 290 435 c 2
 290 280 l 1
 335 280 l 17
 380 280 l 1
 380 431 l 1
 380 434 l 2
 380 459 361 480 336 480 c 2
 334 480 l 2xfa
275 520 m 2
 276 520 l 1
 415 520 l 2
 440 520 460 500 460 475 c 2
 460 472 l 1
 460 240 l 17
 415 240 l 1
 290 240 l 1
 290 85 l 2xfa
 290 60 310 40 335 40 c 2
 460 40 l 1
 460 0 l 1
 276 0 l 1
 275 0 l 2
 250 0 230 20 230 45 c 2
 230 46 l 1
 230 474 l 1
 230 475 l 2xf6
 230 500 250 520 275 520 c 2
40 90 m 2
 40 430 l 2
 40 480 80 520 130 520 c 2
 189 520 l 1
 190 520 l 2
 240 520 280 480 280 430 c 2
 280 429 l 1
 280 91 l 1
 280 90 l 2xf6
 280 40 240 0 190 0 c 2
 189 0 l 1
 130 0 l 2
 80 0 40 40 40 90 c 2
120 390 m 2
 120 130 l 2
 120 82 120 40 165 40 c 0
 210 40 210 82 210 130 c 2
 210 390 l 2xfa
 210 438 210 480 165 480 c 0
 120 480 120 438 120 390 c 2
EndSplineSet
EndChar

StartChar: Racute
Encoding: 392 340 136
Width: 1000
Flags: W
LayerCount: 2
Fore
SplineSet
-237 1053 m 1
 -249 1008 l 1025
EndSplineSet
Validated: 3
EndChar

StartChar: racute
Encoding: 393 341 137
Width: 1000
Flags: W
LayerCount: 2
Fore
SplineSet
-237 1053 m 5
 -249 1008 l 1029
EndSplineSet
Validated: 3
EndChar

StartChar: uni0156
Encoding: 394 342 138
Width: 1000
Flags: W
LayerCount: 2
Fore
SplineSet
-237 1053 m 5
 -249 1008 l 1029
EndSplineSet
Validated: 3
EndChar

StartChar: uni0157
Encoding: 395 343 139
Width: 1000
Flags: W
LayerCount: 2
Fore
SplineSet
-237 1053 m 5
 -249 1008 l 1029
EndSplineSet
Validated: 3
EndChar

StartChar: Rcaron
Encoding: 396 344 140
Width: 1000
Flags: W
LayerCount: 2
Fore
SplineSet
-237 1053 m 5
 -249 1008 l 1029
EndSplineSet
Validated: 3
EndChar

StartChar: rcaron
Encoding: 397 345 141
Width: 1000
Flags: W
LayerCount: 2
Fore
SplineSet
-237 1053 m 5
 -249 1008 l 1029
EndSplineSet
Validated: 3
EndChar

StartChar: Sacute
Encoding: 398 346 142
Width: 1000
Flags: W
LayerCount: 2
Fore
SplineSet
-237 1053 m 5
 -249 1008 l 1029
EndSplineSet
Validated: 3
EndChar

StartChar: uni01A9
Encoding: 399 425 143
Width: 410
UnlinkRmOvrlpSave: 1
Flags: W
HStem: 0 84.999<325 363.482> 0 40<127.688 164.994 245 282.311> 675.001 84.999<325 363.482> 720 40<127.688 164.994 245 282.311>
VStem: 40 80<46.4805 84.999 114 162.68 600.053 713.519> 247 15.8115<343.596 414.065> 290 80<46.5176 84.999 675.001 713.482>
LayerCount: 2
Back
SplineSet
190.00390625 400 m 5
 265.00390625 400 l 5
 285.271484375 380.001953125 l 5
 265.00390625 360 l 5
 190.00390625 360 l 5
 190.00390625 400 l 5
232.271484375 380.001953125 m 1029
120 84.9990234375 m 2
 120 60 140.157226562 40 164.994140625 40 c 2
 245 40 l 2
 269.83984375 40 290 60.1591796875 290 84.9990234375 c 1
 370 84.9990234375 l 1
 370 44.9990234375 l 2
 370 20.1591796875 349.83984375 0 325 0 c 2
 325 0 325 0 84.994140625 0 c 0
 60.1572265625 0 40 20.1591796875 40 44.9990234375 c 2
 39.99609375 47 l 1
 39.99609375 49 l 0
 39.99609375 108 57.443359375 133 74.5712890625 159.6328125 c 0
 112.150390625 218.065429688 120.041015625 230.001953125 127.8359375 242 c 0
 155.8046875 285.049804688 183.793945312 328.0859375 211.7421875 371.1484375 c 0
 226.276367188 393.54296875 260.99609375 420 286.99609375 420 c 2
 289.99609375 420 l 1
 290 419.997070312 l 1
 310 420 l 1
 340 420 l 1
 340 380 l 1
 340 340 l 1
 339 340 l 1
 335 340 l 0
 332 340 l 2
 303.444335938 340 239.663085938 339.837890625 206 288 c 2
 145.005859375 194.645507812 l 2
 121.098632812 158.0546875 120 135 119.998046875 87.4892578125 c 2
 120 87 l 25
 120 86 l 25
 120 84.9990234375 l 2
120 675.000976562 m 2
 120 674 l 25
 120 673 l 25
 119.998046875 672.510742188 l 2
 120 625 121.098809698 601.945391894 145.005859375 565.354492188 c 2
 206 472 l 2
 239.663085938 420.162109375 303.443896622 420 332 420 c 2
 335 420 l 0
 339 420 l 1
 340 420 l 1
 340 380 l 1
 340 340 l 1
 310 340 l 1
 290 340.002929688 l 1
 289.99609375 340 l 1
 286.99609375 340 l 2
 260.99609375 340 226.276525195 366.457133799 211.7421875 388.8515625 c 0
 183.793945312 431.9140625 155.804532001 474.950369326 127.8359375 518 c 0
 120.041015625 529.998046875 112.149940956 541.934837056 74.5712890625 600.3671875 c 0
 57.443359375 627 39.99609375 652 39.99609375 711 c 0
 39.99609375 713 l 1
 40 715.000976562 l 2
 40 739.840820312 60.1572265625 760 84.994140625 760 c 0
 325 760 325 760 325 760 c 2
 349.83984375 760 370 739.840820312 370 715.000976562 c 2
 370 675.000976562 l 1
 290 675.000976562 l 1
 290 699.840820312 269.83984375 720 245 720 c 2
 164.994140625 720 l 2
 140.157226562 720 120 700 120 675.000976562 c 2
40 715.000976562 m 2
 40 739.840820312 60.1572265625 760 84.994140625 760 c 0
 325 760 325 760 325 760 c 2
 349.83984375 760 370 739.840820312 370 715.000976562 c 2
 370 675.000976562 l 1
 290 675.000976562 l 1
 290 699.840820312 269.83984375 720 245 720 c 2
 164.994140625 720 l 2
 140.157226562 720 120 699.840820312 120 675.000976562 c 1026
EndSplineSet
Fore
SplineSet
246 424 m 25x0e
 247 335 l 25
 291 379 l 25
 246 424 l 25x0e
40 89 m 1
 39.99609375 49 l 0
 39.99609375 47 l 1
 40 44.9990234375 l 2
 40 20.1591796875 60.1572265625 0 84.994140625 0 c 0x5e
 325 0 325 0 325 0 c 2
 349.83984375 0 370 20.1591796875 370 44.9990234375 c 2
 370 84.9990234375 l 1
 290 84.9990234375 l 1x8e
 290 60.1591796875 269.83984375 40 245 40 c 2
 164.994140625 40 l 2x4e
 140.157226562 40 120 60 120 84.9990234375 c 2
 120 86 l 17
 120 89 l 1
 120.173828125 126.880859375 l 1
 120.173828125 143.880859375 l 2
 120.173828125 158 120.639019327 170.370751705 139.8046875 189.536132812 c 2
 205.00390625 254.734375 l 1
 329.998046875 380 l 1
 205.00390625 505.26953125 l 1
 145.138671875 565.133789062 l 2
 120.636033586 589.636027648 120.00390625 607 120.00390625 637 c 2
 120.00390625 657 l 1
 120 670 l 1
 120 674 l 9
 120 675.000976562 l 2xae
 120 700 140.157226562 720 164.994140625 720 c 2
 245 720 l 2x1e
 269.83984375 720 290 699.840820312 290 675.000976562 c 1
 370 675.000976562 l 1
 370 715.000976562 l 2
 370 739.840820312 349.83984375 760 325 760 c 2x2e
 325 760 325 760 84.994140625 760 c 0x1e
 60.1572265625 760 40 739.840820312 40 715.000976562 c 2
 39.99609375 713 l 1
 40 700.000976562 l 1
 40.00390625 688.12890625 l 1
 40.00390625 683 l 2
 40.00390625 641.64453125 53.37109375 605.087890625 73.888671875 583.841796875 c 0
 129.9296875 525.80859375 130.368287894 525.368953585 130.403320312 525.333984375 c 2
 276 380 l 1
 128.403320312 232.669921875 l 2
 128.366334364 232.633002734 127.475585938 231.7421875 70.9931640625 173.251953125 c 0
 51.6123046875 153.182617188 40.00390625 130 40 114 c 2
 40 106 l 1
 40 89 l 1
182.0078125 484.836914062 m 1
 182.0078125 474.318359375 l 1
 210.057617188 446.268554688 l 2
 228.461914062 427.86328125 238.288085938 404.11328125 239.53515625 380 c 0
 238.288085938 355.88671875 228.461914062 332.13671875 210.057617188 313.731445312 c 2
 184.111328125 287.78515625 l 1
 184.111328125 277.266601562 l 1
 207.252929688 277.266601562 l 1
 233.19921875 303.212890625 l 2
 252.94140625 322.955078125 262.811523438 348.84765625 262.811523438 374.740234375 c 2
 262.811523438 385.259765625 l 2
 262.811523438 411.15234375 252.94140625 437.044921875 233.19921875 456.787109375 c 2
 205.149414062 484.836914062 l 1
 182.0078125 484.836914062 l 1
EndSplineSet
EndChar

StartChar: uni0195
Encoding: 400 405 144
Width: 500
UnlinkRmOvrlpSave: 1
Flags: W
HStem: 0 40<210 278> 480 40<133.408 196.177> 531 20G<399.286 440.714> 720 20G<40 120>
VStem: 40 80<0 471.786 513 740> 210 80<40 471.697> 380 80<145.959 533.5>
CounterMasks: 1 0e
LayerCount: 2
Back
SplineSet
250 40 m 2
 278 40 290 47 308 65 c 2
 355 112 l 2
 378 134 380 155 380 184 c 2
 380 520 l 1
 460 520 l 1
 460 210 l 2
 460 180 455 162 426 131 c 2
 340 40 l 2
 315 14 282 0 250 0 c 2
 210 0 l 1
 210 40 l 1
 250 40 l 2
40 740 m 1
 120 740 l 1
 120 513 l 1
 127 517 141 520 155 520 c 2
 175 520 l 2
 244 520 290 474 290 395 c 2
 290 0 l 1
 210 0 l 1
 210 365 l 2
 210 452 196 480 165 480 c 3
 133 480 120 452 120 365 c 2
 120 0 l 1
 40 0 l 1
 40 740 l 1
EndSplineSet
Fore
SplineSet
460 500 m 9
 380 500 l 17
 380 508 384 517 391 523 c 1
 420 551 l 1
 449 523 l 2
 456 517 460 508 460 500 c 9
250 40 m 2
 278 40 290 47 308 65 c 2
 355 112 l 2
 378 134 380 155 380 184 c 2
 380 500 l 1
 460 500 l 1
 460 210 l 2
 460 180 455 162 426 131 c 2
 340 40 l 2
 315 14 282 0 250 0 c 2
 210 0 l 1
 210 40 l 1
 250 40 l 2
40 740 m 1
 120 740 l 1
 120 513 l 1
 127 517 141 520 155 520 c 2
 175 520 l 2
 244 520 290 474 290 395 c 2
 290 40 l 1
 290 10 l 1
 245 0 l 1
 210 0 l 1
 210 365 l 2
 210 452 196 480 165 480 c 3
 133 480 120 452 120 365 c 2
 120 0 l 1
 40 0 l 1
 40 740 l 1
EndSplineSet
EndChar

StartChar: uni021C
Encoding: 401 540 145
Width: 410
Flags: W
HStem: 0 40<40 255.689> 240 40<120 255.073> 675 85<46.4806 120> 720 40<127.646 255.689>
VStem: 40 80<675 713.519> 290 80<71.7773 209.018 312.629 688.223>
LayerCount: 2
Fore
SplineSet
176 720 m 1xdc
 165 720 l 0xdc
 140 720 120 700 120 675 c 1
 40 675 l 1
 40 715 l 2
 40 740 60 760 85 760 c 2
 95 760 l 1xec
 280 760 l 2
 330 760 370 720 370 670 c 0
 370 330 370 330 370 330 c 2
 370 302 357 277 336 260 c 1
 357 243 370 218 370 190 c 2
 370 90 l 2
 370 40 330 0 280 0 c 0
 40 0 l 1
 40 40 l 1
 120 40 l 1
 200 40 l 2
 250 40 290 81 290 130 c 0
 290 137 290 143 290 150 c 0
 290 200 250 240 200 240 c 0
 120 240 l 1
 120 280 l 1
 199 280 l 0
 249 280 290 320 290 370 c 2
 290 630 l 2
 290 680 250 720 200 720 c 2
 176 720 l 1xdc
EndSplineSet
Validated: 1
EndChar

StartChar: uni021D
Encoding: 402 541 146
Width: 330
UnlinkRmOvrlpSave: 1
Flags: W
HStem: -150 40<165 202.336> 479 41<127.664 164 166 202.336>
VStem: 40 80<430 471.102> 210 80<-103.03 -60 100 142.818 180.178 240 430 472.818>
LayerCount: 2
Back
SplineSet
166.013671875 480 m 1xdc
 154.801757812 480 l 0
 130.059570312 479.885742188 120.013671875 459.770507812 120.013671875 435.000976562 c 1xec
 40.013671875 435.000976562 l 1
 40.013671875 475.000976562 l 2
 40.013671875 499.840820312 60.173828125 519.998046875 85.013671875 519.999023438 c 2
 131.013671875 520 l 1xdc
 200.013671875 520 l 2
 249.692382812 520 290.01171875 479.677734375 290.01171875 429.995117188 c 0
 290.01171875 90 290.01171875 90 290.01171875 90 c 2
 290.01171875 61.8232421875 276.897460938 36.658203125 256.37890625 20.15234375 c 1
 276.8828125 3.6513671875 290.01171875 -21.6494140625 290.01171875 -50 c 2
 290.01171875 -60.00390625 l 2
 290.01171875 -109.681640625 249.692382812 -150 200.013671875 -150 c 0
 40.013671875 -150 l 1
 40.013671875 -110 l 1
 100.013671875 -110 l 1
 160.013671875 -110 l 2
 187.61328125 -110 210.012695312 -87.8193359375 210.012695312 -60.4892578125 c 0
 210.012695312 -53.66015625 210.01171875 -56.830078125 210.01171875 -50 c 0
 210.01171875 -22.3984375 187.612304688 0.0029296875 160.013671875 0.0029296875 c 0
 120.012695312 0.0029296875 l 1
 120.012695312 40.00390625 l 1
 159.013671875 40.005859375 l 0
 209.24609375 40.005859375 210.01171875 80.3232421875 210.01171875 130 c 2
 210.01171875 389.995117188 l 2
 210.01171875 439.677734375 219.692382812 480 170.013671875 480 c 2
 166.013671875 480 l 1xdc
EndSplineSet
Fore
SplineSet
210 103 m 2
 210 94 l 1
 210 -65 l 2
 210 -90 190 -110 165 -110 c 2
 50 -110 l 1
 50 -150 l 1
 200 -150 l 2
 250 -150 290 -110 290 -60 c 2
 290 100 l 2
 290 128 277 154 257 170 c 1
 251 175 l 1
 210 175 l 1
 200 169 l 1
 165 149 l 1
 166 149 l 2
 191 149 210 128 210 103 c 2
210 251 m 1
 210 218 l 2
 210 190 195.190429688 172.213867188 172.254882812 158.228515625 c 2
 79 101.36328125 l 1
 99.5703125 67.703125 l 1
 253.081054688 168.059570312 l 1
 256.02734375 170.049804688 l 2
 280.309570312 186.452148438 290 207 290 240 c 2
 290 262 l 1
 290 287 l 2
 290 430 l 2
 290 479.6796875 250 520 200 520 c 2
 130 520 l 2
 80 520 40 480 40 430 c 1
 120 430 l 1
 120 433 l 2
 120 458 139 479 164 479 c 2
 166 479 l 2
 191 479 210 458 210 433 c 2
 210 251 l 1
EndSplineSet
EndChar

StartChar: uni0222
Encoding: 403 546 147
Width: 410
UnlinkRmOvrlpSave: 1
Flags: W
HStem: 3.55271e-15 21G<105.16 304.844> 3.55271e-15 21G<105.16 304.844> 370 20<80.3203 329.682> 740 20G<40 119.996 290 370> 740 20G<40 119.996 290 370>
VStem: 40 79.9961<71.8693 318.127 441.869 760> 290 80<71.8693 318.127 441.869 760>
LayerCount: 2
Fore
SplineSet
290 760 m 1x36
 370 760 l 1
 370 460 l 2
 370 410.3203125 329.681640625 370 280.00390625 370 c 0
 130 370 l 2
 80.3203125 370 40 410.319335938 40 460 c 0
 40 760 l 1
 119.99609375 760 l 1
 119.99609375 500 l 2
 119.99609375 451.99609375 157.643554688 412.733398438 205.001953125 410.13671875 c 1
 252.357421875 412.733398438 290 451.997070312 290 500 c 0
 290 760 l 1x36
120 259.995117188 m 0
 120 130 l 2
 120 81.9973925157 157.644006195 42.7329209396 205.001948655 40.1366549449 c 1
 252.35989533 42.732916243 290.00390625 81.9973897401 290.00390625 130 c 0
 290.00390625 259.995117188 l 2
 290.00390625 308.000976562 252.360351562 347.266601562 205.001953125 349.86328125 c 1
 157.643554688 347.266601562 120 308.000976562 120 259.995117188 c 0
40 90 m 0
 40 299.995117188 l 2
 40 349.677734375 80.3203125 390 130 390 c 2
 280.00390625 390 l 2
 329.68359375 390 370.00390625 349.677734375 370.00390625 299.995117188 c 0
 370.00390625 90 l 2
 370.00390625 40.3203125 329.68359375 3.5527136788e-15 280.00390625 3.5527136788e-15 c 0
 130 3.5527136788e-15 l 2xa6
 80.3203125 3.5527136788e-15 40 40.3203125 40 90 c 0
EndSplineSet
EndChar

StartChar: uni0223
Encoding: 404 547 148
Width: 310
UnlinkRmOvrlpSave: 1
Flags: W
HStem: 0 40<118.695 191.305> 235 50<110 200> 245 30<70 240> 500 20G<30 110 200 280>
VStem: 30 80<46.9702 228.03 291.97 520> 200 80<46.9702 228.03 291.97 520>
LayerCount: 2
Fore
SplineSet
30 90 m 2xbc
 30 185 l 2
 30 235 70 275 120 275 c 2
 190 275 l 2
 240 275 280 235 280 185 c 2
 280 90 l 2
 280 40 240 0 190 0 c 2
 120 0 l 2
 70 0 30 40 30 90 c 2xbc
110 145 m 2
 110 130 l 2
 110 82 110 40 155 40 c 0
 200 40 200 82 200 130 c 2
 200 145 l 2
 200 193 200 235 155 235 c 0xdc
 110 235 110 193 110 145 c 2
280 520 m 1
 280 335 l 2
 280 285 240 245 190 245 c 2
 120 245 l 2xbc
 70 245 30 285 30 335 c 2
 30 520 l 1
 110 520 l 9
 110 375 l 2
 110 327 110 285 155 285 c 0
 200 285 200 327 200 375 c 2
 200 520 l 17
 280 520 l 1
EndSplineSet
EndChar

StartChar: uni01F6
Encoding: 405 502 149
Width: 580
UnlinkRmOvrlpSave: 1
Flags: W
HStem: 0 21G<40 120 249.984 329.984> 240 40<120 250.002> 740 20G<40 120 459.998 539.998>
VStem: 40 80<0 240 280 760> 250.002 79.9824<5 6.58691 35.1328 240 280 650> 460 80<187.872 760>
LayerCount: 2
Back
SplineSet
40 760 m 5
 120 760 l 5
 120 400 l 5
 250.001953125 400 l 5
 250.001953125 650 l 5
 330.001953125 650 l 5
 330.001953125 50 l 1
 363 34 l 1
 283 34 l 1
 250.001953125 95 l 1
 250.001953125 360 l 5
 120 360 l 5
 120 0 l 5
 40 0 l 5
 40 760 l 5
460 760 m 1
 540 760 l 1
 540 90 l 2
 540 40.3203125 499.681640625 0 450.00390625 0 c 0
 300 0 340 0 340 0 c 2
 290.3203125 0 250 40.3193359375 250 90 c 0
 250 760 250 650 250 650 c 5
 329.99609375 650 l 5
 329.99609375 130 l 2
 329.99609375 81.99609375 347.643554688 42.7333984375 395.001953125 40.13671875 c 1
 442.357421875 42.7333984375 460 81.9970703125 460 130 c 0
 460 760 460 760 460 760 c 1
EndSplineSet
Fore
SplineSet
329.984375 5 m 1
 290 0 l 1
 249.984375 0 l 1
 250.001953125 240 l 1
 120 240 l 1
 120 0 l 1
 40 0 l 1
 40 760 l 1
 120 760 l 1
 120 280 l 1
 250.001953125 280 l 1
 250.001953125 650 l 1
 330.001953125 650 l 1
 329.984375 5 l 1
288.99609375 6.5869140625 m 1
 317.149414062 35.43359375 300.055594514 18.3252648612 316.86328125 35.1328125 c 2
 434.865234375 153.133789062 l 1
 452 174 460 206 460 241 c 2
 460 245 l 1
 459.998046875 760 l 1
 539.998046875 760 l 1
 540 276.12890625 l 2
 540 271 l 2
 540 229.64453125 526.6328125 193.087890625 506.115234375 171.841796875 c 0
 450.07421875 113.80859375 450.075195312 113.807617188 449.600585938 113.333984375 c 2
 356.130859375 19.865234375 l 2
 342.994140625 6.728515625 326.11328125 0.0068359375 309.99609375 0 c 2
 291.99609375 0 l 1
 286.99609375 0 l 1
 287 6 l 1
 288.99609375 6.5869140625 l 1
EndSplineSet
EndChar

StartChar: uni0283
Encoding: 406 643 150
Width: 330
UnlinkRmOvrlpSave: 1
Flags: WO
HStem: -150 85<46.4806 85> -150 40<127.178 202.336> 480 40<127.664 202.822>
VStem: 40 80<-103.408 -65 354.762 430 431 473.408> 210 80<-103.408 -61 -60 114.738 401.5 473.408>
LayerCount: 2
Fore
SplineSet
290 435 m 13x38
 210 435 l 21
 210 427 214 418 221 412 c 5
 250 384 l 5
 279 412 l 6
 286 418 290 427 290 435 c 13x38
256 139.44140625 m 6
 138.375 319.33984375 l 6
 136.1606229 322.726564092 120 342 120 373 c 6
 120 404 l 5
 120 434 l 5
 120 435 l 6
 120 464 143 480 165 480 c 7
 187 480 210 464 210 435 c 5
 290 435 l 5
 290 475 l 6
 290 500 270 520 245 520 c 6
 130 520 l 6
 80 520 40 481 40 431 c 6
 40 430 l 6
 40 388.413863127 71.2203473329 335.24148474 74 331 c 6
 192.618164062 150 l 6
 209.001321024 125.000865732 210 95 210 2 c 6
 210 -34 l 5
 210 -64 l 5
 210 -65 l 6xb8
 210 -94 187 -110 165 -110 c 7x78
 143 -110 120 -94 120 -65 c 5
 40 -65 l 5
 40 -105 l 6
 40 -130 60 -150 85 -150 c 6xb8
 200 -150 l 4x78
 250 -150 290 -111 290 -61 c 6
 290 -60 l 6
 290 -19 289.726341541 87.8595474116 256 139.44140625 c 6
EndSplineSet
EndChar

StartChar: gravecomb
Encoding: 407 768 151
Width: 0
LayerCount: 2
Fore
SplineSet
-108 548 m 5
 -108 528 l 1029
EndSplineSet
Validated: 3
EndChar

StartChar: acutecomb
Encoding: 408 769 152
Width: 0
LayerCount: 2
Fore
SplineSet
-108 548 m 5
 -108 528 l 1029
EndSplineSet
Validated: 3
EndChar

StartChar: uni0302
Encoding: 409 770 153
Width: 0
LayerCount: 2
Fore
SplineSet
-108 548 m 5
 -108 528 l 1029
EndSplineSet
Validated: 3
EndChar

StartChar: tildecomb
Encoding: 410 771 154
Width: 0
LayerCount: 2
Fore
SplineSet
-108 548 m 5
 -108 528 l 1029
EndSplineSet
Validated: 3
EndChar

StartChar: uni0304
Encoding: 411 772 155
Width: 0
LayerCount: 2
Fore
SplineSet
-108 548 m 1
 -108 528 l 1025
EndSplineSet
Validated: 3
EndChar

StartChar: uni0306
Encoding: 412 774 156
Width: 0
LayerCount: 2
Fore
SplineSet
-108 548 m 5
 -108 528 l 1029
EndSplineSet
Validated: 3
EndChar

StartChar: uni0307
Encoding: 413 775 157
Width: 0
LayerCount: 2
Fore
SplineSet
-108 548 m 5
 -108 528 l 1029
EndSplineSet
Validated: 3
EndChar

StartChar: uni0308
Encoding: 414 776 158
Width: 0
LayerCount: 2
Fore
SplineSet
-108 548 m 5
 -108 528 l 1029
EndSplineSet
Validated: 3
EndChar

StartChar: uni030A
Encoding: 415 778 159
Width: 0
LayerCount: 2
Fore
SplineSet
-108 548 m 5
 -108 528 l 1029
EndSplineSet
Validated: 3
EndChar

StartChar: uni030C
Encoding: 416 780 160
Width: 0
LayerCount: 2
Fore
SplineSet
-108 548 m 5
 -108 528 l 1029
EndSplineSet
Validated: 3
EndChar

StartChar: uni0327
Encoding: 417 807 161
Width: 0
LayerCount: 2
Fore
SplineSet
-108 548 m 5
 -108 528 l 1029
EndSplineSet
Validated: 3
EndChar

StartChar: phi
Encoding: 418 966 162
Width: 440
UnlinkRmOvrlpSave: 1
Flags: W
HStem: 0 40<154.311 285.689> 480 40<154.311 285.689>
VStem: 40 80<71.7773 448.223> 180 80<-130 650> 320 80<71.7773 448.223>
CounterMasks: 1 38
LayerCount: 2
Back
Refer: 163 934 N 1 0 0 1 0 0 2
Fore
SplineSet
180 -130 m 9
 180 650 l 1
 260 650 l 1
 260 -130 l 1
 180 -130 l 9
233 0 m 2
 208 0 l 2
 130 0 l 0
 80 0 40 40 40 90 c 0
 40 430 l 0
 40 480 80 520 130 520 c 0
 207 520 l 1
 233 520 l 1
 310 520 l 0
 360 520 400 480 400 430 c 0
 400 90 l 0
 400 40 360 0 310 0 c 0
 233 0 l 2
210 40 m 0
 230 40 l 0
 280 40 320 80 320 130 c 0
 320 390 l 0
 320 440 280 480 230 480 c 0
 210 480 l 0
 160 480 120 440 120 390 c 0
 120 130 l 0
 120 80 160 40 210 40 c 0
EndSplineSet
EndChar

StartChar: Phi
Encoding: 419 934 163
Width: 440
UnlinkRmOvrlpSave: 1
Flags: W
HStem: 90 40<154.311 285.689> 630 40<154.311 285.689>
VStem: 40 80<161.777 598.223> 180 80<0 110 112 655 658 760> 320 80<161.777 598.223>
CounterMasks: 1 38
LayerCount: 2
Back
SplineSet
210 132 m 1
 209.99609375 130 l 0
 160.31640625 130 119.99609375 170.3203125 119.99609375 220 c 0
 119.99609375 539.995117188 l 0
 119.99609375 589.677734375 160.31640625 630 209.99609375 630 c 0
 210 628 l 1
 210 132 l 1
210 90 m 9
 210 0 l 17
 290 0 l 1
 290 90 l 1
 370.00390625 90 l 0
 419.68359375 90 460.00390625 130.3203125 460.00390625 180 c 0
 460.00390625 579.995117188 l 0
 460.00390625 629.677734375 419.68359375 670 370.00390625 670 c 0
 290 670 l 1
 290 760 l 1
 210 760 l 1
 210 670 l 1
 129.99609375 670 l 0
 80.31640625 670 39.99609375 629.677734375 39.99609375 579.995117188 c 0
 39.99609375 180 l 0
 39.99609375 130.3203125 80.31640625 90 129.99609375 90 c 0
 210 90 l 9
290 628 m 1
 290.00390625 630 l 0
 339.68359375 630 380.00390625 589.677734375 380.00390625 539.995117188 c 0
 380.00390625 220 l 0
 380.00390625 170.3203125 339.68359375 130 290.00390625 130 c 0
 290 132 l 1
 290 628 l 1
600 630 m 1x33
 600 130 l 1
 680.00390625 130 l 2
 729.68359375 130 770.00390625 170.3203125 770.00390625 220 c 2
 770.00390625 539.995117188 l 2
 770.00390625 589.677734375 729.68359375 630 680.00390625 630 c 2
 600 630 l 1x33
520 760 m 1xbb
 600 760 l 1
 600 670 l 1
 760.00390625 670 l 2
 809.68359375 670 850.00390625 629.677734375 850.00390625 579.995117188 c 0
 850.00390625 180 l 2
 850.00390625 130.3203125 809.68359375 90 760.00390625 90 c 0
 600 90 l 1
 600 0 l 1
 520 0 l 1
 520 760 l 1xbb
EndSplineSet
Fore
SplineSet
180 0 m 1
 180 110 l 1
 185 112 l 1
 185 656 l 1
 180 658 l 1
 180 760 l 1
 260 760 l 1
 260 657 l 1
 255 655 l 1
 255 112 l 1
 260 110 l 1
 260 0 l 1
 180 0 l 1
233 90 m 2
 208 90 l 2
 130 90 l 0
 80 90 40 130 40 180 c 0
 40 580 l 0
 40 630 80 670 130 670 c 0
 207 670 l 1
 233 670 l 1
 310 670 l 0
 360 670 400 630 400 580 c 0
 400 180 l 0
 400 130 360 90 310 90 c 0
 233 90 l 2
210 130 m 0
 230 130 l 0
 280 130 320 170 320 220 c 0
 320 540 l 0
 320 590 280 630 230 630 c 0
 210 630 l 0
 160 630 120 590 120 540 c 0
 120 220 l 0
 120 170 160 130 210 130 c 0
EndSplineSet
EndChar

StartChar: uni0539
Encoding: 420 1337 164
Width: 410
UnlinkRmOvrlpSave: 1
Flags: W
HStem: 0 21G<39.998 119.998 39.998 119.998 290 370 290 370> 0 41<237.409 330> 360 40<237.646 330> 721 39G<39.998 119.998 290 370> 740 20G<39.998 119.998 290 370>
VStem: 39.998 80<0 760> 170 60<48.8977 353.519> 290 80<0 696.459 697 760>
LayerCount: 2
Fore
SplineSet
330 0 m 0xa7
 260 0 l 0
 210 0 170 40 170 90 c 0
 170 106 l 0
 170 355 l 2
 170 380 190 400 215 400 c 0
 330 400 l 1
 330 360 l 1
 275 360 l 2
 250 360 230 340 230 315 c 2
 230 105 l 2
 230 97 l 1
 230 88 l 1
 230 87 l 2
 230 62 249 41 274 41 c 2
 330 41 l 1x67
 330 0 l 0xa7
EndSplineSet
Refer: 260 1048 N 1 0 0 1 0 0 2
EndChar

StartChar: uni0569
Encoding: 421 1385 165
Width: 370
UnlinkRmOvrlpSave: 1
Flags: W
HStem: 0 41<220.367 315> 205 40<219.686 315> 520 10G<40 120 268.95 311.052>
VStem: 40 80<0 520> 154.998 57<47.1122 198.482> 250.002 80<41 205 245 455.459 456 532.646> 250.002 65.002<0 33 35 41 205 210 211 245>
LayerCount: 2
Fore
SplineSet
330 498 m 0xf8
 329.735351562 487.444335938 321.166015625 470.807617188 307.052734375 456 c 1
 306.537109375 455.458984375 l 0
 254.698242188 401.579101562 117.85546875 259.86328125 66 206 c 1
 59 260.002929688 l 1
 218.190429688 425.698242188 l 2
 230.233398438 438.233398438 250 470.700195312 250 499 c 0
 250 500 l 9
 330 500 l 25
 330 498 l 0xf8
260.776367188 522.234375 m 1
 290 550 l 1
 319.224609375 522.236328125 l 2
 326.060546875 515.759765625 330.001953125 508.146484375 330.001953125 500 c 1
 330.001953125 0 l 1xfc
 250.001953125 0 l 1
 250.001953125 33 l 1
 255.001953125 35 l 1
 255.001953125 210 l 1
 250.001953125 211 l 1xfa
 250.001953125 500 l 1xfc
 250.001953125 508.145507812 253.942382812 515.758789062 260.776367188 522.234375 c 1
120 0 m 1
 40 0 l 1
 40 520 l 1
 83 520 l 1
 120 520 l 1
 120 0 l 1
315.00390625 0 m 0xfa
 244.99609375 0 l 0
 195.31640625 0 154.99609375 40.3203125 154.99609375 90 c 0
 154.998046875 106.000976562 l 0
 154.998046875 200 l 2
 154.998046875 224.83984375 175.157226562 245 199.99609375 245 c 0
 315 245 l 1
 315 205 l 1
 256.99609375 205 l 2
 232.157226562 205 211.998046875 184.83984375 211.998046875 160 c 2
 211.998046875 105.000976562 l 2
 212 97 l 1
 212 87.9013671875 l 1
 212 86.7431640625 l 2
 212 61.4931640625 231.16015625 41 256 41 c 2
 315 41 l 1
 315.00390625 0 l 0xfa
EndSplineSet
EndChar

StartChar: uni0447
Encoding: 422 1095 166
Width: 330
UnlinkRmOvrlpSave: 1
Flags: W
HStem: 0 21G<210 290> 240 40<128.695 216> 500 20G<40 120 210 290>
VStem: 40 80<286.97 520> 210 80<0 240 280.007 520>
LayerCount: 2
Back
SplineSet
290 520 m 5
 290 90 l 6
 290 40 250 0 200 0 c 6
 130 0 l 6
 80 0 40 40 40 90 c 6
 40 520 l 5
 120 520 l 13
 120 130 l 6
 120 82 120 40 165 40 c 4
 210 40 210 82 210 130 c 6
 210 520 l 21
 290 520 l 5
EndSplineSet
Fore
SplineSet
216 240 m 1
 131 240 l 1
 130 240 l 2
 80 240 40 280 40 330 c 2
 40 520 l 1
 120 520 l 9
 120 370 l 2
 120 322 120 280 165 280 c 0
 165.02734375 280 165.377929688 280 166 280 c 1
 173.111328125 280 215.6953125 280.001953125 216 280.006835938 c 1
 216 240 l 1
210 0 m 1
 210 520 l 1
 290 520 l 1
 290 0 l 25
 210 0 l 1
EndSplineSet
EndChar

StartChar: uni0427
Encoding: 423 1063 167
Width: 410
Flags: W
HStem: 0 21G<290 370> 0 21G<290 370> 240 40<127.689 290> 740 20G<40 120 290 370> 740 20G<40 120 290 370>
VStem: 40 80<286.518 760> 290 80<0 240 280 760>
LayerCount: 2
Back
SplineSet
330 740 m 29
 330 20 l 1053
80 740 m 21
 80 305 l 5
 80 280.16015625 100.16015625 260 125 260 c 5
 330 260 l 1037
EndSplineSet
Fore
SplineSet
40 760 m 1xb6
 120 760 l 1
 120 325 l 2
 120 300.16015625 140.16015625 280 165 280 c 2
 290 280 l 1
 290 760 l 1
 370 760 l 1
 370 0 l 1
 290 0 l 1
 290 240 l 1
 85 240 l 2
 60.16015625 240 40 260.16015625 40 285 c 0
 40 760 40 760 40 760 c 1xb6
EndSplineSet
Validated: 524289
EndChar

StartChar: uni0299
Encoding: 424 665 168
Width: 1000
Flags: W
HStem: 0 21G<40 120 210 290> 0 21G<40 120 210 290> 240 40.6611<120 210> 480 41<127.372 202.628>
VStem: 40 80<0 240 280.661 473.937> 210 80<0 240 280.661 473.937>
LayerCount: 2
Fore
SplineSet
210 0 m 5xbc
 210 240 l 5
 120 240 l 5
 120 0 l 5
 40 0 l 5
 40 474.91796875 l 6
 40 500.16796875 60.16015625 521 85 521 c 6
 86 521 l 5
 244 521 l 5
 245 521 l 6
 269.83984375 520.947265625 290 500.16796875 290 474.91796875 c 6
 290 0 l 5
 210 0 l 5xbc
210 280.661132812 m 5
 210 433.098632812 l 5
 210 434.256835938 l 6
 210 459.506835938 190.83984375 480 166 480 c 6
 165 480 l 29
 164 480 l 6
 139.16015625 480 120 459.506835938 120 434.256835938 c 6
 120 433.098632812 l 5
 120 280.661132812 l 5
 210 280.661132812 l 5
EndSplineSet
Validated: 524289
EndChar

StartChar: uni1D00
Encoding: 425 7424 169
Width: 330
Flags: W
HStem: 0 21G<40 120 210 290> 0 21G<40 120 210 290> 240 40.6611<120 210> 480 41<127.372 202.628>
VStem: 40 80<0 240 280.661 473.937> 210 80<0 240 280.661 473.937>
LayerCount: 2
Fore
SplineSet
210 0 m 1xbc
 210 240 l 1
 120 240 l 1
 120 0 l 1
 40 0 l 1
 40 474.91796875 l 2
 40 500.16796875 60.16015625 521 85 521 c 2
 86 521 l 1
 244 521 l 1
 245 521 l 2
 269.83984375 520.947265625 290 500.16796875 290 474.91796875 c 2
 290 0 l 1
 210 0 l 1xbc
210 280.661132812 m 1
 210 433.098632812 l 1
 210 434.256835938 l 2
 210 459.506835938 190.83984375 480 166 480 c 2
 165 480 l 25
 164 480 l 2
 139.16015625 480 120 459.506835938 120 434.256835938 c 2
 120 433.098632812 l 1
 120 280.661132812 l 1
 210 280.661132812 l 1
EndSplineSet
Validated: 524289
EndChar

StartChar: uni1D04
Encoding: 426 7428 170
Width: 340
Flags: W
HStem: 0 40<127.688 290.002> 480 40<127.688 290.002>
VStem: 40 80<46.5179 473.482>
LayerCount: 2
Fore
SplineSet
290.001953125 40 m 1
 290.001953125 0 l 1
 84.998046875 0 l 2
 60.1591796875 0 40 20.16015625 40 45.0009765625 c 0
 40 475 l 2
 40 499.83984375 60.1591796875 520 84.998046875 520 c 0
 290.001953125 520 l 1
 290.001953125 480 l 1
 164.998046875 480 l 2
 140.159179688 480 120 459.83984375 120 435 c 2
 120 85.0009765625 l 2
 120 60.16015625 140.159179688 40 164.998046875 40 c 2
 290.001953125 40 l 1
EndSplineSet
Validated: 524289
EndChar

StartChar: uni1D05
Encoding: 427 7429 171
Width: 1000
HStem: 0 21G<40 120 210 290> 0 21G<40 120 210 290> 240 40.6611<120 210> 480 41<127.372 202.628>
VStem: 40 80<0 240 280.661 473.937> 210 80<0 240 280.661 473.937>
LayerCount: 2
Fore
SplineSet
210 0 m 5xbc
 210 240 l 5
 120 240 l 5
 120 0 l 5
 40 0 l 5
 40 474.91796875 l 6
 40 500.16796875 60.16015625 521 85 521 c 6
 86 521 l 5
 244 521 l 5
 245 521 l 6
 269.83984375 520.947265625 290 500.16796875 290 474.91796875 c 6
 290 0 l 5
 210 0 l 5xbc
210 280.661132812 m 5
 210 433.098632812 l 5
 210 434.256835938 l 6
 210 459.506835938 190.83984375 480 166 480 c 6
 165 480 l 29
 164 480 l 6
 139.16015625 480 120 459.506835938 120 434.256835938 c 6
 120 433.098632812 l 5
 120 280.661132812 l 5
 210 280.661132812 l 5
EndSplineSet
Validated: 524289
EndChar

StartChar: uni1D01
Encoding: 428 7425 172
Width: 1000
HStem: 0 21G<40 120 210 290> 0 21G<40 120 210 290> 240 40.6611<120 210> 480 41<127.372 202.628>
VStem: 40 80<0 240 280.661 473.937> 210 80<0 240 280.661 473.937>
LayerCount: 2
Fore
SplineSet
210 0 m 5xbc
 210 240 l 5
 120 240 l 5
 120 0 l 5
 40 0 l 5
 40 474.91796875 l 6
 40 500.16796875 60.16015625 521 85 521 c 6
 86 521 l 5
 244 521 l 5
 245 521 l 6
 269.83984375 520.947265625 290 500.16796875 290 474.91796875 c 6
 290 0 l 5
 210 0 l 5xbc
210 280.661132812 m 5
 210 433.098632812 l 5
 210 434.256835938 l 6
 210 459.506835938 190.83984375 480 166 480 c 6
 165 480 l 29
 164 480 l 6
 139.16015625 480 120 459.506835938 120 434.256835938 c 6
 120 433.098632812 l 5
 120 280.661132812 l 5
 210 280.661132812 l 5
EndSplineSet
Validated: 524289
EndChar

StartChar: uni1D06
Encoding: 429 7430 173
Width: 1000
HStem: 0 21G<40 120 210 290> 0 21G<40 120 210 290> 240 40.6611<120 210> 480 41<127.372 202.628>
VStem: 40 80<0 240 280.661 473.937> 210 80<0 240 280.661 473.937>
LayerCount: 2
Fore
SplineSet
210 0 m 5xbc
 210 240 l 5
 120 240 l 5
 120 0 l 5
 40 0 l 5
 40 474.91796875 l 6
 40 500.16796875 60.16015625 521 85 521 c 6
 86 521 l 5
 244 521 l 5
 245 521 l 6
 269.83984375 520.947265625 290 500.16796875 290 474.91796875 c 6
 290 0 l 5
 210 0 l 5xbc
210 280.661132812 m 5
 210 433.098632812 l 5
 210 434.256835938 l 6
 210 459.506835938 190.83984375 480 166 480 c 6
 165 480 l 29
 164 480 l 6
 139.16015625 480 120 459.506835938 120 434.256835938 c 6
 120 433.098632812 l 5
 120 280.661132812 l 5
 210 280.661132812 l 5
EndSplineSet
Validated: 524289
EndChar

StartChar: uni1D07
Encoding: 430 7431 174
Width: 1000
HStem: 0 21G<40 120 210 290> 0 21G<40 120 210 290> 240 40.6611<120 210> 480 41<127.372 202.628>
VStem: 40 80<0 240 280.661 473.937> 210 80<0 240 280.661 473.937>
LayerCount: 2
Fore
SplineSet
210 0 m 5xbc
 210 240 l 5
 120 240 l 5
 120 0 l 5
 40 0 l 5
 40 474.91796875 l 6
 40 500.16796875 60.16015625 521 85 521 c 6
 86 521 l 5
 244 521 l 5
 245 521 l 6
 269.83984375 520.947265625 290 500.16796875 290 474.91796875 c 6
 290 0 l 5
 210 0 l 5xbc
210 280.661132812 m 5
 210 433.098632812 l 5
 210 434.256835938 l 6
 210 459.506835938 190.83984375 480 166 480 c 6
 165 480 l 29
 164 480 l 6
 139.16015625 480 120 459.506835938 120 434.256835938 c 6
 120 433.098632812 l 5
 120 280.661132812 l 5
 210 280.661132812 l 5
EndSplineSet
Validated: 524289
EndChar

StartChar: uni1D0A
Encoding: 431 7434 175
Width: 1000
HStem: 0 21G<40 120 210 290> 0 21G<40 120 210 290> 240 40.6611<120 210> 480 41<127.372 202.628>
VStem: 40 80<0 240 280.661 473.937> 210 80<0 240 280.661 473.937>
LayerCount: 2
Fore
SplineSet
210 0 m 5xbc
 210 240 l 5
 120 240 l 5
 120 0 l 5
 40 0 l 5
 40 474.91796875 l 6
 40 500.16796875 60.16015625 521 85 521 c 6
 86 521 l 5
 244 521 l 5
 245 521 l 6
 269.83984375 520.947265625 290 500.16796875 290 474.91796875 c 6
 290 0 l 5
 210 0 l 5xbc
210 280.661132812 m 5
 210 433.098632812 l 5
 210 434.256835938 l 6
 210 459.506835938 190.83984375 480 166 480 c 6
 165 480 l 29
 164 480 l 6
 139.16015625 480 120 459.506835938 120 434.256835938 c 6
 120 433.098632812 l 5
 120 280.661132812 l 5
 210 280.661132812 l 5
EndSplineSet
Validated: 524289
EndChar

StartChar: uni1D0B
Encoding: 432 7435 176
Width: 1000
HStem: 0 21G<40 120 210 290> 0 21G<40 120 210 290> 240 40.6611<120 210> 480 41<127.372 202.628>
VStem: 40 80<0 240 280.661 473.937> 210 80<0 240 280.661 473.937>
LayerCount: 2
Fore
SplineSet
210 0 m 5xbc
 210 240 l 5
 120 240 l 5
 120 0 l 5
 40 0 l 5
 40 474.91796875 l 6
 40 500.16796875 60.16015625 521 85 521 c 6
 86 521 l 5
 244 521 l 5
 245 521 l 6
 269.83984375 520.947265625 290 500.16796875 290 474.91796875 c 6
 290 0 l 5
 210 0 l 5xbc
210 280.661132812 m 5
 210 433.098632812 l 5
 210 434.256835938 l 6
 210 459.506835938 190.83984375 480 166 480 c 6
 165 480 l 29
 164 480 l 6
 139.16015625 480 120 459.506835938 120 434.256835938 c 6
 120 433.098632812 l 5
 120 280.661132812 l 5
 210 280.661132812 l 5
EndSplineSet
Validated: 524289
EndChar

StartChar: uni1D0D
Encoding: 433 7437 177
Width: 1000
HStem: 0 21G<40 120 210 290> 0 21G<40 120 210 290> 240 40.6611<120 210> 480 41<127.372 202.628>
VStem: 40 80<0 240 280.661 473.937> 210 80<0 240 280.661 473.937>
LayerCount: 2
Fore
SplineSet
210 0 m 5xbc
 210 240 l 5
 120 240 l 5
 120 0 l 5
 40 0 l 5
 40 474.91796875 l 6
 40 500.16796875 60.16015625 521 85 521 c 6
 86 521 l 5
 244 521 l 5
 245 521 l 6
 269.83984375 520.947265625 290 500.16796875 290 474.91796875 c 6
 290 0 l 5
 210 0 l 5xbc
210 280.661132812 m 5
 210 433.098632812 l 5
 210 434.256835938 l 6
 210 459.506835938 190.83984375 480 166 480 c 6
 165 480 l 29
 164 480 l 6
 139.16015625 480 120 459.506835938 120 434.256835938 c 6
 120 433.098632812 l 5
 120 280.661132812 l 5
 210 280.661132812 l 5
EndSplineSet
Validated: 524289
EndChar

StartChar: uni1D0E
Encoding: 434 7438 178
Width: 1000
HStem: 0 21G<40 120 210 290> 0 21G<40 120 210 290> 240 40.6611<120 210> 480 41<127.372 202.628>
VStem: 40 80<0 240 280.661 473.937> 210 80<0 240 280.661 473.937>
LayerCount: 2
Fore
SplineSet
210 0 m 5xbc
 210 240 l 5
 120 240 l 5
 120 0 l 5
 40 0 l 5
 40 474.91796875 l 6
 40 500.16796875 60.16015625 521 85 521 c 6
 86 521 l 5
 244 521 l 5
 245 521 l 6
 269.83984375 520.947265625 290 500.16796875 290 474.91796875 c 6
 290 0 l 5
 210 0 l 5xbc
210 280.661132812 m 5
 210 433.098632812 l 5
 210 434.256835938 l 6
 210 459.506835938 190.83984375 480 166 480 c 6
 165 480 l 29
 164 480 l 6
 139.16015625 480 120 459.506835938 120 434.256835938 c 6
 120 433.098632812 l 5
 120 280.661132812 l 5
 210 280.661132812 l 5
EndSplineSet
Validated: 524289
EndChar

StartChar: uni1D0F
Encoding: 435 7439 179
Width: 1000
HStem: 0 21G<40 120 210 290> 0 21G<40 120 210 290> 240 40.6611<120 210> 480 41<127.372 202.628>
VStem: 40 80<0 240 280.661 473.937> 210 80<0 240 280.661 473.937>
LayerCount: 2
Fore
SplineSet
210 0 m 5xbc
 210 240 l 5
 120 240 l 5
 120 0 l 5
 40 0 l 5
 40 474.91796875 l 6
 40 500.16796875 60.16015625 521 85 521 c 6
 86 521 l 5
 244 521 l 5
 245 521 l 6
 269.83984375 520.947265625 290 500.16796875 290 474.91796875 c 6
 290 0 l 5
 210 0 l 5xbc
210 280.661132812 m 5
 210 433.098632812 l 5
 210 434.256835938 l 6
 210 459.506835938 190.83984375 480 166 480 c 6
 165 480 l 29
 164 480 l 6
 139.16015625 480 120 459.506835938 120 434.256835938 c 6
 120 433.098632812 l 5
 120 280.661132812 l 5
 210 280.661132812 l 5
EndSplineSet
Validated: 524289
EndChar

StartChar: uni1D15
Encoding: 436 7445 180
Width: 1000
HStem: 0 21G<40 120 210 290> 0 21G<40 120 210 290> 240 40.6611<120 210> 480 41<127.372 202.628>
VStem: 40 80<0 240 280.661 473.937> 210 80<0 240 280.661 473.937>
LayerCount: 2
Fore
SplineSet
210 0 m 5xbc
 210 240 l 5
 120 240 l 5
 120 0 l 5
 40 0 l 5
 40 474.91796875 l 6
 40 500.16796875 60.16015625 521 85 521 c 6
 86 521 l 5
 244 521 l 5
 245 521 l 6
 269.83984375 520.947265625 290 500.16796875 290 474.91796875 c 6
 290 0 l 5
 210 0 l 5xbc
210 280.661132812 m 5
 210 433.098632812 l 5
 210 434.256835938 l 6
 210 459.506835938 190.83984375 480 166 480 c 6
 165 480 l 29
 164 480 l 6
 139.16015625 480 120 459.506835938 120 434.256835938 c 6
 120 433.098632812 l 5
 120 280.661132812 l 5
 210 280.661132812 l 5
EndSplineSet
Validated: 524289
EndChar

StartChar: uni1D18
Encoding: 437 7448 181
Width: 1000
HStem: 0 21G<40 120 210 290> 0 21G<40 120 210 290> 240 40.6611<120 210> 480 41<127.372 202.628>
VStem: 40 80<0 240 280.661 473.937> 210 80<0 240 280.661 473.937>
LayerCount: 2
Fore
SplineSet
210 0 m 5xbc
 210 240 l 5
 120 240 l 5
 120 0 l 5
 40 0 l 5
 40 474.91796875 l 6
 40 500.16796875 60.16015625 521 85 521 c 6
 86 521 l 5
 244 521 l 5
 245 521 l 6
 269.83984375 520.947265625 290 500.16796875 290 474.91796875 c 6
 290 0 l 5
 210 0 l 5xbc
210 280.661132812 m 5
 210 433.098632812 l 5
 210 434.256835938 l 6
 210 459.506835938 190.83984375 480 166 480 c 6
 165 480 l 29
 164 480 l 6
 139.16015625 480 120 459.506835938 120 434.256835938 c 6
 120 433.098632812 l 5
 120 280.661132812 l 5
 210 280.661132812 l 5
EndSplineSet
Validated: 524289
EndChar

StartChar: uni1D1B
Encoding: 438 7451 182
Width: 1000
HStem: 0 21G<40 120 210 290> 0 21G<40 120 210 290> 240 40.6611<120 210> 480 41<127.372 202.628>
VStem: 40 80<0 240 280.661 473.937> 210 80<0 240 280.661 473.937>
LayerCount: 2
Fore
SplineSet
210 0 m 5xbc
 210 240 l 5
 120 240 l 5
 120 0 l 5
 40 0 l 5
 40 474.91796875 l 6
 40 500.16796875 60.16015625 521 85 521 c 6
 86 521 l 5
 244 521 l 5
 245 521 l 6
 269.83984375 520.947265625 290 500.16796875 290 474.91796875 c 6
 290 0 l 5
 210 0 l 5xbc
210 280.661132812 m 5
 210 433.098632812 l 5
 210 434.256835938 l 6
 210 459.506835938 190.83984375 480 166 480 c 6
 165 480 l 29
 164 480 l 6
 139.16015625 480 120 459.506835938 120 434.256835938 c 6
 120 433.098632812 l 5
 120 280.661132812 l 5
 210 280.661132812 l 5
EndSplineSet
Validated: 524289
EndChar

StartChar: uni1D1D
Encoding: 439 7453 183
Width: 1000
HStem: 0 21G<40 120 210 290> 0 21G<40 120 210 290> 240 40.6611<120 210> 480 41<127.372 202.628>
VStem: 40 80<0 240 280.661 473.937> 210 80<0 240 280.661 473.937>
LayerCount: 2
Fore
SplineSet
210 0 m 5xbc
 210 240 l 5
 120 240 l 5
 120 0 l 5
 40 0 l 5
 40 474.91796875 l 6
 40 500.16796875 60.16015625 521 85 521 c 6
 86 521 l 5
 244 521 l 5
 245 521 l 6
 269.83984375 520.947265625 290 500.16796875 290 474.91796875 c 6
 290 0 l 5
 210 0 l 5xbc
210 280.661132812 m 5
 210 433.098632812 l 5
 210 434.256835938 l 6
 210 459.506835938 190.83984375 480 166 480 c 6
 165 480 l 29
 164 480 l 6
 139.16015625 480 120 459.506835938 120 434.256835938 c 6
 120 433.098632812 l 5
 120 280.661132812 l 5
 210 280.661132812 l 5
EndSplineSet
Validated: 524289
EndChar

StartChar: uni1D20
Encoding: 440 7456 184
Width: 1000
HStem: 0 21G<40 120 210 290> 0 21G<40 120 210 290> 240 40.6611<120 210> 480 41<127.372 202.628>
VStem: 40 80<0 240 280.661 473.937> 210 80<0 240 280.661 473.937>
LayerCount: 2
Fore
SplineSet
210 0 m 5xbc
 210 240 l 5
 120 240 l 5
 120 0 l 5
 40 0 l 5
 40 474.91796875 l 6
 40 500.16796875 60.16015625 521 85 521 c 6
 86 521 l 5
 244 521 l 5
 245 521 l 6
 269.83984375 520.947265625 290 500.16796875 290 474.91796875 c 6
 290 0 l 5
 210 0 l 5xbc
210 280.661132812 m 5
 210 433.098632812 l 5
 210 434.256835938 l 6
 210 459.506835938 190.83984375 480 166 480 c 6
 165 480 l 29
 164 480 l 6
 139.16015625 480 120 459.506835938 120 434.256835938 c 6
 120 433.098632812 l 5
 120 280.661132812 l 5
 210 280.661132812 l 5
EndSplineSet
Validated: 524289
EndChar

StartChar: uni1D21
Encoding: 441 7457 185
Width: 1000
HStem: 0 21G<40 120 210 290> 0 21G<40 120 210 290> 240 40.6611<120 210> 480 41<127.372 202.628>
VStem: 40 80<0 240 280.661 473.937> 210 80<0 240 280.661 473.937>
LayerCount: 2
Fore
SplineSet
210 0 m 5xbc
 210 240 l 5
 120 240 l 5
 120 0 l 5
 40 0 l 5
 40 474.91796875 l 6
 40 500.16796875 60.16015625 521 85 521 c 6
 86 521 l 5
 244 521 l 5
 245 521 l 6
 269.83984375 520.947265625 290 500.16796875 290 474.91796875 c 6
 290 0 l 5
 210 0 l 5xbc
210 280.661132812 m 5
 210 433.098632812 l 5
 210 434.256835938 l 6
 210 459.506835938 190.83984375 480 166 480 c 6
 165 480 l 29
 164 480 l 6
 139.16015625 480 120 459.506835938 120 434.256835938 c 6
 120 433.098632812 l 5
 120 280.661132812 l 5
 210 280.661132812 l 5
EndSplineSet
Validated: 524289
EndChar

StartChar: uni1D22
Encoding: 442 7458 186
Width: 1000
HStem: 0 21G<40 120 210 290> 0 21G<40 120 210 290> 240 40.6611<120 210> 480 41<127.372 202.628>
VStem: 40 80<0 240 280.661 473.937> 210 80<0 240 280.661 473.937>
LayerCount: 2
Fore
SplineSet
210 0 m 5xbc
 210 240 l 5
 120 240 l 5
 120 0 l 5
 40 0 l 5
 40 474.91796875 l 6
 40 500.16796875 60.16015625 521 85 521 c 6
 86 521 l 5
 244 521 l 5
 245 521 l 6
 269.83984375 520.947265625 290 500.16796875 290 474.91796875 c 6
 290 0 l 5
 210 0 l 5xbc
210 280.661132812 m 5
 210 433.098632812 l 5
 210 434.256835938 l 6
 210 459.506835938 190.83984375 480 166 480 c 6
 165 480 l 29
 164 480 l 6
 139.16015625 480 120 459.506835938 120 434.256835938 c 6
 120 433.098632812 l 5
 120 280.661132812 l 5
 210 280.661132812 l 5
EndSplineSet
Validated: 524289
EndChar

StartChar: uni0262
Encoding: 443 610 187
Width: 1000
HStem: 0 21G<40 120 210 290> 0 21G<40 120 210 290> 240 40.6611<120 210> 480 41<127.372 202.628>
VStem: 40 80<0 240 280.661 473.937> 210 80<0 240 280.661 473.937>
LayerCount: 2
Fore
SplineSet
210 0 m 5xbc
 210 240 l 5
 120 240 l 5
 120 0 l 5
 40 0 l 5
 40 474.91796875 l 6
 40 500.16796875 60.16015625 521 85 521 c 6
 86 521 l 5
 244 521 l 5
 245 521 l 6
 269.83984375 520.947265625 290 500.16796875 290 474.91796875 c 6
 290 0 l 5
 210 0 l 5xbc
210 280.661132812 m 5
 210 433.098632812 l 5
 210 434.256835938 l 6
 210 459.506835938 190.83984375 480 166 480 c 6
 165 480 l 29
 164 480 l 6
 139.16015625 480 120 459.506835938 120 434.256835938 c 6
 120 433.098632812 l 5
 120 280.661132812 l 5
 210 280.661132812 l 5
EndSplineSet
Validated: 524289
EndChar

StartChar: uni026A
Encoding: 444 618 188
Width: 1000
HStem: 0 21G<40 120 210 290> 0 21G<40 120 210 290> 240 40.6611<120 210> 480 41<127.372 202.628>
VStem: 40 80<0 240 280.661 473.937> 210 80<0 240 280.661 473.937>
LayerCount: 2
Fore
SplineSet
210 0 m 5xbc
 210 240 l 5
 120 240 l 5
 120 0 l 5
 40 0 l 5
 40 474.91796875 l 6
 40 500.16796875 60.16015625 521 85 521 c 6
 86 521 l 5
 244 521 l 5
 245 521 l 6
 269.83984375 520.947265625 290 500.16796875 290 474.91796875 c 6
 290 0 l 5
 210 0 l 5xbc
210 280.661132812 m 5
 210 433.098632812 l 5
 210 434.256835938 l 6
 210 459.506835938 190.83984375 480 166 480 c 6
 165 480 l 29
 164 480 l 6
 139.16015625 480 120 459.506835938 120 434.256835938 c 6
 120 433.098632812 l 5
 120 280.661132812 l 5
 210 280.661132812 l 5
EndSplineSet
Validated: 524289
EndChar

StartChar: uni0274
Encoding: 445 628 189
Width: 1000
HStem: 0 21G<40 120 210 290> 0 21G<40 120 210 290> 240 40.6611<120 210> 480 41<127.372 202.628>
VStem: 40 80<0 240 280.661 473.937> 210 80<0 240 280.661 473.937>
LayerCount: 2
Fore
SplineSet
210 0 m 5xbc
 210 240 l 5
 120 240 l 5
 120 0 l 5
 40 0 l 5
 40 474.91796875 l 6
 40 500.16796875 60.16015625 521 85 521 c 6
 86 521 l 5
 244 521 l 5
 245 521 l 6
 269.83984375 520.947265625 290 500.16796875 290 474.91796875 c 6
 290 0 l 5
 210 0 l 5xbc
210 280.661132812 m 5
 210 433.098632812 l 5
 210 434.256835938 l 6
 210 459.506835938 190.83984375 480 166 480 c 6
 165 480 l 29
 164 480 l 6
 139.16015625 480 120 459.506835938 120 434.256835938 c 6
 120 433.098632812 l 5
 120 280.661132812 l 5
 210 280.661132812 l 5
EndSplineSet
Validated: 524289
EndChar

StartChar: uni0276
Encoding: 446 630 190
Width: 1000
HStem: 0 21G<40 120 210 290> 0 21G<40 120 210 290> 240 40.6611<120 210> 480 41<127.372 202.628>
VStem: 40 80<0 240 280.661 473.937> 210 80<0 240 280.661 473.937>
LayerCount: 2
Fore
SplineSet
210 0 m 5xbc
 210 240 l 5
 120 240 l 5
 120 0 l 5
 40 0 l 5
 40 474.91796875 l 6
 40 500.16796875 60.16015625 521 85 521 c 6
 86 521 l 5
 244 521 l 5
 245 521 l 6
 269.83984375 520.947265625 290 500.16796875 290 474.91796875 c 6
 290 0 l 5
 210 0 l 5xbc
210 280.661132812 m 5
 210 433.098632812 l 5
 210 434.256835938 l 6
 210 459.506835938 190.83984375 480 166 480 c 6
 165 480 l 29
 164 480 l 6
 139.16015625 480 120 459.506835938 120 434.256835938 c 6
 120 433.098632812 l 5
 120 280.661132812 l 5
 210 280.661132812 l 5
EndSplineSet
Validated: 524289
EndChar

StartChar: uni0280
Encoding: 447 640 191
Width: 1000
HStem: 0 21G<40 120 210 290> 0 21G<40 120 210 290> 240 40.6611<120 210> 480 41<127.372 202.628>
VStem: 40 80<0 240 280.661 473.937> 210 80<0 240 280.661 473.937>
LayerCount: 2
Fore
SplineSet
210 0 m 5xbc
 210 240 l 5
 120 240 l 5
 120 0 l 5
 40 0 l 5
 40 474.91796875 l 6
 40 500.16796875 60.16015625 521 85 521 c 6
 86 521 l 5
 244 521 l 5
 245 521 l 6
 269.83984375 520.947265625 290 500.16796875 290 474.91796875 c 6
 290 0 l 5
 210 0 l 5xbc
210 280.661132812 m 5
 210 433.098632812 l 5
 210 434.256835938 l 6
 210 459.506835938 190.83984375 480 166 480 c 6
 165 480 l 29
 164 480 l 6
 139.16015625 480 120 459.506835938 120 434.256835938 c 6
 120 433.098632812 l 5
 120 280.661132812 l 5
 210 280.661132812 l 5
EndSplineSet
Validated: 524289
EndChar

StartChar: uni028F
Encoding: 448 655 192
Width: 1000
HStem: 0 21G<40 120 210 290> 0 21G<40 120 210 290> 240 40.6611<120 210> 480 41<127.372 202.628>
VStem: 40 80<0 240 280.661 473.937> 210 80<0 240 280.661 473.937>
LayerCount: 2
Fore
SplineSet
210 0 m 5xbc
 210 240 l 5
 120 240 l 5
 120 0 l 5
 40 0 l 5
 40 474.91796875 l 6
 40 500.16796875 60.16015625 521 85 521 c 6
 86 521 l 5
 244 521 l 5
 245 521 l 6
 269.83984375 520.947265625 290 500.16796875 290 474.91796875 c 6
 290 0 l 5
 210 0 l 5xbc
210 280.661132812 m 5
 210 433.098632812 l 5
 210 434.256835938 l 6
 210 459.506835938 190.83984375 480 166 480 c 6
 165 480 l 29
 164 480 l 6
 139.16015625 480 120 459.506835938 120 434.256835938 c 6
 120 433.098632812 l 5
 120 280.661132812 l 5
 210 280.661132812 l 5
EndSplineSet
Validated: 524289
EndChar

StartChar: uni029C
Encoding: 449 668 193
Width: 1000
HStem: 0 21G<40 120 210 290> 0 21G<40 120 210 290> 240 40.6611<120 210> 480 41<127.372 202.628>
VStem: 40 80<0 240 280.661 473.937> 210 80<0 240 280.661 473.937>
LayerCount: 2
Fore
SplineSet
210 0 m 5xbc
 210 240 l 5
 120 240 l 5
 120 0 l 5
 40 0 l 5
 40 474.91796875 l 6
 40 500.16796875 60.16015625 521 85 521 c 6
 86 521 l 5
 244 521 l 5
 245 521 l 6
 269.83984375 520.947265625 290 500.16796875 290 474.91796875 c 6
 290 0 l 5
 210 0 l 5xbc
210 280.661132812 m 5
 210 433.098632812 l 5
 210 434.256835938 l 6
 210 459.506835938 190.83984375 480 166 480 c 6
 165 480 l 29
 164 480 l 6
 139.16015625 480 120 459.506835938 120 434.256835938 c 6
 120 433.098632812 l 5
 120 280.661132812 l 5
 210 280.661132812 l 5
EndSplineSet
Validated: 524289
EndChar

StartChar: uni029F
Encoding: 450 671 194
Width: 1000
HStem: 0 21G<40 120 210 290> 0 21G<40 120 210 290> 240 40.6611<120 210> 480 41<127.372 202.628>
VStem: 40 80<0 240 280.661 473.937> 210 80<0 240 280.661 473.937>
LayerCount: 2
Fore
SplineSet
210 0 m 5xbc
 210 240 l 5
 120 240 l 5
 120 0 l 5
 40 0 l 5
 40 474.91796875 l 6
 40 500.16796875 60.16015625 521 85 521 c 6
 86 521 l 5
 244 521 l 5
 245 521 l 6
 269.83984375 520.947265625 290 500.16796875 290 474.91796875 c 6
 290 0 l 5
 210 0 l 5xbc
210 280.661132812 m 5
 210 433.098632812 l 5
 210 434.256835938 l 6
 210 459.506835938 190.83984375 480 166 480 c 6
 165 480 l 29
 164 480 l 6
 139.16015625 480 120 459.506835938 120 434.256835938 c 6
 120 433.098632812 l 5
 120 280.661132812 l 5
 210 280.661132812 l 5
EndSplineSet
Validated: 524289
EndChar

StartChar: uni029E
Encoding: 451 670 195
Width: 330
UnlinkRmOvrlpSave: 1
Flags: W
HStem: 0 21G<40 120> 500 20G<210 290>
VStem: 40 80<0 165.621 338.099 650> 210 80<-130 271 321 520> 210 8<271 272>
LayerCount: 2
Back
SplineSet
218 321 m 5
 128 236 l 6
 71 176 l 4
 52 156 40 136 40 103 c 6
 40 0 l 5
 120 0 l 5
 120 97 l 29
 120 104 l 6
 120 150 120 173 140 193 c 6
 218 271 l 6
 218 321 l 5
189.864257812 274.44140625 m 5
 123.3515625 291.680664062 120 396.352539062 120 465 c 6
 120 520 l 5
 40 520 l 5
 40 466 l 6
 40 340.748046875 80.5986328125 263.40234375 175.697265625 249.327148438 c 5
 189.864257812 274.44140625 l 5
210 247 m 5
 210 -130 l 5
 290 -130 l 5
 290 520 l 5
 210 520 l 5
 210 272 l 5
 210 247 l 5
EndSplineSet
Fore
SplineSet
218 321 m 1xe8
 218 271 l 2
 140 193 l 2
 120 173 120 150 120 104 c 2
 120 97 l 25
 120 0 l 1
 40 0 l 1
 40 103 l 2
 40 136 52 156 71 176 c 0
 128 236 l 2
 218 321 l 1xe8
189.864257812 274.44140625 m 1
 175.697265625 249.327148438 l 1
 80.5986328125 263.40234375 40 340.748046875 40 466 c 2
 40 650 l 1
 120 650 l 1
 120 465 l 2
 120 396.352539062 123.3515625 291.680664062 189.864257812 274.44140625 c 1
210 247 m 1xf0
 210 272 l 1xe8
 210 520 l 1
 290 520 l 1
 290 -130 l 1
 210 -130 l 1
 210 247 l 1xf0
EndSplineSet
EndChar

StartChar: uniA730
Encoding: 452 42800 196
Width: 1000
HStem: 0 21G<40 120 210 290> 0 21G<40 120 210 290> 240 40.6611<120 210> 480 41<127.372 202.628>
VStem: 40 80<0 240 280.661 473.937> 210 80<0 240 280.661 473.937>
LayerCount: 2
Fore
SplineSet
210 0 m 5xbc
 210 240 l 5
 120 240 l 5
 120 0 l 5
 40 0 l 5
 40 474.91796875 l 6
 40 500.16796875 60.16015625 521 85 521 c 6
 86 521 l 5
 244 521 l 5
 245 521 l 6
 269.83984375 520.947265625 290 500.16796875 290 474.91796875 c 6
 290 0 l 5
 210 0 l 5xbc
210 280.661132812 m 5
 210 433.098632812 l 5
 210 434.256835938 l 6
 210 459.506835938 190.83984375 480 166 480 c 6
 165 480 l 29
 164 480 l 6
 139.16015625 480 120 459.506835938 120 434.256835938 c 6
 120 433.098632812 l 5
 120 280.661132812 l 5
 210 280.661132812 l 5
EndSplineSet
Validated: 524289
EndChar

StartChar: uniA731
Encoding: 453 42801 197
Width: 1000
HStem: 0 21G<40 120 210 290> 0 21G<40 120 210 290> 240 40.6611<120 210> 480 41<127.372 202.628>
VStem: 40 80<0 240 280.661 473.937> 210 80<0 240 280.661 473.937>
LayerCount: 2
Fore
SplineSet
210 0 m 5xbc
 210 240 l 5
 120 240 l 5
 120 0 l 5
 40 0 l 5
 40 474.91796875 l 6
 40 500.16796875 60.16015625 521 85 521 c 6
 86 521 l 5
 244 521 l 5
 245 521 l 6
 269.83984375 520.947265625 290 500.16796875 290 474.91796875 c 6
 290 0 l 5
 210 0 l 5xbc
210 280.661132812 m 5
 210 433.098632812 l 5
 210 434.256835938 l 6
 210 459.506835938 190.83984375 480 166 480 c 6
 165 480 l 29
 164 480 l 6
 139.16015625 480 120 459.506835938 120 434.256835938 c 6
 120 433.098632812 l 5
 120 280.661132812 l 5
 210 280.661132812 l 5
EndSplineSet
Validated: 524289
EndChar

StartChar: uniA7AF
Encoding: 454 42927 198
Width: 1000
HStem: 0 21G<40 120 210 290> 0 21G<40 120 210 290> 240 40.6611<120 210> 480 41<127.372 202.628>
VStem: 40 80<0 240 280.661 473.937> 210 80<0 240 280.661 473.937>
LayerCount: 2
Fore
SplineSet
210 0 m 5xbc
 210 240 l 5
 120 240 l 5
 120 0 l 5
 40 0 l 5
 40 474.91796875 l 6
 40 500.16796875 60.16015625 521 85 521 c 6
 86 521 l 5
 244 521 l 5
 245 521 l 6
 269.83984375 520.947265625 290 500.16796875 290 474.91796875 c 6
 290 0 l 5
 210 0 l 5xbc
210 280.661132812 m 5
 210 433.098632812 l 5
 210 434.256835938 l 6
 210 459.506835938 190.83984375 480 166 480 c 6
 165 480 l 29
 164 480 l 6
 139.16015625 480 120 459.506835938 120 434.256835938 c 6
 120 433.098632812 l 5
 120 280.661132812 l 5
 210 280.661132812 l 5
EndSplineSet
Validated: 524289
EndChar

StartChar: uniA7B0
Encoding: 455 42928 199
Width: 410
UnlinkRmOvrlpSave: 1
Flags: W
HStem: 0 21G<40 120 290 370> 237 43<201.109 290> 689 71<40 74.0494>
VStem: 40 80<0 160.328> 290 80<0 237 280 760>
LayerCount: 2
Back
SplineSet
98.0546875 745.014648438 m 1
 128.209960938 729.014648438 138.0546875 712.014648438 146 673 c 1024
96.87890625 624.48828125 m 2
 90.8544921875 653.178710938 69 679 43.998046875 688 c 1025
90.0732421875 606.137695312 m 1
 81.212890625 631.641601562 58.0869140625 655.162109375 28.228515625 673.422851562 c 1026
119.998046875 0 m 1xb6
 39.998046875 0 l 1
 39.998046875 70 l 2
 39.998046875 150.885742188 84.7158203125 221.137695312 150.192382812 256.212890625 c 1
 39.998046875 720 l 1
 39.998046875 760 l 1
 119.998046875 760 l 1
 238.232421875 279.884765625 l 1
 240.479492188 279.958984375 242.736328125 279.997070312 245.001953125 279.997070312 c 2
 290 279.997070312 l 1
 290 760 l 1
 370 760 l 1
 370 0 l 1
 290 0 l 1
 290 236.944335938 l 1
 193.493164062 219.915039062 119.998046875 133.6953125 119.998046875 30 c 2
 119.998046875 0 l 1xb6
EndSplineSet
Fore
SplineSet
81 760 m 1
 113 747 135 727 145 679 c 0
 234 272 l 0
 180 250 l 1
 175 252 l 1
 174 257 l 0
 129 444 98 624 97 625 c 2
 91 654 66 682 40 689 c 1
 40 760 l 1
 81 760 l 1
238 280 m 0
 240 280 243 280 245 280 c 2
 290 280 l 1
 290 760 l 1
 370 760 l 1
 370 0 l 1
 290 0 l 1
 290 237 l 1
 178 237 120 170 120 71 c 2
 120 0 l 1
 40 0 l 1
 40 70 l 2
 40 143 84 220 150 256 c 0
 170 267 202 279 238 280 c 0
EndSplineSet
EndChar

StartChar: AE
Encoding: 456 198 200
Width: 660
UnlinkRmOvrlpSave: 1
Flags: W
HStem: 0 40<377.701 620.003> 240.003 39.9971<120 290 370.012 574.998> 720 40<127.689 282.311 370.002 620.003>
VStem: 40 80<0 240 280 713.482> 290 80.0107<60.0996 240 280 699.84> 290 54<44.8662 240 280 511> 306.001 47.999<516.14 739.84> 330.015 13.9854<20.0996 238.753>
LayerCount: 2
Fore
SplineSet
290 0 m 1xf4
 290 240 l 1xf8
 120 240 l 1
 120 0 l 1
 40 0 l 1
 40 715 l 2
 40 739.83984375 60.16015625 760 85 760 c 0
 309 760 l 0
 333.83984375 760 354 739.83984375 354 715 c 0xf2
 344 35 l 1
 344 0 l 1xf1
 290 0 l 1xf4
290 280 m 1
 290 675 l 2
 290 699.83984375 269.83984375 720 245 720 c 2
 165 720 l 2
 140.16015625 720 120 699.83984375 120 675 c 2
 120 280 l 1
 290 280 l 1
306 715 m 0
 306 739.83984375 326.16015625 760 351 760 c 0
 361 760 l 1
 620.002929688 760 l 1
 620.002929688 720 l 1
 370.001953125 720 l 1
 370.010742188 280 l 1xf8
 574.998046875 280 l 1
 574.998046875 240.002929688 l 1
 370.01171875 240.002929688 l 1
 370.014648438 84.8662109375 l 0
 370.014648438 60.099609375 390.16796875 40 414.999023438 40 c 2
 620.002929688 40 l 1
 620.002929688 0 l 1
 374.999023438 0 l 2
 350.16796875 0 330.014648438 20.099609375 330.014648438 44.8662109375 c 2xf1
 306.000976562 710 l 1xf2
 306 715 l 0
EndSplineSet
EndChar

StartChar: ae
Encoding: 457 230 201
Width: 500
UnlinkRmOvrlpSave: 1
Flags: W
HStem: 0 40<127.646 202.354 297.646 460> 240 40<127.646 210 290 380> 435 85<46.4806 120> 480 40<127.646 202.354 297.646 372.354>
VStem: 40 80<46.4806 233.519 435 473.519> 210 80<60 240 280 460> 240 20<20 500> 380 80<280 473.519>
LayerCount: 2
Back
SplineSet
80 455 m 16
 80 480 100 500 125 500 c 2
 205 500 l 1
 229.83984375 500 250 479.83984375 250 455 c 1
 250 65 l 1
 250 40.16015625 229.83984375 20 205 20 c 1
 125 20 l 1
 100.16015625 20 80 40.16015625 80 65 c 1
 80 215 l 1
 80 239.83984375 100.16015625 260 125 260 c 1
 245 260 l 1025
374 260 m 1
 540 260 l 1
 540 455 l 1
 540 479.83984375 519.83984375 500 495 500 c 1
 415 500 l 1
 390.16015625 500 370 479.83984375 370 455 c 1
 370 65 l 1
 370 40.16015625 390.16015625 20 415 20 c 1
 540 20 l 1033
-80 280 m 1xdd
 -80 435 l 2xed
 -80 460 -100 480 -125 480 c 2
 -170 480 l 1
 -170 280 l 1
 -80 280 l 1xdd
0 40 m 1
 0 0 l 1
 -205 0 l 2
 -230 0 -250 20 -250 45 c 2xdd
 -250 520 l 1
 -45 520 l 2xdb
 -20 520 0 500 0 475 c 2
 0 240 l 1
 -170 240 l 1
 -170 85 l 2
 -170 60 -150 40 -125 40 c 2
 0 40 l 1
-288 0 m 1
 -239 51 l 1
 -239 46 l 2xcb
 -239 21 -259 0 -284 0 c 3
 -285 0 -288 0 -288 0 c 1
-282 240 m 1
 -235 291 l 1
 -235 286 l 2
 -235 261 -255 240 -280 240 c 27
 -281 240 -282 240 -282 240 c 1
-316 281 m 1
 -295 281 l 1
 -294 281 l 2
 -269 281 -250 302 -250 327 c 2
 -250 328 l 1
 -250 330 l 9
 -250 418 l 1
 -250 433 l 1
 -250 434 l 2
 -250 459 -269 480 -294 480 c 2
 -295 480 l 1
 -296 480 l 2xdd
 -321 480 -340 460 -340 435 c 0
 -342 435 l 1
 -344 435 l 1
 -420 435 l 1
 -420 472 l 1
 -420 474 l 2
 -420 499 -400 520 -375 520 c 2
 -374 520 l 1xed
 -285 520 l 1
 -216 520 l 1
 -215 520 l 2
 -190 520 -170 499 -170 474 c 2
 -170 423 l 1
 -170 54 l 1
 -170 0 l 1xdd
 -216 0 l 1
 -250 0 l 1xdb
 -250 21 l 1xdd
 -283 0 l 1
 -287 0 l 1
 -374 0 l 1
 -375 0 l 2
 -400 0 -420 21 -420 46 c 2
 -420 51 l 1
 -420 235 l 2
 -420 260 -400 281 -375 281 c 2
 -374 281 l 1
 -340 281 l 1
 -316 281 l 1
-250 252 m 1xcb
 -281 240 l 1
 -295 240 l 1
 -296 240 l 0
 -321 240 -340 219 -340 194 c 2
 -340 193 l 1
 -340 97 l 1
 -340 88 l 1
 -340 87 l 2
 -340 62 -321 41 -296 41 c 2
 -295 41 l 1
 -294 41 l 2
 -269 41 -250 62 -250 87 c 2
 -250 88 l 1
 -250 93 l 1xcd
 -250 252 l 1xcb
-170 46 m 1026
EndSplineSet
Fore
SplineSet
290 85 m 6xdd
 290 60 310 40 335 40 c 6
 460 40 l 5
 460 0 l 5
 286 0 l 5
 285 0 l 6
 260 0 240 20 240 45 c 4
 240 46 l 5
 240 474 l 5
 240 475 l 6xdb
 240 500 260 520 285 520 c 4
 286 520 l 5
 415 520 l 6
 440 520 460 500 460 475 c 4
 460 240 460 240 460 240 c 5
 290 240 l 5
 290 85 l 6xdd
380 280 m 5
 380 435 l 6xed
 380 460 360 480 335 480 c 4xdd
 310 480 290 460 290 435 c 6
 290 280 l 5xed
 380 280 l 5
210 280 m 5
 210 435 l 6xed
 210 460 190 480 165 480 c 4xdd
 140 480 120 460 120 435 c 5
 40 435 l 5
 40 475 l 6
 40 500 60 520 85 520 c 4xed
 214 520 l 5
 215 520 l 6
 240 520 260 500 260 475 c 4
 260 474 l 5
 260 46 l 5
 260 45 l 6xdb
 260 20 240 0 215 0 c 4
 214 0 l 5
 85 0 l 6
 60 0 40 20 40 45 c 4
 40 235 40 235 40 235 c 6
 40 260 60 280 85 280 c 6
 210 280 l 5
165 240 m 6
 140 240 120 220 120 195 c 6
 120 85 l 6
 120 60 140 40 165 40 c 4
 190 40 210 60 210 85 c 6
 210 240 l 5
 165 240 l 6
EndSplineSet
EndChar

StartChar: Ccedilla
Encoding: 459 199 203
Width: 410
UnlinkRmOvrlpSave: 1
Flags: W
HStem: 0 85<46.4806 120> 0 40<127.646 286.897> 150 40<127.646 229 282 370> 150 5<229 282> 720 40<127.646 370>
VStem: 40 80<46.4806 85 196.481 713.519> 290 80<43.748 86.1697>
LayerCount: 2
Back
SplineSet
370 190 m 5x2e
 370 150 l 5x2e
 85 150 l 6x1e
 60 150 40 170 40 195 c 6
 40 715 l 6
 40 740 60 760 85 760 c 6
 370 760 l 5
 370 720 l 5
 165 720 l 6
 140 720 120 700 120 675 c 6
 120 235 l 6
 120 210 140 190 165 190 c 6
 370 190 l 5x2e
290 75 m 6
 290 77 l 6
 290 90 287 96 270 113 c 6
 229 154 l 5
 282 155 l 29
 339 96 l 6
 360 74 370 59 370 43 c 6
 370 39 l 6
 370 14 350 0 325 0 c 6x5e
 85 0 l 6
 60 0 40 20 40 45 c 6
 40 85 l 5
 120 85 l 5x8e
 120 60 140 40 165 40 c 6
 245 40 l 6x4e
 270 40 290 50 290 75 c 6
EndSplineSet
Fore
SplineSet
370 190 m 1x2e
 370 150 l 1x2e
 85 150 l 2x1e
 60 150 40 170 40 195 c 2
 40 715 l 2
 40 740 60 760 85 760 c 2
 370 760 l 1
 370 720 l 1
 165 720 l 2
 140 720 120 700 120 675 c 2
 120 235 l 2
 120 210 140 190 165 190 c 2
 370 190 l 1x2e
290 75 m 2
 290 77 l 2
 290 90 287 96 270 113 c 2
 229 154 l 1
 282 155 l 25
 339 96 l 2
 360 74 370 59 370 43 c 2
 370 39 l 2
 370 14 350 0 325 0 c 2x5e
 85 0 l 2
 60 0 40 20 40 45 c 2
 40 85 l 1
 120 85 l 1x8e
 120 60 140 40 165 40 c 2
 245 40 l 2x4e
 270 40 290 50 290 75 c 2
EndSplineSet
EndChar

StartChar: Thorn
Encoding: 466 222 210
Width: 410
Flags: W
HStem: 0 21G<40 120> 130 40<120 255.689> 590 40<120 255.689> 740 20G<40 120>
VStem: 40 80<0 130 170 590 630 760> 290 80<201.777 558.223>
LayerCount: 2
Fore
SplineSet
120 590 m 5
 120 170 l 5
 200 170 l 6
 250 170 290 210 290 260 c 6
 290 500 l 6
 290 550 250 590 200 590 c 6
 120 590 l 5
40 760 m 5
 120 760 l 5
 120 630 l 5
 280 630 l 6
 330 630 370 590 370 540 c 4
 370 220 l 6
 370 170 330 130 280 130 c 4
 120 130 l 5
 120 0 l 5
 40 0 l 5
 40 760 l 5
EndSplineSet
Validated: 1
EndChar

StartChar: eth
Encoding: 467 240 211
Width: 330
UnlinkRmOvrlpSave: 1
Flags: W
HStem: 0 41<127.664 202.336> 479 41<127.664 203.242> 630 40<60 222.354> 720 20G<129 189>
VStem: 40 80<48.8977 471.102> 129 60<560 740> 210 15<469 499> 230 60<459.549 623.519>
LayerCount: 2
Back
SplineSet
120.00390625 97 m 1xf3c0
 120.00390625 87.9013671875 l 1
 120.00390625 86.7431640625 l 2
 120.00390625 61.4931640625 139.1640625 41 164.00390625 41 c 2
 165.00390625 41 l 1
 166.00390625 41 l 2
 190.84375 41 210.00390625 61.4931640625 210.00390625 86.7431640625 c 2
 210.00390625 87.9013671875 l 1
 210.00390625 93 l 1
 210.00390625 432.098632812 l 1
 210.00390625 433.256835938 l 2
 210.00390625 458.506835938 190.84375 479 166.00390625 479 c 2
 165.00390625 479 l 1
 164.00390625 479 l 0
 139.1640625 479 120.1015625 458 120.00390625 433 c 2
 120 431.995117188 l 1
 120.00390625 97 l 1xf3c0
178.00390625 520 m 1
 178.00390625 520 179.00390625 520 180.00390625 520 c 3
 205.00390625 520 225.00390625 499.16796875 225.00390625 473.91796875 c 2
 225.00390625 469 l 1
 215.00390625 447 l 0
 196.00390625 470 l 0
 178.00390625 520 l 1
210.00390625 23 m 1025
230.00390625 578 m 1
 230.00390625 583 l 1
 230.00390625 585 l 2
 230.00390625 609.83984375 209.844726562 630 185.005859375 630 c 2
 60.001953125 630 l 1
 60.001953125 670 l 1
 245.005859375 670 l 0
 269.844726562 670 290.00390625 649.83984375 290.00390625 625 c 2
 290.00390625 623 l 1
 290.00390625 510 l 1
 290.0078125 90 l 0
 290.0078125 40.3203125 249.6875 0 200.0078125 0 c 0
 130 0 l 0
 80.3203125 0 40 40.3203125 40 90 c 0
 40 429.995117188 l 0
 40 479.677734375 80.00390625 520 130 520 c 2
 135.00390625 520 l 1
 144.00390625 520 l 1
 165.00390625 520 l 1
 179.00390625 520 l 1
 210.00390625 456 l 1
 210.00390625 533 230.00390625 527 230.00390625 578 c 1
189.00390625 559.998046875 m 1
 129.00390625 559.998046875 l 1
 129.00390625 739.998046875 l 1
 189.00390625 739.998046875 l 1xfbc0
 189.00390625 559.998046875 l 1
210.00390625 40 m 1025
-241.99609375 0 m 1xf4
 -192.99609375 51 l 1
 -192.99609375 46.08203125 l 2
 -192.99609375 20.83203125 -212.99609375 0 -237.99609375 0 c 3
 -238.99609375 0 -241.99609375 0 -241.99609375 0 c 1xf4
-209.99609375 480 m 1xf8
 -210 480 l 0
 -259.6796875 480 -300 439.677734375 -300 389.995117188 c 0
 -300 130 l 0
 -300 80.3203125 -259.6796875 40 -210 40 c 0
 -209.99609375 40 l 1
 -209.99609375 480 l 1xf8
-129.99609375 740 m 1
 -129.99609375 0 l 1xf8
 -209.99609375 0 l 1
 -209.99609375 23 l 1xf4
 -240.116210938 0 l 1
 -290 0 l 0
 -339.6796875 0 -380 40.3203125 -380 90 c 0
 -380 429.995117188 l 0
 -380 479.677734375 -339.6796875 520 -290 520 c 2
 -209.99609375 520 l 1
 -209.99609375 740 l 1
 -129.99609375 740 l 1
EndSplineSet
Fore
SplineSet
120 97 m 5
 120 88 l 5
 120 87 l 6
 120 62 139 41 164 41 c 6
 165 41 l 5
 166 41 l 6
 191 41 210 62 210 87 c 6
 210 88 l 5
 210 93 l 5
 210 432 l 5
 210 433 l 6
 210 458 191 479 166 479 c 6
 165 479 l 5
 164 479 l 4
 139 479 120 458 120 433 c 6
 120 432 l 5
 120 97 l 5
178 520 m 5
 178 520 179 520 180 520 c 7
 205 520 225 499 225 474 c 6
 225 469 l 5
 215 447 l 4
 196 470 l 4
 178 520 l 5
210 23 m 1029
230 578 m 5
 230 583 l 5
 230 585 l 6
 230 610 210 630 185 630 c 6
 60 630 l 5
 60 670 l 5
 245 670 l 4
 270 670 290 650 290 625 c 6
 290 623 l 5
 290 510 l 5
 290 90 l 4
 290 40 250 0 200 0 c 4
 130 0 l 4
 80 0 40 40 40 90 c 4
 40 430 l 4
 40 480 80 520 130 520 c 6
 135 520 l 5
 144 520 l 5
 165 520 l 5
 179 520 l 5
 210 456 l 5
 210 533 230 527 230 578 c 5
189 560 m 5
 129 560 l 5
 129 740 l 5
 189 740 l 5
 189 560 l 5
210 40 m 1029
EndSplineSet
EndChar

StartChar: thorn
Encoding: 478 254 222
Width: 330
UnlinkRmOvrlpSave: 1
Flags: W
HStem: -200 21G<40 120> 0 40<133.51 176.306> 479 41<132.625 202.336> 720 20G<40 120> 720 20G<40 120>
VStem: 40 80<-200 -200 40 472.818 497 740> 103 17<42.5125 51 497 499> 210 80<71.7773 471.102>
LayerCount: 2
Fore
SplineSet
166 479 m 2xe5
 164 479 l 18
 139 479 120 458 120 433 c 2
 120 40 l 1
 121 40 l 2
 171 40 210 80 210 130 c 2
 210 433 l 2
 210 458 191 479 166 479 c 2xe5
152 520 m 1
 103 469 l 1
 103 474 l 2xe3
 103 499 123 520 148 520 c 2
 152 520 l 1
150 520 m 1
 200 520 l 2
 250 520 290 480 290 430 c 2
 290 90 l 2
 290 40 250 0 200 0 c 2
 150 0 l 1
 120 23 l 1xf3
 120 -200 l 1
 40 -200 l 1
 40 740 l 1
 120 740 l 1
 120 497 l 1xf5
 150 520 l 1
152 0 m 1
 148 0 l 2
 123 0 103 21 103 46 c 2
 103 51 l 1
 152 0 l 1
EndSplineSet
EndChar

StartChar: uniA74E
Encoding: 515 42830 259
Width: 660
UnlinkRmOvrlpSave: 1
Flags: W
HStem: 0 40<152.499 258.118 381.882 507.501> 720 40<152.499 278.118 401.882 507.501>
VStem: 40 80<71.7951 688.205> 290 60<82 305> 310 60<455 678> 540 80<71.7951 688.205>
LayerCount: 2
Fore
SplineSet
120 630 m 0xec
 120 130 120 130 120 130 c 2
 120 82 158 40 205 40 c 3
 206 40 l 3
 253 40 290 82 290 130 c 0xf4
 310 630 l 0
 310 678 273 720 226 720 c 3
 205 720 l 3
 158 720 120 678 120 630 c 0xec
40 90 m 0
 40 670 40 670 40 670 c 2
 40 720 80 760 130 760 c 0
 280 760 l 0
 330 760 370 720 370 670 c 0
 370 90 l 0xec
 370 40 330 0 280 0 c 0
 130 0 l 0
 80 0 40 40 40 90 c 0
370 630 m 0
 350 130 l 0xf4
 350 82 387 40 434 40 c 3
 455 40 l 3
 502 40 540 82 540 130 c 0
 540 630 540 630 540 630 c 2
 540 678 502 720 455 720 c 3
 454 720 l 3
 407 720 370 678 370 630 c 0
290 90 m 0
 290 670 l 0
 290 720 350 760 400 760 c 0
 530 760 l 0
 580 760 620 720 620 670 c 0
 620 90 l 0
 620 40 580 0 530 0 c 0
 380 0 l 0
 330 0 290 40 290 90 c 0
EndSplineSet
EndChar

StartChar: uni0418
Encoding: 516 1048 260
Width: 410
UnlinkRmOvrlpSave: 1
Flags: W
HStem: 0 21G<39.998 119.998 290 370> 0 21G<39.998 119.998 290 370> 721 39G<39.998 119.998 290 370> 740 20G<39.998 119.998 290 370>
VStem: 39.998 80<0 760> 290 80<0 696.459 697 760>
LayerCount: 2
Fore
SplineSet
370 739 m 4x1c
 369.735351562 728.444335938 361.166015625 711.807617188 347.052734375 697 c 5
 346.537109375 696.458984375 l 4
 294.698242188 642.579101562 157.85546875 500.86328125 106 447 c 5
 76 477 l 5
 258.190429688 666.698242188 l 6
 276.678710938 685.948242188 290 711.700195312 290 740 c 4
 290 741 l 13
 370 741 l 29
 370 739 l 4x1c
119.998046875 760 m 1xac
 119.998046875 0 l 1
 39.998046875 0 l 1
 39.998046875 760 l 1
 119.998046875 760 l 1xac
290 0 m 1
 290 760 l 1
 370 760 l 1
 370 0 l 1
 290 0 l 1
EndSplineSet
EndChar

StartChar: uni0438
Encoding: 517 1080 261
Width: 370
UnlinkRmOvrlpSave: 1
Flags: W
HStem: 0 21G<40 120 250 330> 520 10G<40 120 269.286 310.714>
VStem: 40 80<0 520> 250 80<0 455 456 532.5>
LayerCount: 2
Back
SplineSet
322.618164062 331.147460938 m 5x38
 302.00390625 301.1171875 l 5
 193.06640625 405.84375 l 6
 173.828125 424.353515625 148.064453125 435.653320312 119.764648438 435.653320312 c 6
 86.7646484375 435.653320312 l 5
 48.2177734375 491.2265625 l 5
 76.00390625 520 l 5
 90.00390625 520 l 6
 118.303710938 520 144.067382812 508.700195312 163.305664062 490.190429688 c 4
 317.711914062 341.743164062 l 5
 322.618164062 331.147460938 l 5x38
260.776367188 522.234375 m 5
 290 550 l 5
 319.224609375 522.236328125 l 6
 326.060546875 515.759765625 330.001953125 508.146484375 330.001953125 500 c 5
 330.001953125 0 l 5
 250.001953125 0 l 5xb8
 250.001953125 500 l 5
 250.001953125 508.145507812 253.942382812 515.758789062 260.776367188 522.234375 c 5
120 0 m 5
 40 0 l 5
 40 520 l 5
 83 520 l 5
 120 482 l 5
 120 0 l 5
EndSplineSet
Fore
SplineSet
330 498 m 0
 330 487 321 471 307 456 c 1
 307 455 l 0
 255 401 118 260 66 206 c 1
 59 260 l 1
 218 426 l 2
 230 439 250 471 250 499 c 0
 250 500 l 9
 330 500 l 25
 330 498 l 0
261 522 m 1
 290 550 l 1
 319 522 l 2
 326 516 330 508 330 500 c 1
 330 0 l 1
 250 0 l 1
 250 500 l 1
 250 508 254 516 261 522 c 1
120 0 m 1
 40 0 l 1
 40 520 l 1
 83 520 l 1
 120 520 l 1
 120 0 l 1
EndSplineSet
EndChar

StartChar: uniA74F
Encoding: 518 42831 262
Width: 500
UnlinkRmOvrlpSave: 1
Flags: W
HStem: 0 40<128.695 201.305 283.942 369.373> 480 40<130.627 216.058 298.695 371.305>
VStem: 40 80<46.9702 471.102> 210 60<82 221> 230 60<299 438> 380 80<48.8977 473.03>
LayerCount: 2
Back
SplineSet
39.99609375 389.995117188 m 4xec
 39.99609375 130 l 6
 39.99609375 81.9970703125 77.5703125 40 125 40 c 7
 125.333984375 40 125.666992188 40.005859375 126 40.005859375 c 7
 172.95703125 40.005859375 210 82.3349609375 210 130 c 4
 230 389.995117188 l 4
 230 437.662109375 192.956054688 480 146 480 c 7
 145.666992188 480 125.334960938 480 125 480 c 7
 77.5703125 480 39.99609375 438.000976562 39.99609375 389.995117188 c 4xec
-40.00390625 90 m 4
 -40.00390625 429.995117188 l 6
 -40.00390625 479.677734375 0.31640625 520 49.99609375 520 c 4
 200 520 l 4
 249.6796875 520 290 479.677734375 290 429.995117188 c 4
 290 90 l 4
 290 40.3203125 249.6796875 0 200 0 c 4
 49.99609375 0 l 4
 0.31640625 0 -40.00390625 40.3203125 -40.00390625 90 c 4
289.99609375 389.995117188 m 4
 269.99609375 130 l 4xf4
 269.99609375 82.3349609375 307.04296875 40.005859375 354 40.005859375 c 7
 354.333007812 40.005859375 374.666015625 40 375 40 c 7
 422.4296875 40 460 81.9970703125 460 130 c 4
 460 389.995117188 l 6
 460 438.000976562 422.4296875 480 375 480 c 7
 374.666015625 480 374.333007812 479.994140625 374 479.994140625 c 7
 327.04296875 479.994140625 289.99609375 437.663085938 289.99609375 389.995117188 c 4
209.99609375 90 m 4
 209.99609375 429.995117188 l 4
 209.99609375 479.677734375 270.31640625 520 319.99609375 520 c 4
 450 520 l 4
 499.6796875 520 540 479.677734375 540 429.995117188 c 4
 540 90 l 4
 540 40.3203125 499.6796875 0 450 0 c 4
 299.99609375 0 l 4
 250.31640625 0 209.99609375 40.3203125 209.99609375 90 c 4
EndSplineSet
Fore
SplineSet
210 90 m 2xf4
 210 430 l 2xf4
 210 480 250 520 300 520 c 2
 370 520 l 2
 420 520 460 480 460 430 c 2
 460 90 l 2
 460 40 420 0 370 0 c 2
 290 0 l 2xec
 240 0 210 40 210 90 c 2xf4
290 390 m 1xec
 270 130 l 1xf4
 270 82 280 40 325 40 c 0
 380 40 380 82 380 130 c 2
 380 390 l 2
 380 438 380 480 335 480 c 0
 290 480 290 438 290 390 c 1xec
40 90 m 2
 40 430 l 2
 40 480 80 520 130 520 c 2
 210 520 l 2xf4
 260 520 290 480 290 430 c 2
 290 90 l 2xec
 290 40 250 0 200 0 c 2
 130 0 l 2
 80 0 40 40 40 90 c 2
120 390 m 2
 120 130 l 2
 120 82 120 40 165 40 c 0
 210 40 210 82 210 130 c 1xf4
 230 390 l 1xec
 230 438 220 480 175 480 c 0
 120 480 120 438 120 390 c 2
EndSplineSet
EndChar
